<svg width="138" height="139" viewBox="0 0 138 139" fill="none" xmlns="http://www.w3.org/2000/svg">
<ellipse cx="68.8049" cy="69.4999" rx="68.8049" ry="69.4999" fill="#6B9AC4"/>
<path fill-rule="evenodd" clip-rule="evenodd" d="M124.513 41.3087C125.4 48.7084 114.595 54.9308 103.883 58.9807C94.8828 62.3834 83.2703 59.1828 72.8702 60.8336C52.7248 64.0311 32.7916 80.4444 16.3509 72.874C0.662797 65.6501 24.5779 51.7354 28.7016 40.4953C31.4071 33.1208 27.3518 24.7575 36.0578 19.1583C45.1362 13.3196 59.7994 10.4361 73.2864 11.821C85.4989 13.075 91.0898 20.6465 99.8916 25.7131C108.862 30.8767 123.642 34.0535 124.513 41.3087Z" stroke="#F4B942"/>
<path fill-rule="evenodd" clip-rule="evenodd" d="M110.353 42.5626C111.075 48.5235 102.296 53.5354 93.5926 56.7972C86.2803 59.5378 76.845 56.9588 68.395 58.288C52.0271 60.8625 35.8323 74.0832 22.4738 67.9839C9.7268 62.1637 29.157 50.956 32.5068 41.9017C34.7046 35.9614 31.4092 29.224 38.4825 24.714C45.8583 20.0112 57.772 17.6892 68.7302 18.8056C78.653 19.8165 83.1961 25.9161 90.3478 29.9981C97.6364 34.1582 109.646 36.7181 110.353 42.5626Z" stroke="#97D8C4"/>
<circle cx="68.8049" cy="70.1809" r="68.8049" fill="black" fill-opacity="0.4"/>
<path d="M43.1123 71.6443L41.4083 67.1883C41.2856 66.8843 41.163 66.5003 41.0403 66.0363C40.9816 66.2656 40.9203 66.479 40.8563 66.6763C40.7976 66.8736 40.739 67.0496 40.6803 67.2043L38.9843 71.6443H43.1123ZM46.4803 75.9243H45.1683C45.019 75.9243 44.8963 75.887 44.8003 75.8123C44.7043 75.7376 44.635 75.6416 44.5923 75.5243L43.5763 72.8603H38.5123L37.4963 75.5243C37.459 75.6256 37.3896 75.719 37.2883 75.8043C37.187 75.8843 37.0643 75.9243 36.9203 75.9243H35.6083L40.1843 64.4363H41.9043L46.4803 75.9243ZM54.1671 67.7963V75.9243H53.2311C53.0177 75.9243 52.8791 75.8203 52.8151 75.6123L52.7031 74.7963C52.5271 74.983 52.3431 75.1536 52.1511 75.3083C51.9591 75.463 51.7537 75.5963 51.5351 75.7083C51.3164 75.815 51.0844 75.8976 50.8391 75.9563C50.5937 76.0203 50.3297 76.0523 50.0471 76.0523C49.5991 76.0523 49.2044 75.9776 48.8631 75.8283C48.5271 75.679 48.2444 75.471 48.0151 75.2043C47.7857 74.9323 47.6124 74.607 47.4951 74.2283C47.3777 73.8496 47.3191 73.431 47.3191 72.9723V67.7963H48.8871V72.9723C48.8871 73.5536 49.0204 74.007 49.2871 74.3323C49.5537 74.6523 49.9617 74.8123 50.5111 74.8123C50.9111 74.8123 51.2844 74.719 51.6311 74.5323C51.9777 74.3403 52.3031 74.079 52.6071 73.7483V67.7963H54.1671ZM62.0406 69.3163C61.9926 69.375 61.9446 69.423 61.8966 69.4603C61.8539 69.4923 61.7899 69.5083 61.7046 69.5083C61.6192 69.5083 61.5286 69.4763 61.4326 69.4123C61.3419 69.343 61.2246 69.271 61.0806 69.1963C60.9419 69.1163 60.7712 69.0443 60.5686 68.9803C60.3712 68.911 60.1259 68.8763 59.8326 68.8763C59.4486 68.8763 59.1099 68.9456 58.8166 69.0843C58.5232 69.223 58.2779 69.4203 58.0806 69.6763C57.8886 69.9323 57.7419 70.2443 57.6406 70.6123C57.5392 70.9803 57.4886 71.3936 57.4886 71.8523C57.4886 72.327 57.5419 72.751 57.6486 73.1243C57.7552 73.4923 57.9072 73.8043 58.1046 74.0603C58.3019 74.311 58.5419 74.503 58.8246 74.6363C59.1072 74.7643 59.4219 74.8283 59.7686 74.8283C60.1046 74.8283 60.3819 74.7883 60.6006 74.7083C60.8192 74.623 61.0006 74.5323 61.1446 74.4363C61.2886 74.3403 61.4086 74.2523 61.5046 74.1723C61.6006 74.087 61.6992 74.0443 61.8006 74.0443C61.9286 74.0443 62.0272 74.0923 62.0966 74.1883L62.5446 74.7643C62.3579 74.9936 62.1472 75.1883 61.9126 75.3483C61.6832 75.5083 61.4379 75.639 61.1766 75.7403C60.9152 75.8416 60.6406 75.9163 60.3526 75.9643C60.0699 76.0123 59.7819 76.0363 59.4886 76.0363C58.9819 76.0363 58.5072 75.943 58.0646 75.7563C57.6272 75.5696 57.2459 75.2976 56.9206 74.9403C56.6006 74.583 56.3472 74.1456 56.1606 73.6283C55.9739 73.1056 55.8806 72.5136 55.8806 71.8523C55.8806 71.2496 55.9632 70.6923 56.1286 70.1803C56.2992 69.6683 56.5472 69.2283 56.8726 68.8603C57.2032 68.487 57.6086 68.1963 58.0886 67.9883C58.5686 67.775 59.1179 67.6683 59.7366 67.6683C60.3179 67.6683 60.8299 67.7616 61.2726 67.9483C61.7152 68.135 62.1099 68.399 62.4566 68.7403L62.0406 69.3163ZM71.7048 75.9243H70.1368V69.0603H66.0568V73.8203C66.0568 74.1403 66.1341 74.3803 66.2888 74.5403C66.4488 74.695 66.6515 74.7723 66.8968 74.7723C67.0408 74.7723 67.1635 74.7536 67.2648 74.7163C67.3715 74.679 67.4621 74.639 67.5368 74.5963C67.6115 74.5483 67.6755 74.5056 67.7288 74.4683C67.7821 74.431 67.8301 74.4123 67.8728 74.4123C67.9261 74.4123 67.9661 74.4256 67.9928 74.4523C68.0248 74.4736 68.0568 74.511 68.0888 74.5643L68.5528 75.3163C68.2968 75.551 67.9928 75.7323 67.6408 75.8603C67.2888 75.9883 66.9235 76.0523 66.5448 76.0523C65.8888 76.0523 65.3821 75.8683 65.0248 75.5003C64.6728 75.1323 64.4968 74.607 64.4968 73.9243V69.0603H63.5528C63.4621 69.0603 63.3848 69.0336 63.3208 68.9803C63.2621 68.9216 63.2328 68.8363 63.2328 68.7243V68.0923L64.5608 67.9083L64.9048 65.4843C64.9261 65.3936 64.9661 65.3243 65.0248 65.2763C65.0888 65.223 65.1688 65.1963 65.2648 65.1963H66.0568V67.9243H71.7048V75.9243ZM72.0568 65.2363C72.0568 65.3803 72.0275 65.519 71.9688 65.6523C71.9101 65.7803 71.8301 65.895 71.7288 65.9963C71.6328 66.0923 71.5181 66.1696 71.3848 66.2283C71.2515 66.2816 71.1128 66.3083 70.9688 66.3083C70.8248 66.3083 70.6888 66.2816 70.5608 66.2283C70.4328 66.1696 70.3181 66.0923 70.2168 65.9963C70.1208 65.895 70.0435 65.7803 69.9848 65.6523C69.9315 65.519 69.9048 65.3803 69.9048 65.2363C69.9048 65.087 69.9315 64.9456 69.9848 64.8123C70.0435 64.679 70.1208 64.5643 70.2168 64.4683C70.3181 64.367 70.4328 64.2896 70.5608 64.2363C70.6888 64.1776 70.8248 64.1483 70.9688 64.1483C71.1128 64.1483 71.2515 64.1776 71.3848 64.2363C71.5181 64.2896 71.6328 64.367 71.7288 64.4683C71.8301 64.5643 71.9101 64.679 71.9688 64.8123C72.0275 64.9456 72.0568 65.087 72.0568 65.2363ZM77.4336 67.6683C78.0309 67.6683 78.5696 67.767 79.0496 67.9643C79.5349 68.1563 79.9456 68.4363 80.2816 68.8043C80.6229 69.167 80.8842 69.607 81.0656 70.1243C81.2469 70.6363 81.3376 71.2123 81.3376 71.8523C81.3376 72.4923 81.2469 73.071 81.0656 73.5883C80.8842 74.1056 80.6229 74.5456 80.2816 74.9083C79.9456 75.271 79.5349 75.551 79.0496 75.7483C78.5696 75.9403 78.0309 76.0363 77.4336 76.0363C76.8309 76.0363 76.2869 75.9403 75.8016 75.7483C75.3216 75.551 74.9109 75.271 74.5696 74.9083C74.2282 74.5456 73.9642 74.1056 73.7776 73.5883C73.5962 73.071 73.5056 72.4923 73.5056 71.8523C73.5056 71.2123 73.5962 70.6363 73.7776 70.1243C73.9642 69.607 74.2282 69.167 74.5696 68.8043C74.9109 68.4363 75.3216 68.1563 75.8016 67.9643C76.2869 67.767 76.8309 67.6683 77.4336 67.6683ZM77.4336 74.8203C78.2016 74.8203 78.7749 74.5616 79.1536 74.0443C79.5322 73.527 79.7216 72.799 79.7216 71.8603C79.7216 70.9216 79.5322 70.1936 79.1536 69.6763C78.7749 69.1536 78.2016 68.8923 77.4336 68.8923C76.6549 68.8923 76.0736 69.1536 75.6896 69.6763C75.3109 70.1936 75.1216 70.9216 75.1216 71.8603C75.1216 72.799 75.3109 73.527 75.6896 74.0443C76.0736 74.5616 76.6549 74.8203 77.4336 74.8203ZM84.5429 68.9243C84.7189 68.7376 84.9029 68.567 85.0949 68.4123C85.2869 68.2576 85.4896 68.127 85.7029 68.0203C85.9216 67.9083 86.1536 67.823 86.3989 67.7643C86.6496 67.7003 86.9163 67.6683 87.1989 67.6683C87.6469 67.6683 88.0389 67.743 88.3749 67.8923C88.7163 68.0416 89.0016 68.2523 89.2309 68.5243C89.4603 68.791 89.6336 69.1136 89.7509 69.4923C89.8683 69.871 89.9269 70.2896 89.9269 70.7483V75.9243H88.3589V70.7483C88.3589 70.167 88.2256 69.7163 87.9589 69.3963C87.6923 69.071 87.2843 68.9083 86.7349 68.9083C86.3349 68.9083 85.9589 69.0043 85.6069 69.1963C85.2603 69.383 84.9376 69.639 84.6389 69.9643V75.9243H83.0789V67.7963H84.0149C84.2336 67.7963 84.3696 67.9003 84.4229 68.1083L84.5429 68.9243ZM96.8241 69.1963C96.7814 69.2656 96.7361 69.3163 96.6881 69.3483C96.6401 69.375 96.5787 69.3883 96.5041 69.3883C96.4187 69.3883 96.3227 69.359 96.2161 69.3003C96.1147 69.2416 95.9894 69.1776 95.8401 69.1083C95.6961 69.039 95.5254 68.975 95.3281 68.9163C95.1307 68.8576 94.8961 68.8283 94.6241 68.8283C94.4001 68.8283 94.1947 68.8576 94.0081 68.9163C93.8267 68.9696 93.6721 69.047 93.5441 69.1483C93.4161 69.2443 93.3174 69.3616 93.2481 69.5003C93.1787 69.6336 93.1441 69.7776 93.1441 69.9323C93.1441 70.135 93.2027 70.303 93.3201 70.4363C93.4427 70.5696 93.6001 70.6843 93.7921 70.7803C93.9894 70.8763 94.2107 70.9643 94.4561 71.0443C94.7067 71.119 94.9601 71.199 95.2161 71.2843C95.4774 71.3696 95.7307 71.4683 95.9761 71.5803C96.2267 71.687 96.4481 71.823 96.6401 71.9883C96.8374 72.1483 96.9947 72.343 97.1121 72.5723C97.2347 72.8016 97.2961 73.0816 97.2961 73.4123C97.2961 73.791 97.2267 74.143 97.0881 74.4683C96.9547 74.7883 96.7547 75.0656 96.4881 75.3003C96.2267 75.535 95.9014 75.719 95.5121 75.8523C95.1227 75.9856 94.6774 76.0523 94.1761 76.0523C93.6161 76.0523 93.0987 75.959 92.6241 75.7723C92.1494 75.5856 91.7521 75.3483 91.4321 75.0603L91.8001 74.4603C91.8427 74.3856 91.8961 74.3296 91.9601 74.2923C92.0241 74.2496 92.1094 74.2283 92.2161 74.2283C92.3174 74.2283 92.4214 74.2656 92.5281 74.3403C92.6347 74.415 92.7627 74.4976 92.9121 74.5883C93.0614 74.6736 93.2427 74.7536 93.4561 74.8283C93.6694 74.8976 93.9361 74.9323 94.2561 74.9323C94.5227 74.9323 94.7547 74.9003 94.9521 74.8363C95.1494 74.767 95.3121 74.6763 95.4401 74.5643C95.5734 74.447 95.6721 74.3136 95.7361 74.1643C95.8001 74.015 95.8321 73.8576 95.8321 73.6923C95.8321 73.479 95.7707 73.303 95.6481 73.1643C95.5307 73.0203 95.3734 72.8976 95.1761 72.7963C94.9841 72.695 94.7627 72.607 94.5121 72.5323C94.2614 72.4576 94.0054 72.3776 93.7441 72.2923C93.4827 72.207 93.2267 72.1083 92.9761 71.9963C92.7254 71.8843 92.5014 71.743 92.3041 71.5723C92.1121 71.4016 91.9547 71.1936 91.8321 70.9483C91.7147 70.703 91.6561 70.4043 91.6561 70.0523C91.6561 69.7376 91.7201 69.4363 91.8481 69.1483C91.9814 68.8603 92.1707 68.607 92.4161 68.3883C92.6667 68.1696 92.9734 67.9963 93.3361 67.8683C93.7041 67.735 94.1227 67.6683 94.5921 67.6683C95.1307 67.6683 95.6161 67.7536 96.0481 67.9243C96.4854 68.095 96.8587 68.3296 97.1681 68.6283L96.8241 69.1963Z" fill="white"/>
</svg>
