<svg width="138" height="140" viewBox="0 0 138 140" fill="none" xmlns="http://www.w3.org/2000/svg">
<ellipse cx="68.905" cy="69.594" rx="68.905" ry="69.594" fill="#F4B942"/>
<path fill-rule="evenodd" clip-rule="evenodd" d="M88.3591 25.0615C97.2771 23.8105 106.359 27.2871 113.592 32.5464C120.777 37.7703 127.004 45.2233 128.055 53.9251C129.042 62.0963 123.107 69.1568 118.871 76.2628C115.536 81.8576 110.367 85.5662 106.196 90.5945C99.9377 98.1385 97.6122 109.528 88.3591 113.045C78.1488 116.925 63.9046 117.389 56.5147 109.474C48.9072 101.325 56.1509 88.1736 54.8958 77.2018C53.9931 69.3107 47.6581 61.9543 50.2169 54.4195C52.7716 46.8968 61.5182 43.8577 67.8833 38.9584C74.5759 33.8071 79.9324 26.2436 88.3591 25.0615Z" stroke="#97D8C4"/>
<path fill-rule="evenodd" clip-rule="evenodd" d="M88.4704 34.654C95.5109 33.6683 102.681 36.4076 108.392 40.5512C114.063 44.667 118.98 50.5391 119.809 57.3951C120.588 63.8329 115.903 69.3957 112.559 74.9944C109.926 79.4024 105.845 82.3243 102.552 86.2861C97.6115 92.2298 95.7756 101.204 88.4704 103.974C80.4097 107.031 69.1642 107.397 63.3302 101.161C57.3242 94.7405 63.0429 84.3787 62.052 75.7342C61.3394 69.517 56.338 63.7211 58.3582 57.7846C60.3751 51.8576 67.2802 49.4631 72.3053 45.6031C77.589 41.5445 81.8177 35.5853 88.4704 34.654Z" stroke="#6B9AC4"/>
<ellipse cx="68.905" cy="69.594" rx="68.905" ry="69.594" fill="black" fill-opacity="0.4"/>
<path d="M23.3176 75.4479V76.8799H16.7416V65.3919H18.4456V75.4479H23.3176ZM26.288 68.7519V76.8799H24.728V68.7519H26.288ZM26.584 66.2399C26.584 66.3839 26.5546 66.5225 26.496 66.6559C26.4373 66.7839 26.3573 66.8985 26.256 66.9999C26.16 67.0959 26.0453 67.1732 25.912 67.2319C25.7786 67.2852 25.64 67.3119 25.496 67.3119C25.352 67.3119 25.216 67.2852 25.088 67.2319C24.96 67.1732 24.8453 67.0959 24.744 66.9999C24.648 66.8985 24.5706 66.7839 24.512 66.6559C24.4586 66.5225 24.432 66.3839 24.432 66.2399C24.432 66.0905 24.4586 65.9519 24.512 65.8239C24.5706 65.6905 24.648 65.5759 24.744 65.4799C24.8453 65.3785 24.96 65.3012 25.088 65.2479C25.216 65.1892 25.352 65.1599 25.496 65.1599C25.64 65.1599 25.7786 65.1892 25.912 65.2479C26.0453 65.3012 26.16 65.3785 26.256 65.4799C26.3573 65.5759 26.4373 65.6905 26.496 65.8239C26.5546 65.9519 26.584 66.0905 26.584 66.2399ZM35.6026 68.7519L32.3066 76.8799H30.8986L27.6026 68.7519H28.8906C29.0132 68.7519 29.1146 68.7812 29.1946 68.8399C29.2746 68.8985 29.3279 68.9732 29.3546 69.0639L31.2986 74.0559C31.3679 74.2639 31.4266 74.4719 31.4746 74.6799C31.5279 74.8825 31.5759 75.0852 31.6186 75.2879C31.6612 75.0852 31.7092 74.8825 31.7626 74.6799C31.8159 74.4772 31.8799 74.2692 31.9546 74.0559L33.9226 69.0639C33.9546 68.9732 34.0106 68.8985 34.0906 68.8399C34.1706 68.7812 34.2666 68.7519 34.3786 68.7519H35.6026ZM41.9931 71.9119C41.9931 71.6025 41.9477 71.3172 41.8571 71.0559C41.7717 70.7945 41.6437 70.5679 41.4731 70.3759C41.3024 70.1839 41.0944 70.0345 40.8491 69.9279C40.6037 69.8212 40.3211 69.7679 40.0011 69.7679C39.3451 69.7679 38.8277 69.9572 38.4491 70.3359C38.0757 70.7145 37.8384 71.2399 37.7371 71.9119H41.9931ZM43.2811 75.7199C43.0891 75.9439 42.8677 76.1385 42.6171 76.3039C42.3664 76.4639 42.0997 76.5945 41.8171 76.6959C41.5344 76.7972 41.2411 76.8719 40.9371 76.9199C40.6384 76.9679 40.3424 76.9919 40.0491 76.9919C39.4891 76.9919 38.9691 76.8985 38.4891 76.7119C38.0144 76.5199 37.6011 76.2425 37.2491 75.8799C36.9024 75.5119 36.6304 75.0585 36.4331 74.5199C36.2411 73.9759 36.1451 73.3519 36.1451 72.6479C36.1451 72.0825 36.2331 71.5572 36.4091 71.0719C36.5851 70.5812 36.8357 70.1545 37.1611 69.7919C37.4917 69.4292 37.8944 69.1439 38.3691 68.9359C38.8437 68.7279 39.3771 68.6239 39.9691 68.6239C40.4651 68.6239 40.9211 68.7065 41.3371 68.8719C41.7584 69.0319 42.1211 69.2665 42.4251 69.5759C42.7291 69.8852 42.9664 70.2665 43.1371 70.7199C43.3131 71.1732 43.4011 71.6905 43.4011 72.2719C43.4011 72.5119 43.3744 72.6745 43.3211 72.7599C43.2677 72.8399 43.1691 72.8799 43.0251 72.8799H37.6971C37.7131 73.3652 37.7824 73.7892 37.9051 74.1519C38.0277 74.5092 38.1957 74.8079 38.4091 75.0479C38.6277 75.2879 38.8864 75.4665 39.1851 75.5839C39.4837 75.7012 39.8171 75.7599 40.1851 75.7599C40.5317 75.7599 40.8304 75.7199 41.0811 75.6399C41.3371 75.5599 41.5557 75.4745 41.7371 75.3839C41.9237 75.2879 42.0784 75.1999 42.2011 75.1199C42.3291 75.0399 42.4411 74.9999 42.5371 74.9999C42.6651 74.9999 42.7637 75.0479 42.8331 75.1439L43.2811 75.7199ZM54.8207 70.2719C54.7727 70.3305 54.7247 70.3785 54.6767 70.4159C54.634 70.4479 54.57 70.4639 54.4847 70.4639C54.3994 70.4639 54.3087 70.4319 54.2127 70.3679C54.122 70.2985 54.0047 70.2265 53.8607 70.1519C53.722 70.0719 53.5514 69.9999 53.3487 69.9359C53.1514 69.8665 52.906 69.8319 52.6127 69.8319C52.2287 69.8319 51.89 69.9012 51.5967 70.0399C51.3034 70.1785 51.058 70.3759 50.8607 70.6319C50.6687 70.8879 50.522 71.1999 50.4207 71.5679C50.3194 71.9359 50.2687 72.3492 50.2687 72.8079C50.2687 73.2825 50.322 73.7065 50.4287 74.0799C50.5354 74.4479 50.6874 74.7599 50.8847 75.0159C51.082 75.2665 51.322 75.4585 51.6047 75.5919C51.8874 75.7199 52.202 75.7839 52.5487 75.7839C52.8847 75.7839 53.162 75.7439 53.3807 75.6639C53.5994 75.5785 53.7807 75.4879 53.9247 75.3919C54.0687 75.2959 54.1887 75.2079 54.2847 75.1279C54.3807 75.0425 54.4794 74.9999 54.5807 74.9999C54.7087 74.9999 54.8074 75.0479 54.8767 75.1439L55.3247 75.7199C55.138 75.9492 54.9274 76.1439 54.6927 76.3039C54.4634 76.4639 54.218 76.5945 53.9567 76.6959C53.6954 76.7972 53.4207 76.8719 53.1327 76.9199C52.85 76.9679 52.562 76.9919 52.2687 76.9919C51.762 76.9919 51.2874 76.8985 50.8447 76.7119C50.4074 76.5252 50.026 76.2532 49.7007 75.8959C49.3807 75.5385 49.1274 75.1012 48.9407 74.5839C48.754 74.0612 48.6607 73.4692 48.6607 72.8079C48.6607 72.2052 48.7434 71.6479 48.9087 71.1359C49.0794 70.6239 49.3274 70.1839 49.6527 69.8159C49.9834 69.4425 50.3887 69.1519 50.8687 68.9439C51.3487 68.7305 51.898 68.6239 52.5167 68.6239C53.098 68.6239 53.61 68.7172 54.0527 68.9039C54.4954 69.0905 54.89 69.3545 55.2367 69.6959L54.8207 70.2719ZM60.1043 68.6239C60.7017 68.6239 61.2403 68.7225 61.7203 68.9199C62.2057 69.1119 62.6163 69.3919 62.9523 69.7599C63.2937 70.1225 63.555 70.5625 63.7363 71.0799C63.9177 71.5919 64.0083 72.1679 64.0083 72.8079C64.0083 73.4479 63.9177 74.0265 63.7363 74.5439C63.555 75.0612 63.2937 75.5012 62.9523 75.8639C62.6163 76.2265 62.2057 76.5065 61.7203 76.7039C61.2403 76.8959 60.7017 76.9919 60.1043 76.9919C59.5017 76.9919 58.9577 76.8959 58.4723 76.7039C57.9923 76.5065 57.5817 76.2265 57.2403 75.8639C56.899 75.5012 56.635 75.0612 56.4483 74.5439C56.267 74.0265 56.1763 73.4479 56.1763 72.8079C56.1763 72.1679 56.267 71.5919 56.4483 71.0799C56.635 70.5625 56.899 70.1225 57.2403 69.7599C57.5817 69.3919 57.9923 69.1119 58.4723 68.9199C58.9577 68.7225 59.5017 68.6239 60.1043 68.6239ZM60.1043 75.7759C60.8723 75.7759 61.4457 75.5172 61.8243 74.9999C62.203 74.4825 62.3923 73.7545 62.3923 72.8159C62.3923 71.8772 62.203 71.1492 61.8243 70.6319C61.4457 70.1092 60.8723 69.8479 60.1043 69.8479C59.3257 69.8479 58.7443 70.1092 58.3603 70.6319C57.9817 71.1492 57.7923 71.8772 57.7923 72.8159C57.7923 73.7545 57.9817 74.4825 58.3603 74.9999C58.7443 75.5172 59.3257 75.7759 60.1043 75.7759ZM65.7497 76.8799V68.7519H66.6857C66.9044 68.7519 67.0404 68.8559 67.0937 69.0639L67.2057 69.8399C67.5044 69.4825 67.835 69.1919 68.1977 68.9679C68.5657 68.7385 68.995 68.6239 69.4857 68.6239C70.0244 68.6239 70.4617 68.7732 70.7977 69.0719C71.1337 69.3652 71.379 69.7652 71.5337 70.2719C71.651 69.9839 71.803 69.7359 71.9897 69.5279C72.1764 69.3199 72.3844 69.1492 72.6137 69.0159C72.843 68.8825 73.0857 68.7839 73.3417 68.7199C73.603 68.6559 73.867 68.6239 74.1337 68.6239C74.5657 68.6239 74.9497 68.6932 75.2857 68.8319C75.627 68.9652 75.915 69.1625 76.1497 69.4239C76.3844 69.6852 76.563 70.0079 76.6857 70.3919C76.8084 70.7759 76.8697 71.2132 76.8697 71.7039V76.8799H75.3017V71.7039C75.3017 71.0959 75.1684 70.6372 74.9017 70.3279C74.6404 70.0185 74.2564 69.8639 73.7497 69.8639C73.5257 69.8639 73.3124 69.9039 73.1097 69.9839C72.907 70.0585 72.7284 70.1732 72.5737 70.3279C72.4244 70.4825 72.3044 70.6745 72.2137 70.9039C72.1284 71.1332 72.0857 71.3999 72.0857 71.7039V76.8799H70.5177V71.7039C70.5177 71.0745 70.3924 70.6105 70.1417 70.3119C69.891 70.0132 69.523 69.8639 69.0377 69.8639C68.7017 69.8639 68.3897 69.9519 68.1017 70.1279C67.8137 70.3039 67.5497 70.5439 67.3097 70.8479V76.8799H65.7497ZM78.9685 76.8799V68.7519H79.9045C80.1231 68.7519 80.2591 68.8559 80.3125 69.0639L80.4245 69.8399C80.7231 69.4825 81.0538 69.1919 81.4165 68.9679C81.7845 68.7385 82.2138 68.6239 82.7045 68.6239C83.2431 68.6239 83.6805 68.7732 84.0165 69.0719C84.3525 69.3652 84.5978 69.7652 84.7525 70.2719C84.8698 69.9839 85.0218 69.7359 85.2085 69.5279C85.3951 69.3199 85.6031 69.1492 85.8325 69.0159C86.0618 68.8825 86.3045 68.7839 86.5605 68.7199C86.8218 68.6559 87.0858 68.6239 87.3525 68.6239C87.7845 68.6239 88.1685 68.6932 88.5045 68.8319C88.8458 68.9652 89.1338 69.1625 89.3685 69.4239C89.6031 69.6852 89.7818 70.0079 89.9045 70.3919C90.0271 70.7759 90.0885 71.2132 90.0885 71.7039V76.8799H88.5205V71.7039C88.5205 71.0959 88.3871 70.6372 88.1205 70.3279C87.8591 70.0185 87.4751 69.8639 86.9685 69.8639C86.7445 69.8639 86.5311 69.9039 86.3285 69.9839C86.1258 70.0585 85.9471 70.1732 85.7925 70.3279C85.6431 70.4825 85.5231 70.6745 85.4325 70.9039C85.3471 71.1332 85.3045 71.3999 85.3045 71.7039V76.8799H83.7365V71.7039C83.7365 71.0745 83.6111 70.6105 83.3605 70.3119C83.1098 70.0132 82.7418 69.8639 82.2565 69.8639C81.9205 69.8639 81.6085 69.9519 81.3205 70.1279C81.0325 70.3039 80.7685 70.5439 80.5285 70.8479V76.8799H78.9685ZM97.5712 71.9119C97.5712 71.6025 97.5259 71.3172 97.4352 71.0559C97.3499 70.7945 97.2219 70.5679 97.0512 70.3759C96.8805 70.1839 96.6725 70.0345 96.4272 69.9279C96.1819 69.8212 95.8992 69.7679 95.5792 69.7679C94.9232 69.7679 94.4059 69.9572 94.0272 70.3359C93.6539 70.7145 93.4165 71.2399 93.3152 71.9119H97.5712ZM98.8592 75.7199C98.6672 75.9439 98.4459 76.1385 98.1952 76.3039C97.9445 76.4639 97.6779 76.5945 97.3952 76.6959C97.1125 76.7972 96.8192 76.8719 96.5152 76.9199C96.2165 76.9679 95.9205 76.9919 95.6272 76.9919C95.0672 76.9919 94.5472 76.8985 94.0672 76.7119C93.5925 76.5199 93.1792 76.2425 92.8272 75.8799C92.4805 75.5119 92.2085 75.0585 92.0112 74.5199C91.8192 73.9759 91.7232 73.3519 91.7232 72.6479C91.7232 72.0825 91.8112 71.5572 91.9872 71.0719C92.1632 70.5812 92.4139 70.1545 92.7392 69.7919C93.0699 69.4292 93.4725 69.1439 93.9472 68.9359C94.4219 68.7279 94.9552 68.6239 95.5472 68.6239C96.0432 68.6239 96.4992 68.7065 96.9152 68.8719C97.3365 69.0319 97.6992 69.2665 98.0032 69.5759C98.3072 69.8852 98.5445 70.2665 98.7152 70.7199C98.8912 71.1732 98.9792 71.6905 98.9792 72.2719C98.9792 72.5119 98.9525 72.6745 98.8992 72.7599C98.8459 72.8399 98.7472 72.8799 98.6032 72.8799H93.2752C93.2912 73.3652 93.3605 73.7892 93.4832 74.1519C93.6059 74.5092 93.7739 74.8079 93.9872 75.0479C94.2059 75.2879 94.4645 75.4665 94.7632 75.5839C95.0619 75.7012 95.3952 75.7599 95.7632 75.7599C96.1099 75.7599 96.4085 75.7199 96.6592 75.6399C96.9152 75.5599 97.1339 75.4745 97.3152 75.3839C97.5019 75.2879 97.6565 75.1999 97.7792 75.1199C97.9072 75.0399 98.0192 74.9999 98.1152 74.9999C98.2432 74.9999 98.3419 75.0479 98.4112 75.1439L98.8592 75.7199ZM102.128 70.3119C102.389 69.7785 102.704 69.3599 103.072 69.0559C103.44 68.7519 103.883 68.5999 104.4 68.5999C104.576 68.5999 104.741 68.6212 104.896 68.6639C105.056 68.7012 105.195 68.7599 105.312 68.8399L105.208 70.0159C105.171 70.1599 105.083 70.2319 104.944 70.2319C104.869 70.2319 104.757 70.2185 104.608 70.1919C104.459 70.1599 104.299 70.1439 104.128 70.1439C103.877 70.1439 103.656 70.1812 103.464 70.2559C103.272 70.3252 103.099 70.4319 102.944 70.5759C102.795 70.7145 102.661 70.8879 102.544 71.0959C102.427 71.2985 102.317 71.5305 102.216 71.7919V76.8799H100.656V68.7519H101.552C101.723 68.7519 101.837 68.7839 101.896 68.8479C101.96 68.9065 102.005 69.0132 102.032 69.1679L102.128 70.3119ZM111.914 70.2719C111.866 70.3305 111.818 70.3785 111.77 70.4159C111.728 70.4479 111.664 70.4639 111.578 70.4639C111.493 70.4639 111.402 70.4319 111.306 70.3679C111.216 70.2985 111.098 70.2265 110.954 70.1519C110.816 70.0719 110.645 69.9999 110.442 69.9359C110.245 69.8665 110 69.8319 109.706 69.8319C109.322 69.8319 108.984 69.9012 108.69 70.0399C108.397 70.1785 108.152 70.3759 107.954 70.6319C107.762 70.8879 107.616 71.1999 107.514 71.5679C107.413 71.9359 107.362 72.3492 107.362 72.8079C107.362 73.2825 107.416 73.7065 107.522 74.0799C107.629 74.4479 107.781 74.7599 107.978 75.0159C108.176 75.2665 108.416 75.4585 108.698 75.5919C108.981 75.7199 109.296 75.7839 109.642 75.7839C109.978 75.7839 110.256 75.7439 110.474 75.6639C110.693 75.5785 110.874 75.4879 111.018 75.3919C111.162 75.2959 111.282 75.2079 111.378 75.1279C111.474 75.0425 111.573 74.9999 111.674 74.9999C111.802 74.9999 111.901 75.0479 111.97 75.1439L112.418 75.7199C112.232 75.9492 112.021 76.1439 111.786 76.3039C111.557 76.4639 111.312 76.5945 111.05 76.6959C110.789 76.7972 110.514 76.8719 110.226 76.9199C109.944 76.9679 109.656 76.9919 109.362 76.9919C108.856 76.9919 108.381 76.8985 107.938 76.7119C107.501 76.5252 107.12 76.2532 106.794 75.8959C106.474 75.5385 106.221 75.1012 106.034 74.5839C105.848 74.0612 105.754 73.4692 105.754 72.8079C105.754 72.2052 105.837 71.6479 106.002 71.1359C106.173 70.6239 106.421 70.1839 106.746 69.8159C107.077 69.4425 107.482 69.1519 107.962 68.9439C108.442 68.7305 108.992 68.6239 109.61 68.6239C110.192 68.6239 110.704 68.7172 111.146 68.9039C111.589 69.0905 111.984 69.3545 112.33 69.6959L111.914 70.2719ZM119.118 71.9119C119.118 71.6025 119.073 71.3172 118.982 71.0559C118.897 70.7945 118.769 70.5679 118.598 70.3759C118.427 70.1839 118.219 70.0345 117.974 69.9279C117.729 69.8212 117.446 69.7679 117.126 69.7679C116.47 69.7679 115.953 69.9572 115.574 70.3359C115.201 70.7145 114.963 71.2399 114.862 71.9119H119.118ZM120.406 75.7199C120.214 75.9439 119.993 76.1385 119.742 76.3039C119.491 76.4639 119.225 76.5945 118.942 76.6959C118.659 76.7972 118.366 76.8719 118.062 76.9199C117.763 76.9679 117.467 76.9919 117.174 76.9919C116.614 76.9919 116.094 76.8985 115.614 76.7119C115.139 76.5199 114.726 76.2425 114.374 75.8799C114.027 75.5119 113.755 75.0585 113.558 74.5199C113.366 73.9759 113.27 73.3519 113.27 72.6479C113.27 72.0825 113.358 71.5572 113.534 71.0719C113.71 70.5812 113.961 70.1545 114.286 69.7919C114.617 69.4292 115.019 69.1439 115.494 68.9359C115.969 68.7279 116.502 68.6239 117.094 68.6239C117.59 68.6239 118.046 68.7065 118.462 68.8719C118.883 69.0319 119.246 69.2665 119.55 69.5759C119.854 69.8852 120.091 70.2665 120.262 70.7199C120.438 71.1732 120.526 71.6905 120.526 72.2719C120.526 72.5119 120.499 72.6745 120.446 72.7599C120.393 72.8399 120.294 72.8799 120.15 72.8799H114.822C114.838 73.3652 114.907 73.7892 115.03 74.1519C115.153 74.5092 115.321 74.8079 115.534 75.0479C115.753 75.2879 116.011 75.4665 116.31 75.5839C116.609 75.7012 116.942 75.7599 117.31 75.7599C117.657 75.7599 117.955 75.7199 118.206 75.6399C118.462 75.5599 118.681 75.4745 118.862 75.3839C119.049 75.2879 119.203 75.1999 119.326 75.1199C119.454 75.0399 119.566 74.9999 119.662 74.9999C119.79 74.9999 119.889 75.0479 119.958 75.1439L120.406 75.7199Z" fill="white"/>
</svg>
