<svg width="152" height="152" viewBox="0 0 152 152" fill="none" xmlns="http://www.w3.org/2000/svg">
<ellipse cx="76.8049" cy="76.4929" rx="68.8049" ry="69.4929" fill="#EFF2F1"/>
<path fill-rule="evenodd" clip-rule="evenodd" d="M95.7942 57.963C88.6967 58.6945 80.0275 53.4483 75.2161 58.7012C70.4009 63.9584 77.1689 72.1462 76.3281 79.2158C75.2287 88.4599 65.2385 97.0608 69.6801 105.249C74.2823 113.734 86.3568 117.231 95.7942 115.104C104.428 113.157 106.337 102.191 112.276 95.6462C117.628 89.7468 126.706 86.9984 128.357 79.2158C130.246 70.3142 128.753 58.9543 121.118 53.9706C113.685 49.1195 104.631 57.0522 95.7942 57.963Z" stroke="#4059AD"/>
<path fill-rule="evenodd" clip-rule="evenodd" d="M95.1063 52.4102C86.3957 53.3166 75.7562 46.8159 69.8514 53.325C63.9418 59.8394 72.248 69.985 71.2161 78.7452C69.8668 90.1999 57.6062 100.858 63.0571 111.004C68.7054 121.518 83.524 125.851 95.1063 123.215C105.703 120.803 108.046 107.214 115.333 99.1047C121.903 91.7946 133.044 88.3889 135.07 78.7452C137.388 67.715 135.556 53.6386 126.185 47.4632C117.063 41.4519 105.952 51.2817 95.1063 52.4102Z" stroke="#97D8C4"/>
<circle cx="75.8049" cy="76.8049" r="68.8049" fill="black" fill-opacity="0.4"/>
<path d="M53.9786 80.4603C54.0746 80.4603 54.1573 80.4976 54.2266 80.5723L54.8986 81.3083C54.4293 81.863 53.8559 82.2923 53.1786 82.5963C52.5066 82.9003 51.6959 83.0523 50.7466 83.0523C49.9146 83.0523 49.1599 82.9083 48.4826 82.6203C47.8106 82.3323 47.2346 81.9296 46.7546 81.4123C46.2799 80.895 45.9119 80.2763 45.6506 79.5563C45.3893 78.8363 45.2586 78.0443 45.2586 77.1803C45.2586 76.3163 45.3946 75.5243 45.6666 74.8043C45.9439 74.0843 46.3306 73.4656 46.8266 72.9483C47.3226 72.431 47.9146 72.0283 48.6026 71.7403C49.2959 71.4523 50.0613 71.3083 50.8986 71.3083C51.7146 71.3083 52.4399 71.4416 53.0746 71.7083C53.7093 71.975 54.2613 72.3296 54.7306 72.7723L54.1706 73.5643C54.1333 73.623 54.0853 73.671 54.0266 73.7083C53.9733 73.7456 53.9013 73.7643 53.8106 73.7643C53.7093 73.7643 53.5893 73.7136 53.4506 73.6123C53.3173 73.511 53.1386 73.399 52.9146 73.2763C52.6959 73.1483 52.4239 73.0336 52.0986 72.9323C51.7733 72.831 51.3679 72.7803 50.8826 72.7803C50.3119 72.7803 49.7893 72.8816 49.3146 73.0843C48.8399 73.2816 48.4293 73.5696 48.0826 73.9483C47.7413 74.3216 47.4746 74.783 47.2826 75.3323C47.0959 75.8763 47.0026 76.4923 47.0026 77.1803C47.0026 77.879 47.1013 78.5003 47.2986 79.0443C47.4959 79.5883 47.7679 80.0496 48.1146 80.4283C48.4613 80.807 48.8693 81.095 49.3386 81.2923C49.8079 81.4896 50.3146 81.5883 50.8586 81.5883C51.1893 81.5883 51.4853 81.5696 51.7466 81.5323C52.0133 81.4896 52.2559 81.4283 52.4746 81.3483C52.6986 81.2683 52.9093 81.167 53.1066 81.0443C53.3039 80.9163 53.4986 80.7643 53.6906 80.5883C53.7333 80.551 53.7786 80.5216 53.8266 80.5003C53.8746 80.4736 53.9253 80.4603 53.9786 80.4603ZM59.5986 74.6683C60.1959 74.6683 60.7346 74.767 61.2146 74.9643C61.6999 75.1563 62.1106 75.4363 62.4466 75.8043C62.7879 76.167 63.0493 76.607 63.2306 77.1243C63.4119 77.6363 63.5026 78.2123 63.5026 78.8523C63.5026 79.4923 63.4119 80.071 63.2306 80.5883C63.0493 81.1056 62.7879 81.5456 62.4466 81.9083C62.1106 82.271 61.6999 82.551 61.2146 82.7483C60.7346 82.9403 60.1959 83.0363 59.5986 83.0363C58.9959 83.0363 58.4519 82.9403 57.9666 82.7483C57.4866 82.551 57.0759 82.271 56.7346 81.9083C56.3933 81.5456 56.1293 81.1056 55.9426 80.5883C55.7613 80.071 55.6706 79.4923 55.6706 78.8523C55.6706 78.2123 55.7613 77.6363 55.9426 77.1243C56.1293 76.607 56.3933 76.167 56.7346 75.8043C57.0759 75.4363 57.4866 75.1563 57.9666 74.9643C58.4519 74.767 58.9959 74.6683 59.5986 74.6683ZM59.5986 81.8203C60.3666 81.8203 60.9399 81.5616 61.3186 81.0443C61.6973 80.527 61.8866 79.799 61.8866 78.8603C61.8866 77.9216 61.6973 77.1936 61.3186 76.6763C60.9399 76.1536 60.3666 75.8923 59.5986 75.8923C58.8199 75.8923 58.2386 76.1536 57.8546 76.6763C57.4759 77.1936 57.2866 77.9216 57.2866 78.8603C57.2866 79.799 57.4759 80.527 57.8546 81.0443C58.2386 81.5616 58.8199 81.8203 59.5986 81.8203ZM66.708 75.9243C66.884 75.7376 67.068 75.567 67.26 75.4123C67.452 75.2576 67.6546 75.127 67.868 75.0203C68.0866 74.9083 68.3186 74.823 68.564 74.7643C68.8146 74.7003 69.0813 74.6683 69.364 74.6683C69.812 74.6683 70.204 74.743 70.54 74.8923C70.8813 75.0416 71.1666 75.2523 71.396 75.5243C71.6253 75.791 71.7986 76.1136 71.916 76.4923C72.0333 76.871 72.092 77.2896 72.092 77.7483V82.9243H70.524V77.7483C70.524 77.167 70.3906 76.7163 70.124 76.3963C69.8573 76.071 69.4493 75.9083 68.9 75.9083C68.5 75.9083 68.124 76.0043 67.772 76.1963C67.4253 76.383 67.1026 76.639 66.804 76.9643V82.9243H65.244V74.7963H66.18C66.3986 74.7963 66.5346 74.9003 66.588 75.1083L66.708 75.9243ZM79.8931 76.3163C79.8451 76.375 79.7971 76.423 79.7491 76.4603C79.7064 76.4923 79.6424 76.5083 79.5571 76.5083C79.4718 76.5083 79.3811 76.4763 79.2851 76.4123C79.1944 76.343 79.0771 76.271 78.9331 76.1963C78.7944 76.1163 78.6238 76.0443 78.4211 75.9803C78.2238 75.911 77.9784 75.8763 77.6851 75.8763C77.3011 75.8763 76.9624 75.9456 76.6691 76.0843C76.3758 76.223 76.1304 76.4203 75.9331 76.6763C75.7411 76.9323 75.5944 77.2443 75.4931 77.6123C75.3918 77.9803 75.3411 78.3936 75.3411 78.8523C75.3411 79.327 75.3944 79.751 75.5011 80.1243C75.6078 80.4923 75.7598 80.8043 75.9571 81.0603C76.1544 81.311 76.3944 81.503 76.6771 81.6363C76.9598 81.7643 77.2744 81.8283 77.6211 81.8283C77.9571 81.8283 78.2344 81.7883 78.4531 81.7083C78.6718 81.623 78.8531 81.5323 78.9971 81.4363C79.1411 81.3403 79.2611 81.2523 79.3571 81.1723C79.4531 81.087 79.5518 81.0443 79.6531 81.0443C79.7811 81.0443 79.8798 81.0923 79.9491 81.1883L80.3971 81.7643C80.2104 81.9936 79.9998 82.1883 79.7651 82.3483C79.5358 82.5083 79.2904 82.639 79.0291 82.7403C78.7678 82.8416 78.4931 82.9163 78.2051 82.9643C77.9224 83.0123 77.6344 83.0363 77.3411 83.0363C76.8344 83.0363 76.3598 82.943 75.9171 82.7563C75.4798 82.5696 75.0984 82.2976 74.7731 81.9403C74.4531 81.583 74.1998 81.1456 74.0131 80.6283C73.8264 80.1056 73.7331 79.5136 73.7331 78.8523C73.7331 78.2496 73.8158 77.6923 73.9811 77.1803C74.1518 76.6683 74.3998 76.2283 74.7251 75.8603C75.0558 75.487 75.4611 75.1963 75.9411 74.9883C76.4211 74.775 76.9704 74.6683 77.5891 74.6683C78.1704 74.6683 78.6824 74.7616 79.1251 74.9483C79.5678 75.135 79.9624 75.399 80.3091 75.7403L79.8931 76.3163ZM87.0967 77.9563C87.0967 77.647 87.0514 77.3616 86.9607 77.1003C86.8754 76.839 86.7474 76.6123 86.5767 76.4203C86.4061 76.2283 86.1981 76.079 85.9527 75.9723C85.7074 75.8656 85.4247 75.8123 85.1047 75.8123C84.4487 75.8123 83.9314 76.0016 83.5527 76.3803C83.1794 76.759 82.9421 77.2843 82.8407 77.9563H87.0967ZM88.3847 81.7643C88.1927 81.9883 87.9714 82.183 87.7207 82.3483C87.4701 82.5083 87.2034 82.639 86.9207 82.7403C86.6381 82.8416 86.3447 82.9163 86.0407 82.9643C85.7421 83.0123 85.4461 83.0363 85.1527 83.0363C84.5927 83.0363 84.0727 82.943 83.5927 82.7563C83.1181 82.5643 82.7047 82.287 82.3527 81.9243C82.0061 81.5563 81.7341 81.103 81.5367 80.5643C81.3447 80.0203 81.2487 79.3963 81.2487 78.6923C81.2487 78.127 81.3367 77.6016 81.5127 77.1163C81.6887 76.6256 81.9394 76.199 82.2647 75.8363C82.5954 75.4736 82.9981 75.1883 83.4727 74.9803C83.9474 74.7723 84.4807 74.6683 85.0727 74.6683C85.5687 74.6683 86.0247 74.751 86.4407 74.9163C86.8621 75.0763 87.2247 75.311 87.5287 75.6203C87.8327 75.9296 88.0701 76.311 88.2407 76.7643C88.4167 77.2176 88.5047 77.735 88.5047 78.3163C88.5047 78.5563 88.4781 78.719 88.4247 78.8043C88.3714 78.8843 88.2727 78.9243 88.1287 78.9243H82.8007C82.8167 79.4096 82.8861 79.8336 83.0087 80.1963C83.1314 80.5536 83.2994 80.8523 83.5127 81.0923C83.7314 81.3323 83.9901 81.511 84.2887 81.6283C84.5874 81.7456 84.9207 81.8043 85.2887 81.8043C85.6354 81.8043 85.9341 81.7643 86.1847 81.6843C86.4407 81.6043 86.6594 81.519 86.8407 81.4283C87.0274 81.3323 87.1821 81.2443 87.3047 81.1643C87.4327 81.0843 87.5447 81.0443 87.6407 81.0443C87.7687 81.0443 87.8674 81.0923 87.9367 81.1883L88.3847 81.7643ZM91.6535 76.3563C91.9148 75.823 92.2295 75.4043 92.5975 75.1003C92.9655 74.7963 93.4081 74.6443 93.9255 74.6443C94.1015 74.6443 94.2668 74.6656 94.4215 74.7083C94.5815 74.7456 94.7201 74.8043 94.8375 74.8843L94.7335 76.0603C94.6961 76.2043 94.6081 76.2763 94.4695 76.2763C94.3948 76.2763 94.2828 76.263 94.1335 76.2363C93.9841 76.2043 93.8241 76.1883 93.6535 76.1883C93.4028 76.1883 93.1815 76.2256 92.9895 76.3003C92.7975 76.3696 92.6241 76.4763 92.4695 76.6203C92.3201 76.759 92.1868 76.9323 92.0695 77.1403C91.9521 77.343 91.8428 77.575 91.7415 77.8363V82.9243H90.1815V74.7963H91.0775C91.2481 74.7963 91.3628 74.8283 91.4215 74.8923C91.4855 74.951 91.5308 75.0576 91.5575 75.2123L91.6535 76.3563ZM98.5849 83.0523C97.9289 83.0523 97.4222 82.8683 97.0649 82.5003C96.7129 82.1323 96.5369 81.607 96.5369 80.9243V76.0603H95.5929C95.5022 76.0603 95.4249 76.0336 95.3609 75.9803C95.3022 75.9216 95.2729 75.8363 95.2729 75.7243V75.0923L96.5929 74.9083L96.9449 72.4843C96.9662 72.3936 97.0062 72.3243 97.0649 72.2763C97.1289 72.223 97.2089 72.1963 97.3049 72.1963H98.0969V74.9243H100.401V76.0603H98.0969V80.8203C98.0969 81.1403 98.1742 81.3803 98.3289 81.5403C98.4889 81.695 98.6915 81.7723 98.9369 81.7723C99.0809 81.7723 99.2035 81.7536 99.3049 81.7163C99.4115 81.679 99.5022 81.639 99.5769 81.5963C99.6515 81.5483 99.7155 81.5056 99.7689 81.4683C99.8222 81.431 99.8702 81.4123 99.9129 81.4123C99.9662 81.4123 100.006 81.4256 100.033 81.4523C100.065 81.4736 100.097 81.511 100.129 81.5643L100.593 82.3163C100.337 82.551 100.033 82.7323 99.6809 82.8603C99.3289 82.9883 98.9635 83.0523 98.5849 83.0523ZM106.63 76.1963C106.587 76.2656 106.542 76.3163 106.494 76.3483C106.446 76.375 106.384 76.3883 106.31 76.3883C106.224 76.3883 106.128 76.359 106.022 76.3003C105.92 76.2416 105.795 76.1776 105.646 76.1083C105.502 76.039 105.331 75.975 105.134 75.9163C104.936 75.8576 104.702 75.8283 104.43 75.8283C104.206 75.8283 104 75.8576 103.814 75.9163C103.632 75.9696 103.478 76.047 103.35 76.1483C103.222 76.2443 103.123 76.3616 103.054 76.5003C102.984 76.6336 102.95 76.7776 102.95 76.9323C102.95 77.135 103.008 77.303 103.126 77.4363C103.248 77.5696 103.406 77.6843 103.598 77.7803C103.795 77.8763 104.016 77.9643 104.262 78.0443C104.512 78.119 104.766 78.199 105.022 78.2843C105.283 78.3696 105.536 78.4683 105.782 78.5803C106.032 78.687 106.254 78.823 106.446 78.9883C106.643 79.1483 106.8 79.343 106.918 79.5723C107.04 79.8016 107.102 80.0816 107.102 80.4123C107.102 80.791 107.032 81.143 106.894 81.4683C106.76 81.7883 106.56 82.0656 106.294 82.3003C106.032 82.535 105.707 82.719 105.318 82.8523C104.928 82.9856 104.483 83.0523 103.982 83.0523C103.422 83.0523 102.904 82.959 102.43 82.7723C101.955 82.5856 101.558 82.3483 101.238 82.0603L101.606 81.4603C101.648 81.3856 101.702 81.3296 101.766 81.2923C101.83 81.2496 101.915 81.2283 102.022 81.2283C102.123 81.2283 102.227 81.2656 102.334 81.3403C102.44 81.415 102.568 81.4976 102.718 81.5883C102.867 81.6736 103.048 81.7536 103.262 81.8283C103.475 81.8976 103.742 81.9323 104.062 81.9323C104.328 81.9323 104.56 81.9003 104.758 81.8363C104.955 81.767 105.118 81.6763 105.246 81.5643C105.379 81.447 105.478 81.3136 105.542 81.1643C105.606 81.015 105.638 80.8576 105.638 80.6923C105.638 80.479 105.576 80.303 105.454 80.1643C105.336 80.0203 105.179 79.8976 104.982 79.7963C104.79 79.695 104.568 79.607 104.318 79.5323C104.067 79.4576 103.811 79.3776 103.55 79.2923C103.288 79.207 103.032 79.1083 102.782 78.9963C102.531 78.8843 102.307 78.743 102.11 78.5723C101.918 78.4016 101.76 78.1936 101.638 77.9483C101.52 77.703 101.462 77.4043 101.462 77.0523C101.462 76.7376 101.526 76.4363 101.654 76.1483C101.787 75.8603 101.976 75.607 102.222 75.3883C102.472 75.1696 102.779 74.9963 103.142 74.8683C103.51 74.735 103.928 74.6683 104.398 74.6683C104.936 74.6683 105.422 74.7536 105.854 74.9243C106.291 75.095 106.664 75.3296 106.974 75.6283L106.63 76.1963Z" fill="white"/>
<circle cx="76" cy="76" r="73.5" stroke="#4059AD" stroke-width="5"/>
<circle cx="98.5" cy="36.5" r="13.5" fill="#4059AD"/>
<path d="M102.535 40.808V42H96.3274V40.808H98.7594V33.28C98.7594 33.04 98.7674 32.792 98.7834 32.536L96.8314 34.192C96.7567 34.2507 96.682 34.288 96.6074 34.304C96.5327 34.32 96.4607 34.3227 96.3914 34.312C96.3274 34.3013 96.2687 34.28 96.2154 34.248C96.1674 34.2107 96.1274 34.1733 96.0954 34.136L95.6074 33.456L99.0474 30.488H100.319V40.808H102.535Z" fill="white"/>
</svg>
