<svg width="138" height="139" viewBox="0 0 138 139" fill="none" xmlns="http://www.w3.org/2000/svg">
<circle cx="68.905" cy="68.905" r="68.905" fill="#EFF2F1"/>
<path fill-rule="evenodd" clip-rule="evenodd" d="M102.308 37.0489C109.996 35.9705 117.825 38.9676 124.061 43.5014C130.254 48.0048 135.623 54.4298 136.528 61.9314C137.379 68.9755 132.263 75.0621 128.611 81.188C125.736 86.0111 121.28 89.2081 117.684 93.5429C112.289 100.046 110.285 109.865 102.308 112.896C93.5057 116.241 81.2262 116.642 74.8557 109.818C68.2974 102.793 74.542 91.4559 73.46 81.9975C72.6818 75.1948 67.2206 68.8531 69.4265 62.3576C71.6288 55.8725 79.1689 53.2525 84.6561 49.0291C90.4256 44.5883 95.0432 38.068 102.308 37.0489Z" stroke="#97D8C4"/>
<path fill-rule="evenodd" clip-rule="evenodd" d="M102.404 45.3184C108.473 44.4687 114.654 46.83 119.577 50.4021C124.466 53.9502 128.705 59.0124 129.42 64.9227C130.091 70.4726 126.052 75.2681 123.169 80.0946C120.899 83.8946 117.382 86.4135 114.543 89.8288C110.284 94.9527 108.701 102.689 102.404 105.077C95.4546 107.712 85.7602 108.028 80.7309 102.652C75.5533 97.1171 80.4833 88.1845 79.6291 80.7324C79.0147 75.3727 74.7032 70.3762 76.4447 65.2585C78.1834 60.149 84.1361 58.0848 88.4681 54.7573C93.023 51.2584 96.6684 46.1212 102.404 45.3184Z" stroke="#6B9AC4"/>
<circle cx="68.905" cy="70.093" r="68.905" fill="black" fill-opacity="0.4"/>
<path d="M52.822 67.6205C52.918 67.6205 53.0006 67.6578 53.07 67.7325L53.742 68.4685C53.2726 69.0231 52.6993 69.4525 52.022 69.7565C51.35 70.0605 50.5393 70.2125 49.59 70.2125C48.758 70.2125 48.0033 70.0685 47.326 69.7805C46.654 69.4925 46.078 69.0898 45.598 68.5725C45.1233 68.0551 44.7553 67.4365 44.494 66.7165C44.2326 65.9965 44.102 65.2045 44.102 64.3405C44.102 63.4765 44.238 62.6845 44.51 61.9645C44.7873 61.2445 45.174 60.6258 45.67 60.1085C46.166 59.5911 46.758 59.1885 47.446 58.9005C48.1393 58.6125 48.9046 58.4685 49.742 58.4685C50.558 58.4685 51.2833 58.6018 51.918 58.8685C52.5526 59.1351 53.1046 59.4898 53.574 59.9325L53.014 60.7245C52.9766 60.7831 52.9286 60.8311 52.87 60.8685C52.8166 60.9058 52.7446 60.9245 52.654 60.9245C52.5526 60.9245 52.4326 60.8738 52.294 60.7725C52.1606 60.6711 51.982 60.5591 51.758 60.4365C51.5393 60.3085 51.2673 60.1938 50.942 60.0925C50.6166 59.9911 50.2113 59.9405 49.726 59.9405C49.1553 59.9405 48.6326 60.0418 48.158 60.2445C47.6833 60.4418 47.2726 60.7298 46.926 61.1085C46.5846 61.4818 46.318 61.9431 46.126 62.4925C45.9393 63.0365 45.846 63.6525 45.846 64.3405C45.846 65.0391 45.9446 65.6605 46.142 66.2045C46.3393 66.7485 46.6113 67.2098 46.958 67.5885C47.3046 67.9671 47.7126 68.2551 48.182 68.4525C48.6513 68.6498 49.158 68.7485 49.702 68.7485C50.0326 68.7485 50.3286 68.7298 50.59 68.6925C50.8566 68.6498 51.0993 68.5885 51.318 68.5085C51.542 68.4285 51.7526 68.3271 51.95 68.2045C52.1473 68.0765 52.342 67.9245 52.534 67.7485C52.5766 67.7111 52.622 67.6818 52.67 67.6605C52.718 67.6338 52.7686 67.6205 52.822 67.6205ZM56.6942 62.9885C57.0355 62.6418 57.4115 62.3618 57.8222 62.1485C58.2382 61.9351 58.7155 61.8285 59.2542 61.8285C59.7022 61.8285 60.0942 61.9031 60.4302 62.0525C60.7715 62.2018 61.0569 62.4125 61.2862 62.6845C61.5155 62.9511 61.6889 63.2738 61.8062 63.6525C61.9235 64.0311 61.9822 64.4498 61.9822 64.9085V70.0845H60.4142V64.9085C60.4142 64.3271 60.2809 63.8765 60.0142 63.5565C59.7475 63.2311 59.3395 63.0685 58.7902 63.0685C58.3902 63.0685 58.0142 63.1645 57.6622 63.3565C57.3155 63.5431 56.9929 63.7991 56.6942 64.1245V70.0845H55.1342V58.2765H56.6942V62.9885ZM68.4553 66.4765C67.8207 66.4978 67.282 66.5485 66.8393 66.6285C66.3967 66.7031 66.0367 66.8045 65.7593 66.9325C65.482 67.0605 65.282 67.2125 65.1593 67.3885C65.0367 67.5591 64.9753 67.7511 64.9753 67.9645C64.9753 68.1671 65.0073 68.3431 65.0713 68.4925C65.1407 68.6365 65.2313 68.7565 65.3433 68.8525C65.4607 68.9431 65.5967 69.0098 65.7513 69.0525C65.906 69.0951 66.074 69.1165 66.2553 69.1165C66.4953 69.1165 66.714 69.0925 66.9113 69.0445C67.114 68.9965 67.3033 68.9298 67.4793 68.8445C67.6553 68.7538 67.8233 68.6445 67.9833 68.5165C68.1433 68.3885 68.3007 68.2418 68.4553 68.0765V66.4765ZM63.8793 63.0925C64.3327 62.6605 64.8233 62.3378 65.3513 62.1245C65.8847 61.9111 66.4687 61.8045 67.1033 61.8045C67.5673 61.8045 67.978 61.8818 68.3353 62.0365C68.6927 62.1858 68.994 62.3965 69.2393 62.6685C69.4847 62.9405 69.6687 63.2658 69.7913 63.6445C69.9193 64.0231 69.9833 64.4418 69.9833 64.9005V70.0845H69.2873C69.1327 70.0845 69.0153 70.0605 68.9353 70.0125C68.8553 69.9591 68.7913 69.8631 68.7433 69.7245L68.5753 69.0125C68.3673 69.2045 68.162 69.3751 67.9593 69.5245C67.7567 69.6685 67.5433 69.7938 67.3193 69.9005C67.1007 70.0018 66.866 70.0791 66.6153 70.1325C66.3647 70.1858 66.0873 70.2125 65.7833 70.2125C65.4633 70.2125 65.162 70.1698 64.8793 70.0845C64.602 69.9938 64.3593 69.8578 64.1513 69.6765C63.9433 69.4951 63.778 69.2685 63.6553 68.9965C63.538 68.7245 63.4793 68.4071 63.4793 68.0445C63.4793 67.7245 63.5647 67.4178 63.7353 67.1245C63.9113 66.8258 64.194 66.5591 64.5833 66.3245C64.978 66.0898 65.49 65.8978 66.1193 65.7485C66.754 65.5991 67.5327 65.5138 68.4553 65.4925V64.9005C68.4553 64.2871 68.3247 63.8285 68.0633 63.5245C67.802 63.2205 67.418 63.0685 66.9113 63.0685C66.57 63.0685 66.282 63.1111 66.0473 63.1965C65.818 63.2818 65.618 63.3778 65.4473 63.4845C65.282 63.5858 65.1353 63.6791 65.0073 63.7645C64.8847 63.8498 64.7567 63.8925 64.6233 63.8925C64.5167 63.8925 64.4233 63.8631 64.3433 63.8045C64.2687 63.7458 64.2073 63.6765 64.1593 63.5965L63.8793 63.0925ZM73.5437 63.5165C73.805 62.9831 74.1197 62.5645 74.4877 62.2605C74.8557 61.9565 75.2984 61.8045 75.8157 61.8045C75.9917 61.8045 76.157 61.8258 76.3117 61.8685C76.4717 61.9058 76.6104 61.9645 76.7277 62.0445L76.6237 63.2205C76.5864 63.3645 76.4984 63.4365 76.3597 63.4365C76.285 63.4365 76.173 63.4231 76.0237 63.3965C75.8744 63.3645 75.7144 63.3485 75.5437 63.3485C75.293 63.3485 75.0717 63.3858 74.8797 63.4605C74.6877 63.5298 74.5144 63.6365 74.3597 63.7805C74.2104 63.9191 74.077 64.0925 73.9597 64.3005C73.8424 64.5031 73.733 64.7351 73.6317 64.9965V70.0845H72.0717V61.9565H72.9677C73.1384 61.9565 73.253 61.9885 73.3117 62.0525C73.3757 62.1111 73.421 62.2178 73.4477 62.3725L73.5437 63.5165ZM79.5631 61.9565V70.0845H78.0031V61.9565H79.5631ZM79.8591 59.4445C79.8591 59.5885 79.8298 59.7271 79.7711 59.8605C79.7124 59.9885 79.6324 60.1031 79.5311 60.2045C79.4351 60.3005 79.3204 60.3778 79.1871 60.4365C79.0538 60.4898 78.9151 60.5165 78.7711 60.5165C78.6271 60.5165 78.4911 60.4898 78.3631 60.4365C78.2351 60.3778 78.1204 60.3005 78.0191 60.2045C77.9231 60.1031 77.8458 59.9885 77.7871 59.8605C77.7338 59.7271 77.7071 59.5885 77.7071 59.4445C77.7071 59.2951 77.7338 59.1565 77.7871 59.0285C77.8458 58.8951 77.9231 58.7805 78.0191 58.6845C78.1204 58.5831 78.2351 58.5058 78.3631 58.4525C78.4911 58.3938 78.6271 58.3645 78.7711 58.3645C78.9151 58.3645 79.0538 58.3938 79.1871 58.4525C79.3204 58.5058 79.4351 58.5831 79.5311 58.6845C79.6324 58.7805 79.7124 58.8951 79.7711 59.0285C79.8298 59.1565 79.8591 59.2951 79.8591 59.4445ZM84.3657 70.2125C83.7097 70.2125 83.203 70.0285 82.8457 69.6605C82.4937 69.2925 82.3177 68.7671 82.3177 68.0845V63.2205H81.3737C81.283 63.2205 81.2057 63.1938 81.1417 63.1405C81.083 63.0818 81.0537 62.9965 81.0537 62.8845V62.2525L82.3737 62.0685L82.7257 59.6445C82.747 59.5538 82.787 59.4845 82.8457 59.4365C82.9097 59.3831 82.9897 59.3565 83.0857 59.3565H83.8777V62.0845H86.1817V63.2205H83.8777V67.9805C83.8777 68.3005 83.955 68.5405 84.1097 68.7005C84.2697 68.8551 84.4724 68.9325 84.7177 68.9325C84.8617 68.9325 84.9844 68.9138 85.0857 68.8765C85.1924 68.8391 85.283 68.7991 85.3577 68.7565C85.4324 68.7085 85.4964 68.6658 85.5497 68.6285C85.603 68.5911 85.651 68.5725 85.6937 68.5725C85.747 68.5725 85.787 68.5858 85.8137 68.6125C85.8457 68.6338 85.8777 68.6711 85.9097 68.7245L86.3737 69.4765C86.1177 69.7111 85.8137 69.8925 85.4617 70.0205C85.1097 70.1485 84.7444 70.2125 84.3657 70.2125ZM94.7226 61.9565L90.2106 72.4445C90.1626 72.5618 90.0986 72.6525 90.0186 72.7165C89.9386 72.7805 89.8213 72.8125 89.6666 72.8125H88.5066L89.9946 69.5725L86.6586 61.9565H88.0186C88.1519 61.9565 88.2559 61.9885 88.3306 62.0525C88.4053 62.1165 88.4586 62.1885 88.4906 62.2685L90.5546 67.1485C90.5973 67.2711 90.6373 67.3965 90.6746 67.5245C90.7173 67.6471 90.7519 67.7698 90.7786 67.8925C90.8159 67.7645 90.8559 67.6391 90.8986 67.5165C90.9413 67.3885 90.9866 67.2631 91.0346 67.1405L93.0266 62.2685C93.0639 62.1778 93.1226 62.1031 93.2026 62.0445C93.2826 61.9858 93.3733 61.9565 93.4746 61.9565H94.7226ZM40.2883 82.9245C40.0323 82.5885 39.7549 82.3538 39.4563 82.2205C39.1629 82.0871 38.8323 82.0205 38.4643 82.0205C37.7496 82.0205 37.1949 82.2791 36.8003 82.7965C36.4109 83.3085 36.2163 84.0578 36.2163 85.0445C36.2163 85.5618 36.2589 86.0045 36.3443 86.3725C36.4349 86.7351 36.5629 87.0338 36.7283 87.2685C36.8989 87.4978 37.1069 87.6685 37.3523 87.7805C37.5976 87.8871 37.8749 87.9405 38.1843 87.9405C38.6376 87.9405 39.0296 87.8391 39.3603 87.6365C39.6909 87.4338 40.0003 87.1485 40.2883 86.7805V82.9245ZM41.8563 77.2765V89.0845H40.9123C40.6936 89.0845 40.5576 88.9805 40.5043 88.7725L40.3683 87.8365C40.0216 88.2471 39.6269 88.5778 39.1843 88.8285C38.7469 89.0738 38.2403 89.1965 37.6643 89.1965C37.2003 89.1965 36.7789 89.1058 36.4003 88.9245C36.0269 88.7431 35.7069 88.4791 35.4403 88.1325C35.1736 87.7805 34.9683 87.3458 34.8243 86.8285C34.6803 86.3111 34.6083 85.7165 34.6083 85.0445C34.6083 84.4418 34.6883 83.8818 34.8483 83.3645C35.0083 82.8471 35.2403 82.3991 35.5443 82.0205C35.8483 81.6418 36.2163 81.3458 36.6483 81.1325C37.0803 80.9138 37.5683 80.8045 38.1123 80.8045C38.6029 80.8045 39.0189 80.8845 39.3603 81.0445C39.7069 81.2045 40.0163 81.4311 40.2883 81.7245V77.2765H41.8563ZM47.4966 80.8285C48.094 80.8285 48.6326 80.9271 49.1126 81.1245C49.598 81.3165 50.0086 81.5965 50.3446 81.9645C50.686 82.3271 50.9473 82.7671 51.1286 83.2845C51.31 83.7965 51.4007 84.3725 51.4007 85.0125C51.4007 85.6525 51.31 86.2311 51.1286 86.7485C50.9473 87.2658 50.686 87.7058 50.3446 88.0685C50.0086 88.4311 49.598 88.7111 49.1126 88.9085C48.6326 89.1005 48.094 89.1965 47.4966 89.1965C46.894 89.1965 46.35 89.1005 45.8646 88.9085C45.3846 88.7111 44.974 88.4311 44.6326 88.0685C44.2913 87.7058 44.0273 87.2658 43.8406 86.7485C43.6593 86.2311 43.5686 85.6525 43.5686 85.0125C43.5686 84.3725 43.6593 83.7965 43.8406 83.2845C44.0273 82.7671 44.2913 82.3271 44.6326 81.9645C44.974 81.5965 45.3846 81.3165 45.8646 81.1245C46.35 80.9271 46.894 80.8285 47.4966 80.8285ZM47.4966 87.9805C48.2646 87.9805 48.838 87.7218 49.2166 87.2045C49.5953 86.6871 49.7846 85.9591 49.7846 85.0205C49.7846 84.0818 49.5953 83.3538 49.2166 82.8365C48.838 82.3138 48.2646 82.0525 47.4966 82.0525C46.718 82.0525 46.1366 82.3138 45.7526 82.8365C45.374 83.3538 45.1846 84.0818 45.1846 85.0205C45.1846 85.9591 45.374 86.6871 45.7526 87.2045C46.1366 87.7218 46.718 87.9805 47.4966 87.9805ZM54.606 82.0845C54.782 81.8978 54.966 81.7271 55.158 81.5725C55.35 81.4178 55.5527 81.2871 55.766 81.1805C55.9847 81.0685 56.2167 80.9831 56.462 80.9245C56.7127 80.8605 56.9794 80.8285 57.262 80.8285C57.71 80.8285 58.102 80.9031 58.438 81.0525C58.7794 81.2018 59.0647 81.4125 59.294 81.6845C59.5234 81.9511 59.6967 82.2738 59.814 82.6525C59.9314 83.0311 59.99 83.4498 59.99 83.9085V89.0845H58.422V83.9085C58.422 83.3271 58.2887 82.8765 58.022 82.5565C57.7554 82.2311 57.3474 82.0685 56.798 82.0685C56.398 82.0685 56.022 82.1645 55.67 82.3565C55.3234 82.5431 55.0007 82.7991 54.702 83.1245V89.0845H53.142V80.9565H54.078C54.2967 80.9565 54.4327 81.0605 54.486 81.2685L54.606 82.0845ZM66.4631 85.4765C65.8285 85.4978 65.2898 85.5485 64.8471 85.6285C64.4045 85.7031 64.0445 85.8045 63.7671 85.9325C63.4898 86.0605 63.2898 86.2125 63.1671 86.3885C63.0445 86.5591 62.9831 86.7511 62.9831 86.9645C62.9831 87.1671 63.0151 87.3431 63.0791 87.4925C63.1485 87.6365 63.2391 87.7565 63.3511 87.8525C63.4685 87.9431 63.6045 88.0098 63.7591 88.0525C63.9138 88.0951 64.0818 88.1165 64.2631 88.1165C64.5031 88.1165 64.7218 88.0925 64.9191 88.0445C65.1218 87.9965 65.3111 87.9298 65.4871 87.8445C65.6631 87.7538 65.8311 87.6445 65.9911 87.5165C66.1511 87.3885 66.3085 87.2418 66.4631 87.0765V85.4765ZM61.8871 82.0925C62.3405 81.6605 62.8311 81.3378 63.3591 81.1245C63.8925 80.9111 64.4765 80.8045 65.1111 80.8045C65.5751 80.8045 65.9858 80.8818 66.3431 81.0365C66.7005 81.1858 67.0018 81.3965 67.2471 81.6685C67.4925 81.9405 67.6765 82.2658 67.7991 82.6445C67.9271 83.0231 67.9911 83.4418 67.9911 83.9005V89.0845H67.2951C67.1405 89.0845 67.0231 89.0605 66.9431 89.0125C66.8631 88.9591 66.7991 88.8631 66.7511 88.7245L66.5831 88.0125C66.3751 88.2045 66.1698 88.3751 65.9671 88.5245C65.7645 88.6685 65.5511 88.7938 65.3271 88.9005C65.1085 89.0018 64.8738 89.0791 64.6231 89.1325C64.3725 89.1858 64.0951 89.2125 63.7911 89.2125C63.4711 89.2125 63.1698 89.1698 62.8871 89.0845C62.6098 88.9938 62.3671 88.8578 62.1591 88.6765C61.9511 88.4951 61.7858 88.2685 61.6631 87.9965C61.5458 87.7245 61.4871 87.4071 61.4871 87.0445C61.4871 86.7245 61.5725 86.4178 61.7431 86.1245C61.9191 85.8258 62.2018 85.5591 62.5911 85.3245C62.9858 85.0898 63.4978 84.8978 64.1271 84.7485C64.7618 84.5991 65.5405 84.5138 66.4631 84.4925V83.9005C66.4631 83.2871 66.3325 82.8285 66.0711 82.5245C65.8098 82.2205 65.4258 82.0685 64.9191 82.0685C64.5778 82.0685 64.2898 82.1111 64.0551 82.1965C63.8258 82.2818 63.6258 82.3778 63.4551 82.4845C63.2898 82.5858 63.1431 82.6791 63.0151 82.7645C62.8925 82.8498 62.7645 82.8925 62.6311 82.8925C62.5245 82.8925 62.4311 82.8631 62.3511 82.8045C62.2765 82.7458 62.2151 82.6765 62.1671 82.5965L61.8871 82.0925ZM77.6741 89.0845H76.1061V82.2205H72.0261V86.9805C72.0261 87.3005 72.1035 87.5405 72.2581 87.7005C72.4181 87.8551 72.6208 87.9325 72.8661 87.9325C73.0101 87.9325 73.1328 87.9138 73.2341 87.8765C73.3408 87.8391 73.4315 87.7991 73.5061 87.7565C73.5808 87.7085 73.6448 87.6658 73.6981 87.6285C73.7515 87.5911 73.7995 87.5725 73.8421 87.5725C73.8955 87.5725 73.9355 87.5858 73.9621 87.6125C73.9941 87.6338 74.0261 87.6711 74.0581 87.7245L74.5221 88.4765C74.2661 88.7111 73.9621 88.8925 73.6101 89.0205C73.2581 89.1485 72.8928 89.2125 72.5141 89.2125C71.8581 89.2125 71.3515 89.0285 70.9941 88.6605C70.6421 88.2925 70.4661 87.7671 70.4661 87.0845V82.2205H69.5221C69.4315 82.2205 69.3541 82.1938 69.2901 82.1405C69.2315 82.0818 69.2021 81.9965 69.2021 81.8845V81.2525L70.5301 81.0685L70.8741 78.6445C70.8955 78.5538 70.9355 78.4845 70.9941 78.4365C71.0581 78.3831 71.1381 78.3565 71.2341 78.3565H72.0261V81.0845H77.6741V89.0845ZM78.0261 78.3965C78.0261 78.5405 77.9968 78.6791 77.9381 78.8125C77.8795 78.9405 77.7995 79.0551 77.6981 79.1565C77.6021 79.2525 77.4875 79.3298 77.3541 79.3885C77.2208 79.4418 77.0821 79.4685 76.9381 79.4685C76.7941 79.4685 76.6581 79.4418 76.5301 79.3885C76.4021 79.3298 76.2875 79.2525 76.1861 79.1565C76.0901 79.0551 76.0128 78.9405 75.9541 78.8125C75.9008 78.6791 75.8741 78.5405 75.8741 78.3965C75.8741 78.2471 75.9008 78.1058 75.9541 77.9725C76.0128 77.8391 76.0901 77.7245 76.1861 77.6285C76.2875 77.5271 76.4021 77.4498 76.5301 77.3965C76.6581 77.3378 76.7941 77.3085 76.9381 77.3085C77.0821 77.3085 77.2208 77.3378 77.3541 77.3965C77.4875 77.4498 77.6021 77.5271 77.6981 77.6285C77.7995 77.7245 77.8795 77.8391 77.9381 77.9725C77.9968 78.1058 78.0261 78.2471 78.0261 78.3965ZM83.4029 80.8285C84.0002 80.8285 84.5389 80.9271 85.0189 81.1245C85.5042 81.3165 85.9149 81.5965 86.2509 81.9645C86.5922 82.3271 86.8536 82.7671 87.0349 83.2845C87.2162 83.7965 87.3069 84.3725 87.3069 85.0125C87.3069 85.6525 87.2162 86.2311 87.0349 86.7485C86.8536 87.2658 86.5922 87.7058 86.2509 88.0685C85.9149 88.4311 85.5042 88.7111 85.0189 88.9085C84.5389 89.1005 84.0002 89.1965 83.4029 89.1965C82.8002 89.1965 82.2562 89.1005 81.7709 88.9085C81.2909 88.7111 80.8802 88.4311 80.5389 88.0685C80.1976 87.7058 79.9336 87.2658 79.7469 86.7485C79.5656 86.2311 79.4749 85.6525 79.4749 85.0125C79.4749 84.3725 79.5656 83.7965 79.7469 83.2845C79.9336 82.7671 80.1976 82.3271 80.5389 81.9645C80.8802 81.5965 81.2909 81.3165 81.7709 81.1245C82.2562 80.9271 82.8002 80.8285 83.4029 80.8285ZM83.4029 87.9805C84.1709 87.9805 84.7442 87.7218 85.1229 87.2045C85.5016 86.6871 85.6909 85.9591 85.6909 85.0205C85.6909 84.0818 85.5016 83.3538 85.1229 82.8365C84.7442 82.3138 84.1709 82.0525 83.4029 82.0525C82.6242 82.0525 82.0429 82.3138 81.6589 82.8365C81.2802 83.3538 81.0909 84.0818 81.0909 85.0205C81.0909 85.9591 81.2802 86.6871 81.6589 87.2045C82.0429 87.7218 82.6242 87.9805 83.4029 87.9805ZM90.5123 82.0845C90.6883 81.8978 90.8723 81.7271 91.0643 81.5725C91.2563 81.4178 91.4589 81.2871 91.6723 81.1805C91.8909 81.0685 92.1229 80.9831 92.3683 80.9245C92.6189 80.8605 92.8856 80.8285 93.1683 80.8285C93.6163 80.8285 94.0083 80.9031 94.3443 81.0525C94.6856 81.2018 94.9709 81.4125 95.2003 81.6845C95.4296 81.9511 95.6029 82.2738 95.7203 82.6525C95.8376 83.0311 95.8963 83.4498 95.8963 83.9085V89.0845H94.3283V83.9085C94.3283 83.3271 94.1949 82.8765 93.9283 82.5565C93.6616 82.2311 93.2536 82.0685 92.7043 82.0685C92.3043 82.0685 91.9283 82.1645 91.5763 82.3565C91.2296 82.5431 90.9069 82.7991 90.6083 83.1245V89.0845H89.0483V80.9565H89.9843C90.2029 80.9565 90.3389 81.0605 90.3923 81.2685L90.5123 82.0845ZM102.793 82.3565C102.751 82.4258 102.705 82.4765 102.657 82.5085C102.609 82.5351 102.548 82.5485 102.473 82.5485C102.388 82.5485 102.292 82.5191 102.185 82.4605C102.084 82.4018 101.959 82.3378 101.809 82.2685C101.665 82.1991 101.495 82.1351 101.297 82.0765C101.1 82.0178 100.865 81.9885 100.593 81.9885C100.369 81.9885 100.164 82.0178 99.9774 82.0765C99.7961 82.1298 99.6414 82.2071 99.5134 82.3085C99.3854 82.4045 99.2867 82.5218 99.2174 82.6605C99.1481 82.7938 99.1134 82.9378 99.1134 83.0925C99.1134 83.2951 99.1721 83.4631 99.2894 83.5965C99.4121 83.7298 99.5694 83.8445 99.7614 83.9405C99.9587 84.0365 100.18 84.1245 100.425 84.2045C100.676 84.2791 100.929 84.3591 101.185 84.4445C101.447 84.5298 101.7 84.6285 101.945 84.7405C102.196 84.8471 102.417 84.9831 102.609 85.1485C102.807 85.3085 102.964 85.5031 103.081 85.7325C103.204 85.9618 103.265 86.2418 103.265 86.5725C103.265 86.9511 103.196 87.3031 103.057 87.6285C102.924 87.9485 102.724 88.2258 102.457 88.4605C102.196 88.6951 101.871 88.8791 101.481 89.0125C101.092 89.1458 100.647 89.2125 100.145 89.2125C99.5854 89.2125 99.0681 89.1191 98.5934 88.9325C98.1187 88.7458 97.7214 88.5085 97.4014 88.2205L97.7694 87.6205C97.8121 87.5458 97.8654 87.4898 97.9294 87.4525C97.9934 87.4098 98.0787 87.3885 98.1854 87.3885C98.2867 87.3885 98.3907 87.4258 98.4974 87.5005C98.6041 87.5751 98.7321 87.6578 98.8814 87.7485C99.0307 87.8338 99.2121 87.9138 99.4254 87.9885C99.6387 88.0578 99.9054 88.0925 100.225 88.0925C100.492 88.0925 100.724 88.0605 100.921 87.9965C101.119 87.9271 101.281 87.8365 101.409 87.7245C101.543 87.6071 101.641 87.4738 101.705 87.3245C101.769 87.1751 101.801 87.0178 101.801 86.8525C101.801 86.6391 101.74 86.4631 101.617 86.3245C101.5 86.1805 101.343 86.0578 101.145 85.9565C100.953 85.8551 100.732 85.7671 100.481 85.6925C100.231 85.6178 99.9747 85.5378 99.7134 85.4525C99.4521 85.3671 99.1961 85.2685 98.9454 85.1565C98.6947 85.0445 98.4707 84.9031 98.2734 84.7325C98.0814 84.5618 97.9241 84.3538 97.8014 84.1085C97.6841 83.8631 97.6254 83.5645 97.6254 83.2125C97.6254 82.8978 97.6894 82.5965 97.8174 82.3085C97.9507 82.0205 98.1401 81.7671 98.3854 81.5485C98.6361 81.3298 98.9427 81.1565 99.3054 81.0285C99.6734 80.8951 100.092 80.8285 100.561 80.8285C101.1 80.8285 101.585 80.9138 102.017 81.0845C102.455 81.2551 102.828 81.4898 103.137 81.7885L102.793 82.3565Z" fill="white"/>
</svg>
