<svg width="42" height="42" viewBox="0 0 42 42" fill="none" xmlns="http://www.w3.org/2000/svg">
<circle cx="21" cy="21" r="20.5" fill="white" stroke="#EFF2F1"/>
<path d="M34 20.5C34 13.0442 27.9558 7 20.5 7C13.0442 7 7 13.0441 7 20.5C7 27.2382 11.9368 32.8233 18.3906 33.836V24.4023H14.9629V20.5H18.3906V17.5258C18.3906 14.1423 20.4061 12.2734 23.4897 12.2734C24.9668 12.2734 26.5117 12.5371 26.5117 12.5371V15.8594H24.8095C23.1323 15.8594 22.6094 16.9 22.6094 17.9677V20.5H26.3535L25.755 24.4023H22.6094V33.836C29.0632 32.8233 34 27.2383 34 20.5Z" fill="#1877F2"/>
<path d="M25.755 24.4023L26.3535 20.5H22.6094V17.9677C22.6094 16.8999 23.1324 15.8594 24.8095 15.8594H26.5117V12.5371C26.5117 12.5371 24.9668 12.2734 23.4897 12.2734C20.4061 12.2734 18.3906 14.1423 18.3906 17.5258V20.5H14.9629V24.4023H18.3906V33.836C19.0884 33.9454 19.7937 34.0002 20.5 34C21.2063 34.0002 21.9116 33.9454 22.6094 33.836V24.4023H25.755Z" fill="white"/>
</svg>
