<svg width="42" height="42" viewBox="0 0 42 42" fill="none" xmlns="http://www.w3.org/2000/svg">
<circle cx="21" cy="21" r="20.5" fill="white" stroke="#EFF2F1"/>
<path d="M31.5312 18.2967H30.625V18.25H20.5V22.75H26.8579C25.9304 25.3696 23.4379 27.25 20.5 27.25C16.7723 27.25 13.75 24.2277 13.75 20.5C13.75 16.7723 16.7723 13.75 20.5 13.75C22.2207 13.75 23.7861 14.3991 24.9781 15.4594L28.1601 12.2774C26.1509 10.4048 23.4633 9.25 20.5 9.25C14.2872 9.25 9.25 14.2872 9.25 20.5C9.25 26.7128 14.2872 31.75 20.5 31.75C26.7128 31.75 31.75 26.7128 31.75 20.5C31.75 19.7457 31.6724 19.0094 31.5312 18.2967Z" fill="#FFC107"/>
<path d="M10.5469 15.2637L14.2431 17.9744C15.2432 15.4983 17.6653 13.75 20.4997 13.75C22.2204 13.75 23.7859 14.3991 24.9778 15.4594L28.1599 12.2774C26.1506 10.4048 23.463 9.25 20.4997 9.25C16.1786 9.25 12.4312 11.6896 10.5469 15.2637Z" fill="#FF3D00"/>
<path d="M20.4997 31.7499C23.4056 31.7499 26.0459 30.6378 28.0423 28.8294L24.5604 25.883C23.3929 26.7709 21.9664 27.2511 20.4997 27.2499C17.5736 27.2499 15.089 25.3841 14.153 22.7803L10.4844 25.6068C12.3463 29.2501 16.1274 31.7499 20.4997 31.7499Z" fill="#4CAF50"/>
<path d="M31.5312 18.2967H30.625V18.25H20.5V22.75H26.8579C26.4142 23.9967 25.615 25.0862 24.559 25.8837L24.5607 25.8826L28.0426 28.8289C27.7962 29.0528 31.75 26.125 31.75 20.5C31.75 19.7457 31.6724 19.0094 31.5312 18.2967Z" fill="#1976D2"/>
</svg>
