<svg width="138" height="139" viewBox="0 0 138 139" fill="none" xmlns="http://www.w3.org/2000/svg">
<ellipse cx="68.8049" cy="69.4999" rx="68.8049" ry="69.4999" fill="#97D8C4"/>
<path fill-rule="evenodd" clip-rule="evenodd" d="M59.0162 36.7365C68.3932 37.9412 75.6463 43.9161 82.785 50.0998C90.7519 57.0009 101.38 63.2942 101.816 73.8108C102.259 84.4844 92.4952 92.1018 84.8375 99.5695C77.308 106.912 69.5181 116.309 59.0162 115.549C48.768 114.807 42.0904 104.804 36.6882 96.0846C32.5697 89.4375 34.389 81.5278 33.1559 73.8108C31.4545 63.1637 22.0467 51.9391 28.2198 43.0892C34.444 34.1659 48.2081 35.3478 59.0162 36.7365Z" stroke="#4059AD"/>
<path fill-rule="evenodd" clip-rule="evenodd" d="M71.401 36.7365C80.778 37.9412 88.031 43.9161 95.1698 50.0998C103.137 57.0009 113.765 63.2942 114.201 73.8108C114.644 84.4844 104.88 92.1018 97.2223 99.5695C89.6928 106.912 81.9029 116.309 71.401 115.549C61.1528 114.807 54.4752 104.804 49.0729 96.0846C44.9545 89.4375 46.7738 81.5278 45.5407 73.8108C43.8393 63.1637 34.4315 51.9391 40.6045 43.0892C46.8287 34.1659 60.5928 35.3478 71.401 36.7365Z" stroke="#6B9AC4"/>
<ellipse cx="68.8049" cy="69.4929" rx="68.8049" ry="69.4929" fill="black" fill-opacity="0.4"/>
<path d="M45.6127 64.4363V75.9243H44.1247V67.7483C44.1247 67.6256 44.1274 67.495 44.1327 67.3563C44.1434 67.2176 44.1541 67.0763 44.1647 66.9323L40.3407 73.9483C40.2074 74.2096 40.0021 74.3403 39.7247 74.3403H39.4847C39.2074 74.3403 39.0047 74.2096 38.8767 73.9483L34.9807 66.9083C35.0127 67.207 35.0287 67.487 35.0287 67.7483V75.9243H33.5327V64.4363H34.7967C34.9461 64.4363 35.0607 64.4523 35.1407 64.4843C35.2261 64.511 35.3061 64.591 35.3807 64.7243L39.2207 71.6043C39.2954 71.743 39.3647 71.8896 39.4287 72.0443C39.4927 72.199 39.5541 72.3536 39.6127 72.5083C39.7247 72.1936 39.8554 71.8896 40.0047 71.5963L43.7727 64.7243C43.8421 64.591 43.9167 64.511 43.9967 64.4843C44.0821 64.4523 44.1994 64.4363 44.3487 64.4363H45.6127ZM52.2682 72.3163C51.6336 72.3376 51.0949 72.3883 50.6522 72.4683C50.2096 72.543 49.8496 72.6443 49.5722 72.7723C49.2949 72.9003 49.0949 73.0523 48.9722 73.2283C48.8496 73.399 48.7882 73.591 48.7882 73.8043C48.7882 74.007 48.8202 74.183 48.8842 74.3323C48.9536 74.4763 49.0442 74.5963 49.1562 74.6923C49.2736 74.783 49.4096 74.8496 49.5642 74.8923C49.7189 74.935 49.8869 74.9563 50.0682 74.9563C50.3082 74.9563 50.5269 74.9323 50.7242 74.8843C50.9269 74.8363 51.1162 74.7696 51.2922 74.6843C51.4682 74.5936 51.6362 74.4843 51.7962 74.3563C51.9562 74.2283 52.1136 74.0816 52.2682 73.9163V72.3163ZM47.6922 68.9323C48.1456 68.5003 48.6362 68.1776 49.1642 67.9643C49.6976 67.751 50.2816 67.6443 50.9162 67.6443C51.3802 67.6443 51.7909 67.7216 52.1482 67.8763C52.5056 68.0256 52.8069 68.2363 53.0522 68.5083C53.2976 68.7803 53.4816 69.1056 53.6042 69.4843C53.7322 69.863 53.7962 70.2816 53.7962 70.7403V75.9243H53.1002C52.9456 75.9243 52.8282 75.9003 52.7482 75.8523C52.6682 75.799 52.6042 75.703 52.5562 75.5643L52.3882 74.8523C52.1802 75.0443 51.9749 75.215 51.7722 75.3643C51.5696 75.5083 51.3562 75.6336 51.1322 75.7403C50.9136 75.8416 50.6789 75.919 50.4282 75.9723C50.1776 76.0256 49.9002 76.0523 49.5962 76.0523C49.2762 76.0523 48.9749 76.0096 48.6922 75.9243C48.4149 75.8336 48.1722 75.6976 47.9642 75.5163C47.7562 75.335 47.5909 75.1083 47.4682 74.8363C47.3509 74.5643 47.2922 74.247 47.2922 73.8843C47.2922 73.5643 47.3776 73.2576 47.5482 72.9643C47.7242 72.6656 48.0069 72.399 48.3962 72.1643C48.7909 71.9296 49.3029 71.7376 49.9322 71.5883C50.5669 71.439 51.3456 71.3536 52.2682 71.3323V70.7403C52.2682 70.127 52.1376 69.6683 51.8762 69.3643C51.6149 69.0603 51.2309 68.9083 50.7242 68.9083C50.3829 68.9083 50.0949 68.951 49.8602 69.0363C49.6309 69.1216 49.4309 69.2176 49.2602 69.3243C49.0949 69.4256 48.9482 69.519 48.8202 69.6043C48.6976 69.6896 48.5696 69.7323 48.4362 69.7323C48.3296 69.7323 48.2362 69.703 48.1562 69.6443C48.0816 69.5856 48.0202 69.5163 47.9722 69.4363L47.6922 68.9323ZM57.3566 69.3563C57.6179 68.823 57.9326 68.4043 58.3006 68.1003C58.6686 67.7963 59.1113 67.6443 59.6286 67.6443C59.8046 67.6443 59.9699 67.6656 60.1246 67.7083C60.2846 67.7456 60.4233 67.8043 60.5406 67.8843L60.4366 69.0603C60.3993 69.2043 60.3113 69.2763 60.1726 69.2763C60.0979 69.2763 59.9859 69.263 59.8366 69.2363C59.6873 69.2043 59.5273 69.1883 59.3566 69.1883C59.1059 69.1883 58.8846 69.2256 58.6926 69.3003C58.5006 69.3696 58.3273 69.4763 58.1726 69.6203C58.0233 69.759 57.8899 69.9323 57.7726 70.1403C57.6553 70.343 57.5459 70.575 57.4446 70.8363V75.9243H55.8846V67.7963H56.7806C56.9513 67.7963 57.0659 67.8283 57.1246 67.8923C57.1886 67.951 57.2339 68.0576 57.2606 68.2123L57.3566 69.3563ZM63.304 64.1163V71.0203H63.672C63.784 71.0203 63.8773 71.0043 63.952 70.9723C64.0266 70.9403 64.104 70.8763 64.184 70.7803L66.616 68.1003C66.6906 67.999 66.7733 67.9243 66.864 67.8763C66.9546 67.823 67.0693 67.7963 67.208 67.7963H68.632L65.76 70.9403C65.6053 71.1376 65.44 71.2896 65.264 71.3963C65.3653 71.4656 65.4533 71.5456 65.528 71.6363C65.608 71.727 65.6853 71.8256 65.76 71.9323L68.816 75.9243H67.416C67.288 75.9243 67.176 75.903 67.08 75.8603C66.9893 75.8176 66.9066 75.7403 66.832 75.6283L64.32 72.3643C64.24 72.2416 64.16 72.1643 64.08 72.1323C64 72.095 63.88 72.0763 63.72 72.0763H63.304V75.9243H61.744V64.1163H63.304ZM74.9092 70.9563C74.9092 70.647 74.8639 70.3616 74.7732 70.1003C74.6879 69.839 74.5599 69.6123 74.3892 69.4203C74.2186 69.2283 74.0106 69.079 73.7652 68.9723C73.5199 68.8656 73.2372 68.8123 72.9172 68.8123C72.2612 68.8123 71.7439 69.0016 71.3652 69.3803C70.9919 69.759 70.7546 70.2843 70.6532 70.9563H74.9092ZM76.1972 74.7643C76.0052 74.9883 75.7839 75.183 75.5332 75.3483C75.2826 75.5083 75.0159 75.639 74.7332 75.7403C74.4506 75.8416 74.1572 75.9163 73.8532 75.9643C73.5546 76.0123 73.2586 76.0363 72.9652 76.0363C72.4052 76.0363 71.8852 75.943 71.4052 75.7563C70.9306 75.5643 70.5172 75.287 70.1652 74.9243C69.8186 74.5563 69.5466 74.103 69.3492 73.5643C69.1572 73.0203 69.0612 72.3963 69.0612 71.6923C69.0612 71.127 69.1492 70.6016 69.3252 70.1163C69.5012 69.6256 69.7519 69.199 70.0772 68.8363C70.4079 68.4736 70.8106 68.1883 71.2852 67.9803C71.7599 67.7723 72.2932 67.6683 72.8852 67.6683C73.3812 67.6683 73.8372 67.751 74.2532 67.9163C74.6746 68.0763 75.0372 68.311 75.3412 68.6203C75.6452 68.9296 75.8826 69.311 76.0532 69.7643C76.2292 70.2176 76.3172 70.735 76.3172 71.3163C76.3172 71.5563 76.2906 71.719 76.2372 71.8043C76.1839 71.8843 76.0852 71.9243 75.9412 71.9243H70.6132C70.6292 72.4096 70.6986 72.8336 70.8212 73.1963C70.9439 73.5536 71.1119 73.8523 71.3252 74.0923C71.5439 74.3323 71.8026 74.511 72.1012 74.6283C72.3999 74.7456 72.7332 74.8043 73.1012 74.8043C73.4479 74.8043 73.7466 74.7643 73.9972 74.6843C74.2532 74.6043 74.4719 74.519 74.6532 74.4283C74.8399 74.3323 74.9946 74.2443 75.1172 74.1643C75.2452 74.0843 75.3572 74.0443 75.4532 74.0443C75.5812 74.0443 75.6799 74.0923 75.7492 74.1883L76.1972 74.7643ZM85.6355 75.9243H84.0675V69.0603H79.9875V73.8203C79.9875 74.1403 80.0648 74.3803 80.2195 74.5403C80.3795 74.695 80.5821 74.7723 80.8275 74.7723C80.9715 74.7723 81.0941 74.7536 81.1955 74.7163C81.3021 74.679 81.3928 74.639 81.4675 74.5963C81.5421 74.5483 81.6061 74.5056 81.6595 74.4683C81.7128 74.431 81.7608 74.4123 81.8035 74.4123C81.8568 74.4123 81.8968 74.4256 81.9235 74.4523C81.9555 74.4736 81.9875 74.511 82.0195 74.5643L82.4835 75.3163C82.2275 75.551 81.9235 75.7323 81.5715 75.8603C81.2195 75.9883 80.8541 76.0523 80.4755 76.0523C79.8195 76.0523 79.3128 75.8683 78.9555 75.5003C78.6035 75.1323 78.4275 74.607 78.4275 73.9243V69.0603H77.4835C77.3928 69.0603 77.3155 69.0336 77.2515 68.9803C77.1928 68.9216 77.1635 68.8363 77.1635 68.7243V68.0923L78.4915 67.9083L78.8355 65.4843C78.8568 65.3936 78.8968 65.3243 78.9555 65.2763C79.0195 65.223 79.0995 65.1963 79.1955 65.1963H79.9875V67.9243H85.6355V75.9243ZM85.9875 65.2363C85.9875 65.3803 85.9581 65.519 85.8995 65.6523C85.8408 65.7803 85.7608 65.895 85.6595 65.9963C85.5635 66.0923 85.4488 66.1696 85.3155 66.2283C85.1821 66.2816 85.0435 66.3083 84.8995 66.3083C84.7555 66.3083 84.6195 66.2816 84.4915 66.2283C84.3635 66.1696 84.2488 66.0923 84.1475 65.9963C84.0515 65.895 83.9741 65.7803 83.9155 65.6523C83.8621 65.519 83.8355 65.3803 83.8355 65.2363C83.8355 65.087 83.8621 64.9456 83.9155 64.8123C83.9741 64.679 84.0515 64.5643 84.1475 64.4683C84.2488 64.367 84.3635 64.2896 84.4915 64.2363C84.6195 64.1776 84.7555 64.1483 84.8995 64.1483C85.0435 64.1483 85.1821 64.1776 85.3155 64.2363C85.4488 64.2896 85.5635 64.367 85.6595 64.4683C85.7608 64.5643 85.8408 64.679 85.8995 64.8123C85.9581 64.9456 85.9875 65.087 85.9875 65.2363ZM89.3642 68.9243C89.5402 68.7376 89.7242 68.567 89.9162 68.4123C90.1082 68.2576 90.3109 68.127 90.5242 68.0203C90.7429 67.9083 90.9749 67.823 91.2202 67.7643C91.4709 67.7003 91.7376 67.6683 92.0202 67.6683C92.4682 67.6683 92.8602 67.743 93.1962 67.8923C93.5376 68.0416 93.8229 68.2523 94.0522 68.5243C94.2816 68.791 94.4549 69.1136 94.5722 69.4923C94.6896 69.871 94.7482 70.2896 94.7482 70.7483V75.9243H93.1802V70.7483C93.1802 70.167 93.0469 69.7163 92.7802 69.3963C92.5136 69.071 92.1056 68.9083 91.5562 68.9083C91.1562 68.9083 90.7802 69.0043 90.4282 69.1963C90.0816 69.383 89.7589 69.639 89.4602 69.9643V75.9243H87.9002V67.7963H88.8362C89.0549 67.7963 89.1909 67.9003 89.2442 68.1083L89.3642 68.9243ZM99.7094 71.8683C99.9867 71.8683 100.229 71.831 100.437 71.7563C100.651 71.6816 100.827 71.5776 100.965 71.4443C101.109 71.3056 101.216 71.1403 101.285 70.9483C101.36 70.7563 101.397 70.5456 101.397 70.3163C101.397 69.847 101.253 69.4736 100.965 69.1963C100.683 68.9136 100.264 68.7723 99.7094 68.7723C99.16 68.7723 98.7414 68.9136 98.4534 69.1963C98.1707 69.4736 98.0294 69.847 98.0294 70.3163C98.0294 70.5456 98.064 70.7563 98.1334 70.9483C98.208 71.135 98.3147 71.2976 98.4534 71.4363C98.5974 71.5696 98.7734 71.6763 98.9814 71.7563C99.1947 71.831 99.4374 71.8683 99.7094 71.8683ZM102.197 76.3483C102.197 76.1563 102.144 76.0043 102.037 75.8923C101.931 75.775 101.784 75.6843 101.597 75.6203C101.416 75.551 101.203 75.503 100.957 75.4763C100.712 75.4443 100.453 75.4203 100.181 75.4043C99.9147 75.3883 99.64 75.375 99.3574 75.3643C99.0747 75.3483 98.8027 75.3216 98.5414 75.2843C98.264 75.423 98.0347 75.591 97.8534 75.7883C97.6774 75.9856 97.5894 76.2176 97.5894 76.4843C97.5894 76.655 97.632 76.815 97.7174 76.9643C97.808 77.1136 97.944 77.2416 98.1254 77.3483C98.312 77.4603 98.544 77.5456 98.8214 77.6043C99.104 77.6683 99.44 77.7003 99.8294 77.7003C100.213 77.7003 100.552 77.6656 100.845 77.5963C101.139 77.5323 101.384 77.439 101.581 77.3163C101.784 77.199 101.936 77.0576 102.037 76.8923C102.144 76.727 102.197 76.5456 102.197 76.3483ZM103.781 68.1003V68.6843C103.781 68.8763 103.661 68.9963 103.421 69.0443L102.549 69.1723C102.624 69.3376 102.683 69.5136 102.725 69.7003C102.768 69.8816 102.789 70.0736 102.789 70.2763C102.789 70.6763 102.712 71.039 102.557 71.3643C102.403 71.6843 102.189 71.959 101.917 72.1883C101.645 72.4176 101.32 72.5936 100.941 72.7163C100.568 72.839 100.157 72.9003 99.7094 72.9003C99.3414 72.9003 98.9974 72.8603 98.6774 72.7803C98.5174 72.8763 98.3947 72.983 98.3094 73.1003C98.2294 73.2123 98.1894 73.3243 98.1894 73.4363C98.1894 73.623 98.2667 73.7616 98.4214 73.8523C98.5814 73.943 98.7867 74.0096 99.0374 74.0523C99.2934 74.0896 99.584 74.1136 99.9094 74.1243C100.24 74.135 100.573 74.1536 100.909 74.1803C101.251 74.2016 101.584 74.2443 101.909 74.3083C102.24 74.367 102.531 74.4656 102.781 74.6043C103.037 74.7376 103.243 74.9243 103.397 75.1643C103.557 75.399 103.637 75.7056 103.637 76.0843C103.637 76.4363 103.549 76.7776 103.373 77.1083C103.203 77.439 102.952 77.7323 102.621 77.9883C102.291 78.2443 101.888 78.4496 101.413 78.6043C100.939 78.759 100.4 78.8363 99.7974 78.8363C99.1947 78.8363 98.6694 78.7776 98.2214 78.6603C97.7787 78.543 97.408 78.3856 97.1094 78.1883C96.816 77.991 96.5947 77.7616 96.4454 77.5003C96.3014 77.239 96.2294 76.967 96.2294 76.6843C96.2294 76.2896 96.352 75.9563 96.5974 75.6843C96.8427 75.407 97.1814 75.191 97.6134 75.0363C97.3787 74.9296 97.192 74.7856 97.0534 74.6043C96.9147 74.4176 96.8454 74.1723 96.8454 73.8683C96.8454 73.751 96.8667 73.631 96.9094 73.5083C96.952 73.3803 97.016 73.255 97.1014 73.1323C97.192 73.0043 97.3014 72.8843 97.4294 72.7723C97.5627 72.6603 97.7147 72.559 97.8854 72.4683C97.4854 72.2443 97.1707 71.9483 96.9414 71.5803C96.712 71.207 96.5974 70.7723 96.5974 70.2763C96.5974 69.8763 96.6747 69.5163 96.8294 69.1963C96.984 68.8763 97.1974 68.6016 97.4694 68.3723C97.7467 68.143 98.0747 67.967 98.4534 67.8443C98.8374 67.7216 99.256 67.6603 99.7094 67.6603C100.413 67.6603 101.019 67.807 101.525 68.1003H103.781Z" fill="white"/>
</svg>
