<svg width="138" height="139" viewBox="0 0 138 139" fill="none" xmlns="http://www.w3.org/2000/svg">
<circle cx="68.906" cy="68.906" r="68.906" fill="#6B9AC4"/>
<path fill-rule="evenodd" clip-rule="evenodd" d="M79.049 28.0296C87.2195 29.9754 94.064 33.6187 100.902 38.473C109.948 44.8945 121.644 49.4935 124.377 60.2073C127.59 72.8038 126.334 89.0838 115.759 96.7173C105.409 104.189 91.4318 96.1082 79.049 92.9274C70.8646 90.8251 64.9898 85.449 57.4093 81.7293C41.8804 74.1095 16.4727 76.938 12.3669 60.2073C8.4837 44.3841 28.7011 31.8975 43.4353 24.7875C54.5848 19.4073 66.9972 25.1595 79.049 28.0296Z" stroke="#F4B942"/>
<path fill-rule="evenodd" clip-rule="evenodd" d="M87.3644 16.1492C95.5349 18.095 102.379 21.7383 109.218 26.5927C118.263 33.0142 129.96 37.6131 132.692 48.327C135.905 60.9234 134.649 77.2035 124.074 84.8369C113.724 92.3083 99.7472 84.2278 87.3644 81.0471C79.18 78.9448 73.3052 73.5686 65.7247 69.8489C50.1958 62.2291 24.7881 65.0576 20.6823 48.327C16.7991 32.5037 37.0166 20.0172 51.7507 12.9071C62.9002 7.52691 75.3126 13.2791 87.3644 16.1492Z" stroke="#97D8C4"/>
<circle cx="68.906" cy="70.0937" r="68.906" fill="black" fill-opacity="0.4"/>
<path d="M48.8717 69.2018C49.3037 69.2018 49.6824 69.1458 50.0077 69.0338C50.3384 68.9218 50.6131 68.7645 50.8317 68.5618C51.0557 68.3538 51.2237 68.1085 51.3357 67.8258C51.4477 67.5378 51.5037 67.2205 51.5037 66.8738C51.5037 66.1752 51.2851 65.6258 50.8477 65.2258C50.4157 64.8258 49.7571 64.6258 48.8717 64.6258H47.0957V69.2018H48.8717ZM48.8717 63.2898C49.6077 63.2898 50.2477 63.3752 50.7917 63.5458C51.3357 63.7165 51.7864 63.9592 52.1437 64.2738C52.5011 64.5832 52.7651 64.9592 52.9357 65.4018C53.1117 65.8445 53.1997 66.3352 53.1997 66.8738C53.1997 67.4125 53.1064 67.9085 52.9197 68.3618C52.7331 68.8098 52.4584 69.1965 52.0957 69.5218C51.7331 69.8472 51.2797 70.1005 50.7357 70.2818C50.1971 70.4578 49.5757 70.5458 48.8717 70.5458H47.0957V74.7778H45.3917V63.2898H48.8717ZM58.8772 71.1698C58.2426 71.1912 57.7039 71.2418 57.2612 71.3218C56.8186 71.3965 56.4586 71.4978 56.1812 71.6258C55.9039 71.7538 55.7039 71.9058 55.5812 72.0818C55.4586 72.2525 55.3972 72.4445 55.3972 72.6578C55.3972 72.8605 55.4292 73.0365 55.4932 73.1858C55.5626 73.3298 55.6532 73.4498 55.7652 73.5458C55.8826 73.6365 56.0186 73.7032 56.1732 73.7458C56.3279 73.7885 56.4959 73.8098 56.6772 73.8098C56.9172 73.8098 57.1359 73.7858 57.3332 73.7378C57.5359 73.6898 57.7252 73.6232 57.9012 73.5378C58.0772 73.4472 58.2452 73.3378 58.4052 73.2098C58.5652 73.0818 58.7226 72.9352 58.8772 72.7698V71.1698ZM54.3012 67.7858C54.7546 67.3538 55.2452 67.0312 55.7732 66.8178C56.3066 66.6045 56.8906 66.4978 57.5252 66.4978C57.9892 66.4978 58.3999 66.5752 58.7572 66.7298C59.1146 66.8792 59.4159 67.0898 59.6612 67.3618C59.9066 67.6338 60.0906 67.9592 60.2132 68.3378C60.3412 68.7165 60.4052 69.1352 60.4052 69.5938V74.7778H59.7092C59.5546 74.7778 59.4372 74.7538 59.3572 74.7058C59.2772 74.6525 59.2132 74.5565 59.1652 74.4178L58.9972 73.7058C58.7892 73.8978 58.5839 74.0685 58.3812 74.2178C58.1786 74.3618 57.9652 74.4872 57.7412 74.5938C57.5226 74.6952 57.2879 74.7725 57.0372 74.8258C56.7866 74.8792 56.5092 74.9058 56.2052 74.9058C55.8852 74.9058 55.5839 74.8632 55.3012 74.7778C55.0239 74.6872 54.7812 74.5512 54.5732 74.3698C54.3652 74.1885 54.1999 73.9618 54.0772 73.6898C53.9599 73.4178 53.9012 73.1005 53.9012 72.7378C53.9012 72.4178 53.9866 72.1112 54.1572 71.8178C54.3332 71.5192 54.6159 71.2525 55.0052 71.0178C55.3999 70.7832 55.9119 70.5912 56.5412 70.4418C57.1759 70.2925 57.9546 70.2072 58.8772 70.1858V69.5938C58.8772 68.9805 58.7466 68.5218 58.4852 68.2178C58.2239 67.9138 57.8399 67.7618 57.3332 67.7618C56.9919 67.7618 56.7039 67.8045 56.4692 67.8898C56.2399 67.9752 56.0399 68.0712 55.8692 68.1778C55.7039 68.2792 55.5572 68.3725 55.4292 68.4578C55.3066 68.5432 55.1786 68.5858 55.0452 68.5858C54.9386 68.5858 54.8452 68.5565 54.7652 68.4978C54.6906 68.4392 54.6292 68.3698 54.5812 68.2898L54.3012 67.7858ZM63.9656 68.2098C64.2269 67.6765 64.5416 67.2578 64.9096 66.9538C65.2776 66.6498 65.7203 66.4978 66.2376 66.4978C66.4136 66.4978 66.5789 66.5192 66.7336 66.5618C66.8936 66.5992 67.0323 66.6578 67.1496 66.7378L67.0456 67.9138C67.0083 68.0578 66.9203 68.1298 66.7816 68.1298C66.7069 68.1298 66.5949 68.1165 66.4456 68.0898C66.2963 68.0578 66.1363 68.0418 65.9656 68.0418C65.7149 68.0418 65.4936 68.0792 65.3016 68.1538C65.1096 68.2232 64.9363 68.3298 64.7816 68.4738C64.6323 68.6125 64.4989 68.7858 64.3816 68.9938C64.2643 69.1965 64.1549 69.4285 64.0536 69.6898V74.7778H62.4936V66.6498H63.3896C63.5603 66.6498 63.6749 66.6818 63.7336 66.7458C63.7976 66.8045 63.8429 66.9112 63.8696 67.0658L63.9656 68.2098ZM76.057 74.7778H74.489V67.9138H70.409V72.6738C70.409 72.9938 70.4863 73.2338 70.641 73.3938C70.801 73.5485 71.0037 73.6258 71.249 73.6258C71.393 73.6258 71.5157 73.6072 71.617 73.5698C71.7237 73.5325 71.8143 73.4925 71.889 73.4498C71.9637 73.4018 72.0277 73.3592 72.081 73.3218C72.1343 73.2845 72.1823 73.2658 72.225 73.2658C72.2783 73.2658 72.3183 73.2792 72.345 73.3058C72.377 73.3272 72.409 73.3645 72.441 73.4178L72.905 74.1698C72.649 74.4045 72.345 74.5858 71.993 74.7138C71.641 74.8418 71.2757 74.9058 70.897 74.9058C70.241 74.9058 69.7343 74.7218 69.377 74.3538C69.025 73.9858 68.849 73.4605 68.849 72.7778V67.9138H67.905C67.8143 67.9138 67.737 67.8872 67.673 67.8338C67.6143 67.7752 67.585 67.6898 67.585 67.5778V66.9458L68.913 66.7618L69.257 64.3378C69.2783 64.2472 69.3183 64.1778 69.377 64.1298C69.441 64.0765 69.521 64.0498 69.617 64.0498H70.409V66.7778H76.057V74.7778ZM76.409 64.0898C76.409 64.2338 76.3797 64.3725 76.321 64.5058C76.2623 64.6338 76.1823 64.7485 76.081 64.8498C75.985 64.9458 75.8703 65.0232 75.737 65.0818C75.6037 65.1352 75.465 65.1618 75.321 65.1618C75.177 65.1618 75.041 65.1352 74.913 65.0818C74.785 65.0232 74.6703 64.9458 74.569 64.8498C74.473 64.7485 74.3957 64.6338 74.337 64.5058C74.2837 64.3725 74.257 64.2338 74.257 64.0898C74.257 63.9405 74.2837 63.7992 74.337 63.6658C74.3957 63.5325 74.473 63.4178 74.569 63.3218C74.6703 63.2205 74.785 63.1432 74.913 63.0898C75.041 63.0312 75.177 63.0018 75.321 63.0018C75.465 63.0018 75.6037 63.0312 75.737 63.0898C75.8703 63.1432 75.985 63.2205 76.081 63.3218C76.1823 63.4178 76.2623 63.5325 76.321 63.6658C76.3797 63.7992 76.409 63.9405 76.409 64.0898ZM83.7057 69.8098C83.7057 69.5005 83.6604 69.2152 83.5697 68.9538C83.4844 68.6925 83.3564 68.4658 83.1857 68.2738C83.0151 68.0818 82.8071 67.9325 82.5617 67.8258C82.3164 67.7192 82.0337 67.6658 81.7137 67.6658C81.0577 67.6658 80.5404 67.8552 80.1617 68.2338C79.7884 68.6125 79.5511 69.1378 79.4497 69.8098H83.7057ZM84.9937 73.6178C84.8017 73.8418 84.5804 74.0365 84.3297 74.2018C84.0791 74.3618 83.8124 74.4925 83.5297 74.5938C83.2471 74.6952 82.9537 74.7698 82.6497 74.8178C82.3511 74.8658 82.0551 74.8898 81.7617 74.8898C81.2017 74.8898 80.6817 74.7965 80.2017 74.6098C79.7271 74.4178 79.3137 74.1405 78.9617 73.7778C78.6151 73.4098 78.3431 72.9565 78.1457 72.4178C77.9537 71.8738 77.8577 71.2498 77.8577 70.5458C77.8577 69.9805 77.9457 69.4552 78.1217 68.9698C78.2977 68.4792 78.5484 68.0525 78.8737 67.6898C79.2044 67.3272 79.6071 67.0418 80.0817 66.8338C80.5564 66.6258 81.0897 66.5218 81.6817 66.5218C82.1777 66.5218 82.6337 66.6045 83.0497 66.7698C83.4711 66.9298 83.8337 67.1645 84.1377 67.4738C84.4417 67.7832 84.6791 68.1645 84.8497 68.6178C85.0257 69.0712 85.1137 69.5885 85.1137 70.1698C85.1137 70.4098 85.0871 70.5725 85.0337 70.6578C84.9804 70.7378 84.8817 70.7778 84.7377 70.7778H79.4097C79.4257 71.2632 79.4951 71.6872 79.6177 72.0498C79.7404 72.4072 79.9084 72.7058 80.1217 72.9458C80.3404 73.1858 80.5991 73.3645 80.8977 73.4818C81.1964 73.5992 81.5297 73.6578 81.8977 73.6578C82.2444 73.6578 82.5431 73.6178 82.7937 73.5378C83.0497 73.4578 83.2684 73.3725 83.4497 73.2818C83.6364 73.1858 83.7911 73.0978 83.9137 73.0178C84.0417 72.9378 84.1537 72.8978 84.2497 72.8978C84.3777 72.8978 84.4764 72.9458 84.5457 73.0418L84.9937 73.6178ZM91.5825 68.0498C91.5398 68.1192 91.4945 68.1698 91.4465 68.2018C91.3985 68.2285 91.3372 68.2418 91.2625 68.2418C91.1772 68.2418 91.0812 68.2125 90.9745 68.1538C90.8732 68.0952 90.7478 68.0312 90.5985 67.9618C90.4545 67.8925 90.2838 67.8285 90.0865 67.7698C89.8892 67.7112 89.6545 67.6818 89.3825 67.6818C89.1585 67.6818 88.9532 67.7112 88.7665 67.7698C88.5852 67.8232 88.4305 67.9005 88.3025 68.0018C88.1745 68.0978 88.0758 68.2152 88.0065 68.3538C87.9372 68.4872 87.9025 68.6312 87.9025 68.7858C87.9025 68.9885 87.9612 69.1565 88.0785 69.2898C88.2012 69.4232 88.3585 69.5378 88.5505 69.6338C88.7478 69.7298 88.9692 69.8178 89.2145 69.8978C89.4652 69.9725 89.7185 70.0525 89.9745 70.1378C90.2358 70.2232 90.4892 70.3218 90.7345 70.4338C90.9852 70.5405 91.2065 70.6765 91.3985 70.8418C91.5958 71.0018 91.7532 71.1965 91.8705 71.4258C91.9932 71.6552 92.0545 71.9352 92.0545 72.2658C92.0545 72.6445 91.9852 72.9965 91.8465 73.3218C91.7132 73.6418 91.5132 73.9192 91.2465 74.1538C90.9852 74.3885 90.6598 74.5725 90.2705 74.7058C89.8812 74.8392 89.4358 74.9058 88.9345 74.9058C88.3745 74.9058 87.8572 74.8125 87.3825 74.6258C86.9078 74.4392 86.5105 74.2018 86.1905 73.9138L86.5585 73.3138C86.6012 73.2392 86.6545 73.1832 86.7185 73.1458C86.7825 73.1032 86.8678 73.0818 86.9745 73.0818C87.0758 73.0818 87.1798 73.1192 87.2865 73.1938C87.3932 73.2685 87.5212 73.3512 87.6705 73.4418C87.8198 73.5272 88.0012 73.6072 88.2145 73.6818C88.4278 73.7512 88.6945 73.7858 89.0145 73.7858C89.2812 73.7858 89.5132 73.7538 89.7105 73.6898C89.9078 73.6205 90.0705 73.5298 90.1985 73.4178C90.3318 73.3005 90.4305 73.1672 90.4945 73.0178C90.5585 72.8685 90.5905 72.7112 90.5905 72.5458C90.5905 72.3325 90.5292 72.1565 90.4065 72.0178C90.2892 71.8738 90.1318 71.7512 89.9345 71.6498C89.7425 71.5485 89.5212 71.4605 89.2705 71.3858C89.0198 71.3112 88.7638 71.2312 88.5025 71.1458C88.2412 71.0605 87.9852 70.9618 87.7345 70.8498C87.4838 70.7378 87.2598 70.5965 87.0625 70.4258C86.8705 70.2552 86.7132 70.0472 86.5905 69.8018C86.4732 69.5565 86.4145 69.2578 86.4145 68.9058C86.4145 68.5912 86.4785 68.2898 86.6065 68.0018C86.7398 67.7138 86.9292 67.4605 87.1745 67.2418C87.4252 67.0232 87.7318 66.8498 88.0945 66.7218C88.4625 66.5885 88.8812 66.5218 89.3505 66.5218C89.8892 66.5218 90.3745 66.6072 90.8065 66.7778C91.2438 66.9485 91.6172 67.1832 91.9265 67.4818L91.5825 68.0498Z" fill="white"/>
</svg>
