<svg width="152" height="152" viewBox="0 0 152 152" fill="none" xmlns="http://www.w3.org/2000/svg">
<circle cx="75.906" cy="75.906" r="68.906" fill="#6B9AC4"/>
<path fill-rule="evenodd" clip-rule="evenodd" d="M86.049 35.0296C94.2195 36.9754 101.064 40.6187 107.902 45.473C116.948 51.8945 128.644 56.4935 131.377 67.2073C134.59 79.8038 133.334 96.0838 122.759 103.717C112.409 111.189 98.4318 103.108 86.049 99.9274C77.8646 97.8251 71.9898 92.449 64.4093 88.7293C48.8804 81.1095 23.4727 83.938 19.3669 67.2073C15.4837 51.3841 35.7011 38.8975 50.4353 31.7875C61.5848 26.4073 73.9972 32.1595 86.049 35.0296Z" stroke="#F4B942"/>
<path fill-rule="evenodd" clip-rule="evenodd" d="M94.3644 23.1492C102.535 25.095 109.379 28.7383 116.218 33.5927C125.263 40.0142 136.96 44.6131 139.692 55.327C142.905 67.9234 141.649 84.2035 131.074 91.8369C120.724 99.3083 106.747 91.2278 94.3644 88.0471C86.18 85.9448 80.3052 80.5686 72.7247 76.8489C57.1958 69.2291 31.7881 72.0576 27.6823 55.327C23.7991 39.5037 44.0166 27.0172 58.7507 19.9071C69.9002 14.5269 82.3126 20.2791 94.3644 23.1492Z" stroke="#97D8C4"/>
<circle cx="75.906" cy="77.0937" r="68.906" fill="black" fill-opacity="0.4"/>
<path d="M55.8717 76.2018C56.3037 76.2018 56.6824 76.1458 57.0077 76.0338C57.3384 75.9218 57.6131 75.7645 57.8317 75.5618C58.0557 75.3538 58.2237 75.1085 58.3357 74.8258C58.4477 74.5378 58.5037 74.2205 58.5037 73.8738C58.5037 73.1752 58.2851 72.6258 57.8477 72.2258C57.4157 71.8258 56.7571 71.6258 55.8717 71.6258H54.0957V76.2018H55.8717ZM55.8717 70.2898C56.6077 70.2898 57.2477 70.3752 57.7917 70.5458C58.3357 70.7165 58.7864 70.9592 59.1437 71.2738C59.5011 71.5832 59.7651 71.9592 59.9357 72.4018C60.1117 72.8445 60.1997 73.3352 60.1997 73.8738C60.1997 74.4125 60.1064 74.9085 59.9197 75.3618C59.7331 75.8098 59.4584 76.1965 59.0957 76.5218C58.7331 76.8472 58.2797 77.1005 57.7357 77.2818C57.1971 77.4578 56.5757 77.5458 55.8717 77.5458H54.0957V81.7778H52.3917V70.2898H55.8717ZM65.8772 78.1698C65.2426 78.1912 64.7039 78.2418 64.2612 78.3218C63.8186 78.3965 63.4586 78.4978 63.1812 78.6258C62.9039 78.7538 62.7039 78.9058 62.5812 79.0818C62.4586 79.2525 62.3972 79.4445 62.3972 79.6578C62.3972 79.8605 62.4292 80.0365 62.4932 80.1858C62.5626 80.3298 62.6532 80.4498 62.7652 80.5458C62.8826 80.6365 63.0186 80.7032 63.1732 80.7458C63.3279 80.7885 63.4959 80.8098 63.6772 80.8098C63.9172 80.8098 64.1359 80.7858 64.3332 80.7378C64.5359 80.6898 64.7252 80.6232 64.9012 80.5378C65.0772 80.4472 65.2452 80.3378 65.4052 80.2098C65.5652 80.0818 65.7226 79.9352 65.8772 79.7698V78.1698ZM61.3012 74.7858C61.7546 74.3538 62.2452 74.0312 62.7732 73.8178C63.3066 73.6045 63.8906 73.4978 64.5252 73.4978C64.9892 73.4978 65.3999 73.5752 65.7572 73.7298C66.1146 73.8792 66.4159 74.0898 66.6612 74.3618C66.9066 74.6338 67.0906 74.9592 67.2132 75.3378C67.3412 75.7165 67.4052 76.1352 67.4052 76.5938V81.7778H66.7092C66.5546 81.7778 66.4372 81.7538 66.3572 81.7058C66.2772 81.6525 66.2132 81.5565 66.1652 81.4178L65.9972 80.7058C65.7892 80.8978 65.5839 81.0685 65.3812 81.2178C65.1786 81.3618 64.9652 81.4872 64.7412 81.5938C64.5226 81.6952 64.2879 81.7725 64.0372 81.8258C63.7866 81.8792 63.5092 81.9058 63.2052 81.9058C62.8852 81.9058 62.5839 81.8632 62.3012 81.7778C62.0239 81.6872 61.7812 81.5512 61.5732 81.3698C61.3652 81.1885 61.1999 80.9618 61.0772 80.6898C60.9599 80.4178 60.9012 80.1005 60.9012 79.7378C60.9012 79.4178 60.9866 79.1112 61.1572 78.8178C61.3332 78.5192 61.6159 78.2525 62.0052 78.0178C62.3999 77.7832 62.9119 77.5912 63.5412 77.4418C64.1759 77.2925 64.9546 77.2072 65.8772 77.1858V76.5938C65.8772 75.9805 65.7466 75.5218 65.4852 75.2178C65.2239 74.9138 64.8399 74.7618 64.3332 74.7618C63.9919 74.7618 63.7039 74.8045 63.4692 74.8898C63.2399 74.9752 63.0399 75.0712 62.8692 75.1778C62.7039 75.2792 62.5572 75.3725 62.4292 75.4578C62.3066 75.5432 62.1786 75.5858 62.0452 75.5858C61.9386 75.5858 61.8452 75.5565 61.7652 75.4978C61.6906 75.4392 61.6292 75.3698 61.5812 75.2898L61.3012 74.7858ZM70.9656 75.2098C71.2269 74.6765 71.5416 74.2578 71.9096 73.9538C72.2776 73.6498 72.7203 73.4978 73.2376 73.4978C73.4136 73.4978 73.5789 73.5192 73.7336 73.5618C73.8936 73.5992 74.0323 73.6578 74.1496 73.7378L74.0456 74.9138C74.0083 75.0578 73.9203 75.1298 73.7816 75.1298C73.7069 75.1298 73.5949 75.1165 73.4456 75.0898C73.2963 75.0578 73.1363 75.0418 72.9656 75.0418C72.7149 75.0418 72.4936 75.0792 72.3016 75.1538C72.1096 75.2232 71.9363 75.3298 71.7816 75.4738C71.6323 75.6125 71.4989 75.7858 71.3816 75.9938C71.2643 76.1965 71.1549 76.4285 71.0536 76.6898V81.7778H69.4936V73.6498H70.3896C70.5603 73.6498 70.6749 73.6818 70.7336 73.7458C70.7976 73.8045 70.8429 73.9112 70.8696 74.0658L70.9656 75.2098ZM83.057 81.7778H81.489V74.9138H77.409V79.6738C77.409 79.9938 77.4863 80.2338 77.641 80.3938C77.801 80.5485 78.0037 80.6258 78.249 80.6258C78.393 80.6258 78.5157 80.6072 78.617 80.5698C78.7237 80.5325 78.8143 80.4925 78.889 80.4498C78.9637 80.4018 79.0277 80.3592 79.081 80.3218C79.1343 80.2845 79.1823 80.2658 79.225 80.2658C79.2783 80.2658 79.3183 80.2792 79.345 80.3058C79.377 80.3272 79.409 80.3645 79.441 80.4178L79.905 81.1698C79.649 81.4045 79.345 81.5858 78.993 81.7138C78.641 81.8418 78.2757 81.9058 77.897 81.9058C77.241 81.9058 76.7343 81.7218 76.377 81.3538C76.025 80.9858 75.849 80.4605 75.849 79.7778V74.9138H74.905C74.8143 74.9138 74.737 74.8872 74.673 74.8338C74.6143 74.7752 74.585 74.6898 74.585 74.5778V73.9458L75.913 73.7618L76.257 71.3378C76.2783 71.2472 76.3183 71.1778 76.377 71.1298C76.441 71.0765 76.521 71.0498 76.617 71.0498H77.409V73.7778H83.057V81.7778ZM83.409 71.0898C83.409 71.2338 83.3797 71.3725 83.321 71.5058C83.2623 71.6338 83.1823 71.7485 83.081 71.8498C82.985 71.9458 82.8703 72.0232 82.737 72.0818C82.6037 72.1352 82.465 72.1618 82.321 72.1618C82.177 72.1618 82.041 72.1352 81.913 72.0818C81.785 72.0232 81.6703 71.9458 81.569 71.8498C81.473 71.7485 81.3957 71.6338 81.337 71.5058C81.2837 71.3725 81.257 71.2338 81.257 71.0898C81.257 70.9405 81.2837 70.7992 81.337 70.6658C81.3957 70.5325 81.473 70.4178 81.569 70.3218C81.6703 70.2205 81.785 70.1432 81.913 70.0898C82.041 70.0312 82.177 70.0018 82.321 70.0018C82.465 70.0018 82.6037 70.0312 82.737 70.0898C82.8703 70.1432 82.985 70.2205 83.081 70.3218C83.1823 70.4178 83.2623 70.5325 83.321 70.6658C83.3797 70.7992 83.409 70.9405 83.409 71.0898ZM90.7057 76.8098C90.7057 76.5005 90.6604 76.2152 90.5697 75.9538C90.4844 75.6925 90.3564 75.4658 90.1857 75.2738C90.0151 75.0818 89.8071 74.9325 89.5617 74.8258C89.3164 74.7192 89.0337 74.6658 88.7137 74.6658C88.0577 74.6658 87.5404 74.8552 87.1617 75.2338C86.7884 75.6125 86.5511 76.1378 86.4497 76.8098H90.7057ZM91.9937 80.6178C91.8017 80.8418 91.5804 81.0365 91.3297 81.2018C91.0791 81.3618 90.8124 81.4925 90.5297 81.5938C90.2471 81.6952 89.9537 81.7698 89.6497 81.8178C89.3511 81.8658 89.0551 81.8898 88.7617 81.8898C88.2017 81.8898 87.6817 81.7965 87.2017 81.6098C86.7271 81.4178 86.3137 81.1405 85.9617 80.7778C85.6151 80.4098 85.3431 79.9565 85.1457 79.4178C84.9537 78.8738 84.8577 78.2498 84.8577 77.5458C84.8577 76.9805 84.9457 76.4552 85.1217 75.9698C85.2977 75.4792 85.5484 75.0525 85.8737 74.6898C86.2044 74.3272 86.6071 74.0418 87.0817 73.8338C87.5564 73.6258 88.0897 73.5218 88.6817 73.5218C89.1777 73.5218 89.6337 73.6045 90.0497 73.7698C90.4711 73.9298 90.8337 74.1645 91.1377 74.4738C91.4417 74.7832 91.6791 75.1645 91.8497 75.6178C92.0257 76.0712 92.1137 76.5885 92.1137 77.1698C92.1137 77.4098 92.0871 77.5725 92.0337 77.6578C91.9804 77.7378 91.8817 77.7778 91.7377 77.7778H86.4097C86.4257 78.2632 86.4951 78.6872 86.6177 79.0498C86.7404 79.4072 86.9084 79.7058 87.1217 79.9458C87.3404 80.1858 87.5991 80.3645 87.8977 80.4818C88.1964 80.5992 88.5297 80.6578 88.8977 80.6578C89.2444 80.6578 89.5431 80.6178 89.7937 80.5378C90.0497 80.4578 90.2684 80.3725 90.4497 80.2818C90.6364 80.1858 90.7911 80.0978 90.9137 80.0178C91.0417 79.9378 91.1537 79.8978 91.2497 79.8978C91.3777 79.8978 91.4764 79.9458 91.5457 80.0418L91.9937 80.6178ZM98.5825 75.0498C98.5398 75.1192 98.4945 75.1698 98.4465 75.2018C98.3985 75.2285 98.3372 75.2418 98.2625 75.2418C98.1772 75.2418 98.0812 75.2125 97.9745 75.1538C97.8732 75.0952 97.7478 75.0312 97.5985 74.9618C97.4545 74.8925 97.2838 74.8285 97.0865 74.7698C96.8892 74.7112 96.6545 74.6818 96.3825 74.6818C96.1585 74.6818 95.9532 74.7112 95.7665 74.7698C95.5852 74.8232 95.4305 74.9005 95.3025 75.0018C95.1745 75.0978 95.0758 75.2152 95.0065 75.3538C94.9372 75.4872 94.9025 75.6312 94.9025 75.7858C94.9025 75.9885 94.9612 76.1565 95.0785 76.2898C95.2012 76.4232 95.3585 76.5378 95.5505 76.6338C95.7478 76.7298 95.9692 76.8178 96.2145 76.8978C96.4652 76.9725 96.7185 77.0525 96.9745 77.1378C97.2358 77.2232 97.4892 77.3218 97.7345 77.4338C97.9852 77.5405 98.2065 77.6765 98.3985 77.8418C98.5958 78.0018 98.7532 78.1965 98.8705 78.4258C98.9932 78.6552 99.0545 78.9352 99.0545 79.2658C99.0545 79.6445 98.9852 79.9965 98.8465 80.3218C98.7132 80.6418 98.5132 80.9192 98.2465 81.1538C97.9852 81.3885 97.6598 81.5725 97.2705 81.7058C96.8812 81.8392 96.4358 81.9058 95.9345 81.9058C95.3745 81.9058 94.8572 81.8125 94.3825 81.6258C93.9078 81.4392 93.5105 81.2018 93.1905 80.9138L93.5585 80.3138C93.6012 80.2392 93.6545 80.1832 93.7185 80.1458C93.7825 80.1032 93.8678 80.0818 93.9745 80.0818C94.0758 80.0818 94.1798 80.1192 94.2865 80.1938C94.3932 80.2685 94.5212 80.3512 94.6705 80.4418C94.8198 80.5272 95.0012 80.6072 95.2145 80.6818C95.4278 80.7512 95.6945 80.7858 96.0145 80.7858C96.2812 80.7858 96.5132 80.7538 96.7105 80.6898C96.9078 80.6205 97.0705 80.5298 97.1985 80.4178C97.3318 80.3005 97.4305 80.1672 97.4945 80.0178C97.5585 79.8685 97.5905 79.7112 97.5905 79.5458C97.5905 79.3325 97.5292 79.1565 97.4065 79.0178C97.2892 78.8738 97.1318 78.7512 96.9345 78.6498C96.7425 78.5485 96.5212 78.4605 96.2705 78.3858C96.0198 78.3112 95.7638 78.2312 95.5025 78.1458C95.2412 78.0605 94.9852 77.9618 94.7345 77.8498C94.4838 77.7378 94.2598 77.5965 94.0625 77.4258C93.8705 77.2552 93.7132 77.0472 93.5905 76.8018C93.4732 76.5565 93.4145 76.2578 93.4145 75.9058C93.4145 75.5912 93.4785 75.2898 93.6065 75.0018C93.7398 74.7138 93.9292 74.4605 94.1745 74.2418C94.4252 74.0232 94.7318 73.8498 95.0945 73.7218C95.4625 73.5885 95.8812 73.5218 96.3505 73.5218C96.8892 73.5218 97.3745 73.6072 97.8065 73.7778C98.2438 73.9485 98.6172 74.1832 98.9265 74.4818L98.5825 75.0498Z" fill="white"/>
<circle cx="110.5" cy="41.5" r="13.5" fill="#4059AD"/>
<path d="M107.351 38.64C107.431 38.1067 107.581 37.6373 107.799 37.232C108.018 36.8267 108.293 36.488 108.623 36.216C108.954 35.9387 109.333 35.7307 109.759 35.592C110.191 35.4533 110.655 35.384 111.151 35.384C111.647 35.384 112.103 35.456 112.519 35.6C112.935 35.7387 113.29 35.9387 113.583 36.2C113.882 36.456 114.114 36.7653 114.279 37.128C114.445 37.4907 114.527 37.8907 114.527 38.328C114.527 38.696 114.482 39.0213 114.391 39.304C114.301 39.5867 114.17 39.8347 113.999 40.048C113.834 40.2613 113.631 40.4427 113.391 40.592C113.151 40.736 112.882 40.856 112.583 40.952C113.314 41.1547 113.863 41.4853 114.231 41.944C114.599 42.3973 114.783 42.9733 114.783 43.672C114.783 44.2107 114.682 44.696 114.479 45.128C114.277 45.5547 113.999 45.9173 113.647 46.216C113.295 46.5093 112.885 46.736 112.415 46.896C111.951 47.0507 111.455 47.128 110.927 47.128C110.325 47.128 109.807 47.056 109.375 46.912C108.943 46.7627 108.575 46.5573 108.271 46.296C107.967 46.0293 107.714 45.712 107.511 45.344C107.314 44.9707 107.146 44.5627 107.007 44.12L107.687 43.832C107.863 43.7573 108.034 43.736 108.199 43.768C108.365 43.8 108.485 43.8933 108.559 44.048C108.639 44.208 108.73 44.3893 108.831 44.592C108.938 44.7893 109.079 44.9787 109.255 45.16C109.431 45.336 109.65 45.4853 109.911 45.608C110.178 45.7307 110.511 45.792 110.911 45.792C111.295 45.792 111.631 45.7307 111.919 45.608C112.207 45.48 112.447 45.3173 112.639 45.12C112.831 44.9173 112.975 44.6933 113.071 44.448C113.167 44.2027 113.215 43.96 113.215 43.72C113.215 43.4213 113.178 43.1467 113.103 42.896C113.029 42.6453 112.885 42.432 112.671 42.256C112.463 42.0747 112.173 41.9333 111.799 41.832C111.426 41.7307 110.941 41.68 110.343 41.68V40.544C110.834 40.5387 111.247 40.488 111.583 40.392C111.925 40.296 112.199 40.1627 112.407 39.992C112.615 39.8213 112.765 39.6187 112.855 39.384C112.951 39.1493 112.999 38.888 112.999 38.6C112.999 38.2853 112.951 38.0107 112.855 37.776C112.759 37.5413 112.623 37.3467 112.447 37.192C112.277 37.032 112.071 36.9147 111.831 36.84C111.597 36.76 111.341 36.72 111.063 36.72C110.786 36.72 110.53 36.76 110.295 36.84C110.061 36.92 109.853 37.032 109.671 37.176C109.49 37.32 109.338 37.4907 109.215 37.688C109.093 37.8853 109.005 38.0987 108.951 38.328C108.877 38.5307 108.781 38.6667 108.663 38.736C108.551 38.8053 108.389 38.8213 108.175 38.784L107.351 38.64Z" fill="white"/>
<circle cx="76" cy="76" r="73.5" stroke="#4059AD" stroke-width="5"/>
</svg>
