<svg width="182" height="188" viewBox="0 0 182 188" fill="none" xmlns="http://www.w3.org/2000/svg">
<rect x="38.5314" y="38.5892" width="64.1679" height="138.025" rx="14.5" transform="rotate(-18.3411 38.5314 38.5892)" fill="#97D8C4" stroke="black"/>
<rect x="43.213" y="41.9003" width="57.4234" height="123.272" rx="14.5" transform="rotate(-18.3411 43.213 41.9003)" fill="#EFF2F1" stroke="black"/>
<rect x="51" y="49.5996" width="3.84296" height="3.84296" rx="1.92148" transform="rotate(-69.518 51 49.5996)" fill="#D82B2B"/>
<path d="M111.113 81.1436L116.281 80.3959L116.425 80.375L116.536 80.2796L120.487 76.8687L121.225 82.0303L121.246 82.1756L121.342 82.2866L124.763 86.2422L119.586 86.9864L119.441 87.0072L119.33 87.1033L115.389 90.5171L114.642 85.3512L114.621 85.2067L114.525 85.0961L111.113 81.1436Z" fill="white" stroke="black"/>
<path d="M46.1074 64.8025L47.4344 64.6113L47.5798 64.5904L47.6908 64.4941L48.7062 63.6132L48.8954 64.9441L48.9161 65.0895L49.0122 65.2007L49.8889 66.215L48.5619 66.4061L48.417 66.427L48.3062 66.5228L47.2919 67.3995L47.1007 66.0725L47.0799 65.9276L46.9841 65.8168L46.1074 64.8025Z" fill="#F5F5F5" stroke="black"/>
<path d="M60.824 47.8683L61.0189 48.5052L58.5891 49.2487L57.3197 45.1006L58.0914 44.8645L59.1659 48.3757L60.824 47.8683ZM61.2917 45.2028L62.1924 48.1461L61.481 48.3638L60.5803 45.4205L61.2917 45.2028ZM61.1267 44.3152C61.1455 44.3764 61.1506 44.4376 61.1421 44.4987C61.1336 44.5599 61.1145 44.617 61.0847 44.67C61.0569 44.7225 61.019 44.7696 60.9711 44.8115C60.9227 44.8514 60.8669 44.881 60.8038 44.9003C60.7426 44.919 60.6808 44.9254 60.6183 44.9194C60.5571 44.911 60.5003 44.8928 60.4479 44.8649C60.3954 44.837 60.3486 44.8001 60.3073 44.7542C60.268 44.7077 60.239 44.6538 60.2202 44.5926C60.2009 44.5295 60.1942 44.4667 60.2002 44.4042C60.2081 44.3412 60.226 44.2834 60.2539 44.2309C60.2817 44.1785 60.3189 44.1326 60.3655 44.0933C60.4133 44.0514 60.4678 44.0211 60.529 44.0024C60.5922 43.9831 60.6552 43.9774 60.7183 43.9853C60.7808 43.9913 60.8383 44.0082 60.8907 44.036C60.9451 44.0633 60.9932 44.1009 61.035 44.1488C61.0768 44.1966 61.1074 44.2521 61.1267 44.3152ZM64.6676 44.1697L64.4007 47.4703L63.7581 47.6669L61.6899 45.0809L62.2751 44.9018C62.3287 44.8855 62.3764 44.8844 62.4185 44.8988C62.4624 44.9125 62.496 44.9367 62.5192 44.9715L63.5682 46.3697C63.6269 46.4521 63.6812 46.5338 63.7311 46.6148C63.781 46.6957 63.828 46.7775 63.8721 46.8602C63.8643 46.7664 63.8584 46.672 63.8544 46.577C63.8505 46.482 63.8507 46.3836 63.8551 46.2819L63.9535 44.5325C63.9552 44.4902 63.9694 44.4513 63.9962 44.4159C64.0231 44.3805 64.0604 44.3555 64.1082 44.3409L64.6676 44.1697ZM67.1985 44.6344C67.1704 44.5426 67.1307 44.4607 67.0794 44.3885C67.0293 44.3139 66.9691 44.2539 66.8988 44.2085C66.8284 44.1631 66.7478 44.1355 66.6569 44.1256C66.5674 44.1133 66.4701 44.1232 66.3649 44.1554C66.1602 44.218 66.0165 44.3258 65.9336 44.4787C65.8527 44.6311 65.8287 44.8194 65.8617 45.0435L67.1985 44.6344ZM65.9782 45.4753C66.0359 45.6229 66.1028 45.7457 66.1788 45.8438C66.2542 45.9399 66.3375 46.0138 66.4286 46.0654C66.5191 46.1151 66.6167 46.1437 66.7216 46.1514C66.8277 46.1566 66.9382 46.1416 67.0529 46.1065C67.1677 46.0713 67.2621 46.0278 67.3361 45.9759C67.4121 45.9234 67.4757 45.8715 67.5269 45.8202C67.5801 45.7684 67.6255 45.7221 67.6632 45.6813C67.7028 45.6399 67.7446 45.6124 67.7886 45.599C67.8479 45.5808 67.8986 45.5894 67.9408 45.6246L68.2234 45.8204C68.1731 45.9362 68.1089 46.0406 68.0306 46.1335C67.9518 46.2246 67.8647 46.3056 67.7693 46.3766C67.6753 46.4452 67.5751 46.5041 67.4689 46.5533C67.3646 46.602 67.2608 46.6421 67.1575 46.6737C66.9528 46.7363 66.7523 46.7611 66.5559 46.748C66.3589 46.733 66.1751 46.6794 66.0047 46.5872C65.8337 46.4932 65.6811 46.36 65.5468 46.1878C65.4119 46.0136 65.305 45.7974 65.226 45.5392C65.1645 45.3384 65.1394 45.1401 65.1506 44.9443C65.1612 44.7465 65.2068 44.5642 65.2875 44.3973C65.3695 44.2278 65.4858 44.0783 65.6364 43.9485C65.789 43.8182 65.9752 43.7193 66.1951 43.652C66.3806 43.5953 66.5609 43.5725 66.7358 43.5838C66.9108 43.5951 67.0723 43.6409 67.2202 43.7211C67.3676 43.7994 67.4983 43.9121 67.6123 44.0592C67.7277 44.2037 67.8178 44.3822 67.8828 44.5944C67.9156 44.7015 67.9263 44.7777 67.9151 44.823C67.9032 44.8663 67.8648 44.898 67.7998 44.9179L65.9782 45.4753Z" fill="#323232"/>
</svg>
