<svg width="139" height="139" viewBox="0 0 139 139" fill="none" xmlns="http://www.w3.org/2000/svg">
<circle cx="69.5" cy="69.5" r="69.5" fill="#F4B942"/>
<path fill-rule="evenodd" clip-rule="evenodd" d="M70.1685 29.6834C79.6112 32.5774 80.9508 45.3607 87.6855 52.5451C92.5417 57.7256 101.774 58.8539 103.859 65.6232C105.941 72.3835 99.0945 78.4683 97.8123 85.4224C96.2144 94.0885 101.042 104.245 95.4733 111.102C89.7513 118.146 79.163 120.9 70.1685 119.455C61.5896 118.077 56.3177 109.942 50.185 103.825C45.1023 98.7552 39.4885 93.9155 37.633 87.0015C35.832 80.2907 39.5598 73.7543 40.2606 66.8441C41.2339 57.2473 36.4682 46.2395 42.5312 38.7062C48.739 30.993 60.6698 26.7723 70.1685 29.6834Z" stroke="#323232"/>
<path fill-rule="evenodd" clip-rule="evenodd" d="M91.7378 29.6834C101.181 32.5774 102.52 45.3607 109.255 52.5451C114.111 57.7256 123.343 58.8539 125.428 65.6232C127.51 72.3835 120.664 78.4683 119.382 85.4224C117.784 94.0885 122.612 104.245 117.043 111.102C111.321 118.146 100.732 120.9 91.7378 119.455C83.1589 118.077 77.887 109.942 71.7543 103.825C66.6716 98.7552 61.0578 93.9155 59.2023 87.0015C57.4014 80.2907 61.1291 73.7543 61.8299 66.8441C62.8033 57.2473 58.0375 46.2395 64.1005 38.7062C70.3083 30.993 82.2392 26.7723 91.7378 29.6834Z" stroke="#999999"/>
<circle cx="69.5" cy="69.5" r="69.5" fill="black" fill-opacity="0.4"/>
<path d="M42.4379 70.9325C42.8699 70.9325 43.2486 70.8765 43.5739 70.7645C43.9046 70.6525 44.1792 70.4952 44.3979 70.2925C44.6219 70.0845 44.7899 69.8392 44.9019 69.5565C45.0139 69.2685 45.0699 68.9512 45.0699 68.6045C45.0699 67.9059 44.8512 67.3565 44.4139 66.9565C43.9819 66.5565 43.3232 66.3565 42.4379 66.3565H40.6619V70.9325H42.4379ZM42.4379 65.0205C43.1739 65.0205 43.8139 65.1059 44.3579 65.2765C44.9019 65.4472 45.3526 65.6899 45.7099 66.0045C46.0672 66.3139 46.3312 66.6899 46.5019 67.1325C46.6779 67.5752 46.7659 68.0659 46.7659 68.6045C46.7659 69.1432 46.6726 69.6392 46.4859 70.0925C46.2992 70.5405 46.0246 70.9272 45.6619 71.2525C45.2992 71.5779 44.8459 71.8312 44.3019 72.0125C43.7632 72.1885 43.1419 72.2765 42.4379 72.2765H40.6619V76.5085H38.9579V65.0205H42.4379ZM51.3831 68.2525C51.9805 68.2525 52.5191 68.3512 52.9991 68.5485C53.4845 68.7405 53.8951 69.0205 54.2311 69.3885C54.5725 69.7512 54.8338 70.1912 55.0151 70.7085C55.1965 71.2205 55.2871 71.7965 55.2871 72.4365C55.2871 73.0765 55.1965 73.6552 55.0151 74.1725C54.8338 74.6899 54.5725 75.1299 54.2311 75.4925C53.8951 75.8552 53.4845 76.1352 52.9991 76.3325C52.5191 76.5245 51.9805 76.6205 51.3831 76.6205C50.7805 76.6205 50.2365 76.5245 49.7511 76.3325C49.2711 76.1352 48.8605 75.8552 48.5191 75.4925C48.1778 75.1299 47.9138 74.6899 47.7271 74.1725C47.5458 73.6552 47.4551 73.0765 47.4551 72.4365C47.4551 71.7965 47.5458 71.2205 47.7271 70.7085C47.9138 70.1912 48.1778 69.7512 48.5191 69.3885C48.8605 69.0205 49.2711 68.7405 49.7511 68.5485C50.2365 68.3512 50.7805 68.2525 51.3831 68.2525ZM51.3831 75.4045C52.1511 75.4045 52.7245 75.1459 53.1031 74.6285C53.4818 74.1112 53.6711 73.3832 53.6711 72.4445C53.6711 71.5059 53.4818 70.7779 53.1031 70.2605C52.7245 69.7379 52.1511 69.4765 51.3831 69.4765C50.6045 69.4765 50.0231 69.7379 49.6391 70.2605C49.2605 70.7779 49.0711 71.5059 49.0711 72.4445C49.0711 73.3832 49.2605 74.1112 49.6391 74.6285C50.0231 75.1459 50.6045 75.4045 51.3831 75.4045ZM62.2685 70.3485C62.0125 70.0125 61.7352 69.7779 61.4365 69.6445C61.1432 69.5112 60.8125 69.4445 60.4445 69.4445C59.7299 69.4445 59.1752 69.7032 58.7805 70.2205C58.3912 70.7325 58.1965 71.4819 58.1965 72.4685C58.1965 72.9859 58.2392 73.4285 58.3245 73.7965C58.4152 74.1592 58.5432 74.4579 58.7085 74.6925C58.8792 74.9219 59.0872 75.0925 59.3325 75.2045C59.5779 75.3112 59.8552 75.3645 60.1645 75.3645C60.6179 75.3645 61.0099 75.2632 61.3405 75.0605C61.6712 74.8579 61.9805 74.5725 62.2685 74.2045V70.3485ZM63.8365 64.7005V76.5085H62.8925C62.6739 76.5085 62.5379 76.4045 62.4845 76.1965L62.3485 75.2605C62.0019 75.6712 61.6072 76.0019 61.1645 76.2525C60.7272 76.4979 60.2205 76.6205 59.6445 76.6205C59.1805 76.6205 58.7592 76.5299 58.3805 76.3485C58.0072 76.1672 57.6872 75.9032 57.4205 75.5565C57.1539 75.2045 56.9485 74.7699 56.8045 74.2525C56.6605 73.7352 56.5885 73.1405 56.5885 72.4685C56.5885 71.8659 56.6685 71.3059 56.8285 70.7885C56.9885 70.2712 57.2205 69.8232 57.5245 69.4445C57.8285 69.0659 58.1965 68.7699 58.6285 68.5565C59.0605 68.3379 59.5485 68.2285 60.0925 68.2285C60.5832 68.2285 60.9992 68.3085 61.3405 68.4685C61.6872 68.6285 61.9965 68.8552 62.2685 69.1485V64.7005H63.8365ZM71.7089 69.9005C71.6609 69.9592 71.6129 70.0072 71.5649 70.0445C71.5222 70.0765 71.4582 70.0925 71.3729 70.0925C71.2876 70.0925 71.1969 70.0605 71.1009 69.9965C71.0102 69.9272 70.8929 69.8552 70.7489 69.7805C70.6102 69.7005 70.4396 69.6285 70.2369 69.5645C70.0396 69.4952 69.7942 69.4605 69.5009 69.4605C69.1169 69.4605 68.7782 69.5299 68.4849 69.6685C68.1916 69.8072 67.9462 70.0045 67.7489 70.2605C67.5569 70.5165 67.4102 70.8285 67.3089 71.1965C67.2076 71.5645 67.1569 71.9779 67.1569 72.4365C67.1569 72.9112 67.2102 73.3352 67.3169 73.7085C67.4236 74.0765 67.5756 74.3885 67.7729 74.6445C67.9702 74.8952 68.2102 75.0872 68.4929 75.2205C68.7756 75.3485 69.0902 75.4125 69.4369 75.4125C69.7729 75.4125 70.0502 75.3725 70.2689 75.2925C70.4876 75.2072 70.6689 75.1165 70.8129 75.0205C70.9569 74.9245 71.0769 74.8365 71.1729 74.7565C71.2689 74.6712 71.3676 74.6285 71.4689 74.6285C71.5969 74.6285 71.6956 74.6765 71.7649 74.7725L72.2129 75.3485C72.0262 75.5779 71.8156 75.7725 71.5809 75.9325C71.3516 76.0925 71.1062 76.2232 70.8449 76.3245C70.5836 76.4259 70.3089 76.5005 70.0209 76.5485C69.7382 76.5965 69.4502 76.6205 69.1569 76.6205C68.6502 76.6205 68.1756 76.5272 67.7329 76.3405C67.2956 76.1539 66.9142 75.8819 66.5889 75.5245C66.2689 75.1672 66.0156 74.7299 65.8289 74.2125C65.6422 73.6899 65.5489 73.0979 65.5489 72.4365C65.5489 71.8339 65.6316 71.2765 65.7969 70.7645C65.9676 70.2525 66.2156 69.8125 66.5409 69.4445C66.8716 69.0712 67.2769 68.7805 67.7569 68.5725C68.2369 68.3592 68.7862 68.2525 69.4049 68.2525C69.9862 68.2525 70.4982 68.3459 70.9409 68.5325C71.3836 68.7192 71.7782 68.9832 72.1249 69.3245L71.7089 69.9005ZM78.0371 72.9005C77.4025 72.9219 76.8638 72.9725 76.4211 73.0525C75.9785 73.1272 75.6185 73.2285 75.3411 73.3565C75.0638 73.4845 74.8638 73.6365 74.7411 73.8125C74.6185 73.9832 74.5571 74.1752 74.5571 74.3885C74.5571 74.5912 74.5891 74.7672 74.6531 74.9165C74.7225 75.0605 74.8131 75.1805 74.9251 75.2765C75.0425 75.3672 75.1785 75.4339 75.3331 75.4765C75.4878 75.5192 75.6558 75.5405 75.8371 75.5405C76.0771 75.5405 76.2958 75.5165 76.4931 75.4685C76.6958 75.4205 76.8851 75.3539 77.0611 75.2685C77.2371 75.1779 77.4051 75.0685 77.5651 74.9405C77.7251 74.8125 77.8825 74.6659 78.0371 74.5005V72.9005ZM73.4611 69.5165C73.9145 69.0845 74.4051 68.7619 74.9331 68.5485C75.4665 68.3352 76.0505 68.2285 76.6851 68.2285C77.1491 68.2285 77.5598 68.3059 77.9171 68.4605C78.2745 68.6099 78.5758 68.8205 78.8211 69.0925C79.0665 69.3645 79.2505 69.6899 79.3731 70.0685C79.5011 70.4472 79.5651 70.8659 79.5651 71.3245V76.5085H78.8691C78.7145 76.5085 78.5971 76.4845 78.5171 76.4365C78.4371 76.3832 78.3731 76.2872 78.3251 76.1485L78.1571 75.4365C77.9491 75.6285 77.7438 75.7992 77.5411 75.9485C77.3385 76.0925 77.1251 76.2179 76.9011 76.3245C76.6825 76.4259 76.4478 76.5032 76.1971 76.5565C75.9465 76.6099 75.6691 76.6365 75.3651 76.6365C75.0451 76.6365 74.7438 76.5939 74.4611 76.5085C74.1838 76.4179 73.9411 76.2819 73.7331 76.1005C73.5251 75.9192 73.3598 75.6925 73.2371 75.4205C73.1198 75.1485 73.0611 74.8312 73.0611 74.4685C73.0611 74.1485 73.1465 73.8419 73.3171 73.5485C73.4931 73.2499 73.7758 72.9832 74.1651 72.7485C74.5598 72.5139 75.0718 72.3219 75.7011 72.1725C76.3358 72.0232 77.1145 71.9379 78.0371 71.9165V71.3245C78.0371 70.7112 77.9065 70.2525 77.6451 69.9485C77.3838 69.6445 76.9998 69.4925 76.4931 69.4925C76.1518 69.4925 75.8638 69.5352 75.6291 69.6205C75.3998 69.7059 75.1998 69.8019 75.0291 69.9085C74.8638 70.0099 74.7171 70.1032 74.5891 70.1885C74.4665 70.2739 74.3385 70.3165 74.2051 70.3165C74.0985 70.3165 74.0051 70.2872 73.9251 70.2285C73.8505 70.1699 73.7891 70.1005 73.7411 70.0205L73.4611 69.5165ZM86.4455 69.7805C86.4029 69.8499 86.3575 69.9005 86.3095 69.9325C86.2615 69.9592 86.2002 69.9725 86.1255 69.9725C86.0402 69.9725 85.9442 69.9432 85.8375 69.8845C85.7362 69.8259 85.6109 69.7619 85.4615 69.6925C85.3175 69.6232 85.1469 69.5592 84.9495 69.5005C84.7522 69.4419 84.5175 69.4125 84.2455 69.4125C84.0215 69.4125 83.8162 69.4419 83.6295 69.5005C83.4482 69.5539 83.2935 69.6312 83.1655 69.7325C83.0375 69.8285 82.9389 69.9459 82.8695 70.0845C82.8002 70.2179 82.7655 70.3619 82.7655 70.5165C82.7655 70.7192 82.8242 70.8872 82.9415 71.0205C83.0642 71.1539 83.2215 71.2685 83.4135 71.3645C83.6109 71.4605 83.8322 71.5485 84.0775 71.6285C84.3282 71.7032 84.5815 71.7832 84.8375 71.8685C85.0989 71.9539 85.3522 72.0525 85.5975 72.1645C85.8482 72.2712 86.0695 72.4072 86.2615 72.5725C86.4589 72.7325 86.6162 72.9272 86.7335 73.1565C86.8562 73.3859 86.9175 73.6659 86.9175 73.9965C86.9175 74.3752 86.8482 74.7272 86.7095 75.0525C86.5762 75.3725 86.3762 75.6499 86.1095 75.8845C85.8482 76.1192 85.5229 76.3032 85.1335 76.4365C84.7442 76.5699 84.2989 76.6365 83.7975 76.6365C83.2375 76.6365 82.7202 76.5432 82.2455 76.3565C81.7709 76.1699 81.3735 75.9325 81.0535 75.6445L81.4215 75.0445C81.4642 74.9699 81.5175 74.9139 81.5815 74.8765C81.6455 74.8339 81.7309 74.8125 81.8375 74.8125C81.9389 74.8125 82.0429 74.8499 82.1495 74.9245C82.2562 74.9992 82.3842 75.0819 82.5335 75.1725C82.6829 75.2579 82.8642 75.3379 83.0775 75.4125C83.2909 75.4819 83.5575 75.5165 83.8775 75.5165C84.1442 75.5165 84.3762 75.4845 84.5735 75.4205C84.7709 75.3512 84.9335 75.2605 85.0615 75.1485C85.1949 75.0312 85.2935 74.8979 85.3575 74.7485C85.4215 74.5992 85.4535 74.4419 85.4535 74.2765C85.4535 74.0632 85.3922 73.8872 85.2695 73.7485C85.1522 73.6045 84.9949 73.4819 84.7975 73.3805C84.6055 73.2792 84.3842 73.1912 84.1335 73.1165C83.8829 73.0419 83.6269 72.9619 83.3655 72.8765C83.1042 72.7912 82.8482 72.6925 82.5975 72.5805C82.3469 72.4685 82.1229 72.3272 81.9255 72.1565C81.7335 71.9859 81.5762 71.7779 81.4535 71.5325C81.3362 71.2872 81.2775 70.9885 81.2775 70.6365C81.2775 70.3219 81.3415 70.0205 81.4695 69.7325C81.6029 69.4445 81.7922 69.1912 82.0375 68.9725C82.2882 68.7539 82.5949 68.5805 82.9575 68.4525C83.3255 68.3192 83.7442 68.2525 84.2135 68.2525C84.7522 68.2525 85.2375 68.3379 85.6695 68.5085C86.1069 68.6792 86.4802 68.9139 86.7895 69.2125L86.4455 69.7805ZM91.1506 76.6365C90.4946 76.6365 89.988 76.4525 89.6306 76.0845C89.2786 75.7165 89.1026 75.1912 89.1026 74.5085V69.6445H88.1586C88.068 69.6445 87.9906 69.6179 87.9266 69.5645C87.868 69.5059 87.8386 69.4205 87.8386 69.3085V68.6765L89.1586 68.4925L89.5106 66.0685C89.532 65.9779 89.572 65.9085 89.6306 65.8605C89.6946 65.8072 89.7746 65.7805 89.8706 65.7805H90.6626V68.5085H92.9666V69.6445H90.6626V74.4045C90.6626 74.7245 90.74 74.9645 90.8946 75.1245C91.0546 75.2792 91.2573 75.3565 91.5026 75.3565C91.6466 75.3565 91.7693 75.3379 91.8706 75.3005C91.9773 75.2632 92.068 75.2232 92.1426 75.1805C92.2173 75.1325 92.2813 75.0899 92.3346 75.0525C92.388 75.0152 92.436 74.9965 92.4786 74.9965C92.532 74.9965 92.572 75.0099 92.5986 75.0365C92.6306 75.0579 92.6626 75.0952 92.6946 75.1485L93.1586 75.9005C92.9026 76.1352 92.5986 76.3165 92.2466 76.4445C91.8946 76.5725 91.5293 76.6365 91.1506 76.6365ZM99.1955 69.7805C99.1529 69.8499 99.1075 69.9005 99.0595 69.9325C99.0115 69.9592 98.9502 69.9725 98.8755 69.9725C98.7902 69.9725 98.6942 69.9432 98.5875 69.8845C98.4862 69.8259 98.3609 69.7619 98.2115 69.6925C98.0675 69.6232 97.8969 69.5592 97.6995 69.5005C97.5022 69.4419 97.2675 69.4125 96.9955 69.4125C96.7715 69.4125 96.5662 69.4419 96.3795 69.5005C96.1982 69.5539 96.0435 69.6312 95.9155 69.7325C95.7875 69.8285 95.6889 69.9459 95.6195 70.0845C95.5502 70.2179 95.5155 70.3619 95.5155 70.5165C95.5155 70.7192 95.5742 70.8872 95.6915 71.0205C95.8142 71.1539 95.9715 71.2685 96.1635 71.3645C96.3609 71.4605 96.5822 71.5485 96.8275 71.6285C97.0782 71.7032 97.3315 71.7832 97.5875 71.8685C97.8489 71.9539 98.1022 72.0525 98.3475 72.1645C98.5982 72.2712 98.8195 72.4072 99.0115 72.5725C99.2089 72.7325 99.3662 72.9272 99.4835 73.1565C99.6062 73.3859 99.6675 73.6659 99.6675 73.9965C99.6675 74.3752 99.5982 74.7272 99.4595 75.0525C99.3262 75.3725 99.1262 75.6499 98.8595 75.8845C98.5982 76.1192 98.2729 76.3032 97.8835 76.4365C97.4942 76.5699 97.0489 76.6365 96.5475 76.6365C95.9875 76.6365 95.4702 76.5432 94.9955 76.3565C94.5209 76.1699 94.1235 75.9325 93.8035 75.6445L94.1715 75.0445C94.2142 74.9699 94.2675 74.9139 94.3315 74.8765C94.3955 74.8339 94.4809 74.8125 94.5875 74.8125C94.6889 74.8125 94.7929 74.8499 94.8995 74.9245C95.0062 74.9992 95.1342 75.0819 95.2835 75.1725C95.4329 75.2579 95.6142 75.3379 95.8275 75.4125C96.0409 75.4819 96.3075 75.5165 96.6275 75.5165C96.8942 75.5165 97.1262 75.4845 97.3235 75.4205C97.5209 75.3512 97.6835 75.2605 97.8115 75.1485C97.9449 75.0312 98.0435 74.8979 98.1075 74.7485C98.1715 74.5992 98.2035 74.4419 98.2035 74.2765C98.2035 74.0632 98.1422 73.8872 98.0195 73.7485C97.9022 73.6045 97.7449 73.4819 97.5475 73.3805C97.3555 73.2792 97.1342 73.1912 96.8835 73.1165C96.6329 73.0419 96.3769 72.9619 96.1155 72.8765C95.8542 72.7912 95.5982 72.6925 95.3475 72.5805C95.0969 72.4685 94.8729 72.3272 94.6755 72.1565C94.4835 71.9859 94.3262 71.7779 94.2035 71.5325C94.0862 71.2872 94.0275 70.9885 94.0275 70.6365C94.0275 70.3219 94.0915 70.0205 94.2195 69.7325C94.3529 69.4445 94.5422 69.1912 94.7875 68.9725C95.0382 68.7539 95.3449 68.5805 95.7075 68.4525C96.0755 68.3192 96.4942 68.2525 96.9635 68.2525C97.5022 68.2525 97.9875 68.3379 98.4195 68.5085C98.8569 68.6792 99.2302 68.9139 99.5395 69.2125L99.1955 69.7805Z" fill="white"/>
</svg>
