<svg width="152" height="152" viewBox="0 0 152 152" fill="none" xmlns="http://www.w3.org/2000/svg">
<circle cx="75.5" cy="75.5" r="69.5" fill="#F4B942"/>
<path fill-rule="evenodd" clip-rule="evenodd" d="M76.1685 35.6834C85.6112 38.5774 86.9508 51.3607 93.6855 58.5451C98.5417 63.7256 107.774 64.8539 109.859 71.6232C111.941 78.3835 105.095 84.4683 103.812 91.4224C102.214 100.088 107.042 110.245 101.473 117.102C95.7513 124.146 85.163 126.9 76.1685 125.455C67.5896 124.077 62.3177 115.942 56.185 109.825C51.1023 104.755 45.4885 99.9155 43.633 93.0015C41.832 86.2907 45.5598 79.7543 46.2606 72.8441C47.2339 63.2473 42.4682 52.2395 48.5312 44.7062C54.739 36.993 66.6698 32.7723 76.1685 35.6834Z" stroke="#323232"/>
<path fill-rule="evenodd" clip-rule="evenodd" d="M97.7378 35.6834C107.181 38.5774 108.52 51.3607 115.255 58.5451C120.111 63.7256 129.343 64.8539 131.428 71.6232C133.51 78.3835 126.664 84.4683 125.382 91.4224C123.784 100.088 128.612 110.245 123.043 117.102C117.321 124.146 106.732 126.9 97.7378 125.455C89.1589 124.077 83.887 115.942 77.7543 109.825C72.6716 104.755 67.0578 99.9155 65.2023 93.0015C63.4014 86.2907 67.1291 79.7543 67.8299 72.8441C68.8033 63.2473 64.0375 52.2395 70.1005 44.7062C76.3083 36.993 88.2392 32.7723 97.7378 35.6834Z" stroke="#999999"/>
<circle cx="76.5" cy="76.5" r="69.5" fill="black" fill-opacity="0.4"/>
<path d="M48.4379 76.9325C48.8699 76.9325 49.2486 76.8765 49.5739 76.7645C49.9046 76.6525 50.1792 76.4952 50.3979 76.2925C50.6219 76.0845 50.7899 75.8392 50.9019 75.5565C51.0139 75.2685 51.0699 74.9512 51.0699 74.6045C51.0699 73.9059 50.8512 73.3565 50.4139 72.9565C49.9819 72.5565 49.3232 72.3565 48.4379 72.3565H46.6619V76.9325H48.4379ZM48.4379 71.0205C49.1739 71.0205 49.8139 71.1059 50.3579 71.2765C50.9019 71.4472 51.3526 71.6899 51.7099 72.0045C52.0672 72.3139 52.3312 72.6899 52.5019 73.1325C52.6779 73.5752 52.7659 74.0659 52.7659 74.6045C52.7659 75.1432 52.6726 75.6392 52.4859 76.0925C52.2992 76.5405 52.0246 76.9272 51.6619 77.2525C51.2992 77.5779 50.8459 77.8312 50.3019 78.0125C49.7632 78.1885 49.1419 78.2765 48.4379 78.2765H46.6619V82.5085H44.9579V71.0205H48.4379ZM57.3831 74.2525C57.9805 74.2525 58.5191 74.3512 58.9991 74.5485C59.4845 74.7405 59.8951 75.0205 60.2311 75.3885C60.5725 75.7512 60.8338 76.1912 61.0151 76.7085C61.1965 77.2205 61.2871 77.7965 61.2871 78.4365C61.2871 79.0765 61.1965 79.6552 61.0151 80.1725C60.8338 80.6899 60.5725 81.1299 60.2311 81.4925C59.8951 81.8552 59.4845 82.1352 58.9991 82.3325C58.5191 82.5245 57.9805 82.6205 57.3831 82.6205C56.7805 82.6205 56.2365 82.5245 55.7511 82.3325C55.2711 82.1352 54.8605 81.8552 54.5191 81.4925C54.1778 81.1299 53.9138 80.6899 53.7271 80.1725C53.5458 79.6552 53.4551 79.0765 53.4551 78.4365C53.4551 77.7965 53.5458 77.2205 53.7271 76.7085C53.9138 76.1912 54.1778 75.7512 54.5191 75.3885C54.8605 75.0205 55.2711 74.7405 55.7511 74.5485C56.2365 74.3512 56.7805 74.2525 57.3831 74.2525ZM57.3831 81.4045C58.1511 81.4045 58.7245 81.1459 59.1031 80.6285C59.4818 80.1112 59.6711 79.3832 59.6711 78.4445C59.6711 77.5059 59.4818 76.7779 59.1031 76.2605C58.7245 75.7379 58.1511 75.4765 57.3831 75.4765C56.6045 75.4765 56.0231 75.7379 55.6391 76.2605C55.2605 76.7779 55.0711 77.5059 55.0711 78.4445C55.0711 79.3832 55.2605 80.1112 55.6391 80.6285C56.0231 81.1459 56.6045 81.4045 57.3831 81.4045ZM68.2685 76.3485C68.0125 76.0125 67.7352 75.7779 67.4365 75.6445C67.1432 75.5112 66.8125 75.4445 66.4445 75.4445C65.7299 75.4445 65.1752 75.7032 64.7805 76.2205C64.3912 76.7325 64.1965 77.4819 64.1965 78.4685C64.1965 78.9859 64.2392 79.4285 64.3245 79.7965C64.4152 80.1592 64.5432 80.4579 64.7085 80.6925C64.8792 80.9219 65.0872 81.0925 65.3325 81.2045C65.5779 81.3112 65.8552 81.3645 66.1645 81.3645C66.6179 81.3645 67.0099 81.2632 67.3405 81.0605C67.6712 80.8579 67.9805 80.5725 68.2685 80.2045V76.3485ZM69.8365 70.7005V82.5085H68.8925C68.6739 82.5085 68.5379 82.4045 68.4845 82.1965L68.3485 81.2605C68.0019 81.6712 67.6072 82.0019 67.1645 82.2525C66.7272 82.4979 66.2205 82.6205 65.6445 82.6205C65.1805 82.6205 64.7592 82.5299 64.3805 82.3485C64.0072 82.1672 63.6872 81.9032 63.4205 81.5565C63.1539 81.2045 62.9485 80.7699 62.8045 80.2525C62.6605 79.7352 62.5885 79.1405 62.5885 78.4685C62.5885 77.8659 62.6685 77.3059 62.8285 76.7885C62.9885 76.2712 63.2205 75.8232 63.5245 75.4445C63.8285 75.0659 64.1965 74.7699 64.6285 74.5565C65.0605 74.3379 65.5485 74.2285 66.0925 74.2285C66.5832 74.2285 66.9992 74.3085 67.3405 74.4685C67.6872 74.6285 67.9965 74.8552 68.2685 75.1485V70.7005H69.8365ZM77.7089 75.9005C77.6609 75.9592 77.6129 76.0072 77.5649 76.0445C77.5222 76.0765 77.4582 76.0925 77.3729 76.0925C77.2876 76.0925 77.1969 76.0605 77.1009 75.9965C77.0102 75.9272 76.8929 75.8552 76.7489 75.7805C76.6102 75.7005 76.4396 75.6285 76.2369 75.5645C76.0396 75.4952 75.7942 75.4605 75.5009 75.4605C75.1169 75.4605 74.7782 75.5299 74.4849 75.6685C74.1916 75.8072 73.9462 76.0045 73.7489 76.2605C73.5569 76.5165 73.4102 76.8285 73.3089 77.1965C73.2076 77.5645 73.1569 77.9779 73.1569 78.4365C73.1569 78.9112 73.2102 79.3352 73.3169 79.7085C73.4236 80.0765 73.5756 80.3885 73.7729 80.6445C73.9702 80.8952 74.2102 81.0872 74.4929 81.2205C74.7756 81.3485 75.0902 81.4125 75.4369 81.4125C75.7729 81.4125 76.0502 81.3725 76.2689 81.2925C76.4876 81.2072 76.6689 81.1165 76.8129 81.0205C76.9569 80.9245 77.0769 80.8365 77.1729 80.7565C77.2689 80.6712 77.3676 80.6285 77.4689 80.6285C77.5969 80.6285 77.6956 80.6765 77.7649 80.7725L78.2129 81.3485C78.0262 81.5779 77.8156 81.7725 77.5809 81.9325C77.3516 82.0925 77.1062 82.2232 76.8449 82.3245C76.5836 82.4259 76.3089 82.5005 76.0209 82.5485C75.7382 82.5965 75.4502 82.6205 75.1569 82.6205C74.6502 82.6205 74.1756 82.5272 73.7329 82.3405C73.2956 82.1539 72.9142 81.8819 72.5889 81.5245C72.2689 81.1672 72.0156 80.7299 71.8289 80.2125C71.6422 79.6899 71.5489 79.0979 71.5489 78.4365C71.5489 77.8339 71.6316 77.2765 71.7969 76.7645C71.9676 76.2525 72.2156 75.8125 72.5409 75.4445C72.8716 75.0712 73.2769 74.7805 73.7569 74.5725C74.2369 74.3592 74.7862 74.2525 75.4049 74.2525C75.9862 74.2525 76.4982 74.3459 76.9409 74.5325C77.3836 74.7192 77.7782 74.9832 78.1249 75.3245L77.7089 75.9005ZM84.0371 78.9005C83.4025 78.9219 82.8638 78.9725 82.4211 79.0525C81.9785 79.1272 81.6185 79.2285 81.3411 79.3565C81.0638 79.4845 80.8638 79.6365 80.7411 79.8125C80.6185 79.9832 80.5571 80.1752 80.5571 80.3885C80.5571 80.5912 80.5891 80.7672 80.6531 80.9165C80.7225 81.0605 80.8131 81.1805 80.9251 81.2765C81.0425 81.3672 81.1785 81.4339 81.3331 81.4765C81.4878 81.5192 81.6558 81.5405 81.8371 81.5405C82.0771 81.5405 82.2958 81.5165 82.4931 81.4685C82.6958 81.4205 82.8851 81.3539 83.0611 81.2685C83.2371 81.1779 83.4051 81.0685 83.5651 80.9405C83.7251 80.8125 83.8825 80.6659 84.0371 80.5005V78.9005ZM79.4611 75.5165C79.9145 75.0845 80.4051 74.7619 80.9331 74.5485C81.4665 74.3352 82.0505 74.2285 82.6851 74.2285C83.1491 74.2285 83.5598 74.3059 83.9171 74.4605C84.2745 74.6099 84.5758 74.8205 84.8211 75.0925C85.0665 75.3645 85.2505 75.6899 85.3731 76.0685C85.5011 76.4472 85.5651 76.8659 85.5651 77.3245V82.5085H84.8691C84.7145 82.5085 84.5971 82.4845 84.5171 82.4365C84.4371 82.3832 84.3731 82.2872 84.3251 82.1485L84.1571 81.4365C83.9491 81.6285 83.7438 81.7992 83.5411 81.9485C83.3385 82.0925 83.1251 82.2179 82.9011 82.3245C82.6825 82.4259 82.4478 82.5032 82.1971 82.5565C81.9465 82.6099 81.6691 82.6365 81.3651 82.6365C81.0451 82.6365 80.7438 82.5939 80.4611 82.5085C80.1838 82.4179 79.9411 82.2819 79.7331 82.1005C79.5251 81.9192 79.3598 81.6925 79.2371 81.4205C79.1198 81.1485 79.0611 80.8312 79.0611 80.4685C79.0611 80.1485 79.1465 79.8419 79.3171 79.5485C79.4931 79.2499 79.7758 78.9832 80.1651 78.7485C80.5598 78.5139 81.0718 78.3219 81.7011 78.1725C82.3358 78.0232 83.1145 77.9379 84.0371 77.9165V77.3245C84.0371 76.7112 83.9065 76.2525 83.6451 75.9485C83.3838 75.6445 82.9998 75.4925 82.4931 75.4925C82.1518 75.4925 81.8638 75.5352 81.6291 75.6205C81.3998 75.7059 81.1998 75.8019 81.0291 75.9085C80.8638 76.0099 80.7171 76.1032 80.5891 76.1885C80.4665 76.2739 80.3385 76.3165 80.2051 76.3165C80.0985 76.3165 80.0051 76.2872 79.9251 76.2285C79.8505 76.1699 79.7891 76.1005 79.7411 76.0205L79.4611 75.5165ZM92.4455 75.7805C92.4029 75.8499 92.3575 75.9005 92.3095 75.9325C92.2615 75.9592 92.2002 75.9725 92.1255 75.9725C92.0402 75.9725 91.9442 75.9432 91.8375 75.8845C91.7362 75.8259 91.6109 75.7619 91.4615 75.6925C91.3175 75.6232 91.1469 75.5592 90.9495 75.5005C90.7522 75.4419 90.5175 75.4125 90.2455 75.4125C90.0215 75.4125 89.8162 75.4419 89.6295 75.5005C89.4482 75.5539 89.2935 75.6312 89.1655 75.7325C89.0375 75.8285 88.9389 75.9459 88.8695 76.0845C88.8002 76.2179 88.7655 76.3619 88.7655 76.5165C88.7655 76.7192 88.8242 76.8872 88.9415 77.0205C89.0642 77.1539 89.2215 77.2685 89.4135 77.3645C89.6109 77.4605 89.8322 77.5485 90.0775 77.6285C90.3282 77.7032 90.5815 77.7832 90.8375 77.8685C91.0989 77.9539 91.3522 78.0525 91.5975 78.1645C91.8482 78.2712 92.0695 78.4072 92.2615 78.5725C92.4589 78.7325 92.6162 78.9272 92.7335 79.1565C92.8562 79.3859 92.9175 79.6659 92.9175 79.9965C92.9175 80.3752 92.8482 80.7272 92.7095 81.0525C92.5762 81.3725 92.3762 81.6499 92.1095 81.8845C91.8482 82.1192 91.5229 82.3032 91.1335 82.4365C90.7442 82.5699 90.2989 82.6365 89.7975 82.6365C89.2375 82.6365 88.7202 82.5432 88.2455 82.3565C87.7709 82.1699 87.3735 81.9325 87.0535 81.6445L87.4215 81.0445C87.4642 80.9699 87.5175 80.9139 87.5815 80.8765C87.6455 80.8339 87.7309 80.8125 87.8375 80.8125C87.9389 80.8125 88.0429 80.8499 88.1495 80.9245C88.2562 80.9992 88.3842 81.0819 88.5335 81.1725C88.6829 81.2579 88.8642 81.3379 89.0775 81.4125C89.2909 81.4819 89.5575 81.5165 89.8775 81.5165C90.1442 81.5165 90.3762 81.4845 90.5735 81.4205C90.7709 81.3512 90.9335 81.2605 91.0615 81.1485C91.1949 81.0312 91.2935 80.8979 91.3575 80.7485C91.4215 80.5992 91.4535 80.4419 91.4535 80.2765C91.4535 80.0632 91.3922 79.8872 91.2695 79.7485C91.1522 79.6045 90.9949 79.4819 90.7975 79.3805C90.6055 79.2792 90.3842 79.1912 90.1335 79.1165C89.8829 79.0419 89.6269 78.9619 89.3655 78.8765C89.1042 78.7912 88.8482 78.6925 88.5975 78.5805C88.3469 78.4685 88.1229 78.3272 87.9255 78.1565C87.7335 77.9859 87.5762 77.7779 87.4535 77.5325C87.3362 77.2872 87.2775 76.9885 87.2775 76.6365C87.2775 76.3219 87.3415 76.0205 87.4695 75.7325C87.6029 75.4445 87.7922 75.1912 88.0375 74.9725C88.2882 74.7539 88.5949 74.5805 88.9575 74.4525C89.3255 74.3192 89.7442 74.2525 90.2135 74.2525C90.7522 74.2525 91.2375 74.3379 91.6695 74.5085C92.1069 74.6792 92.4802 74.9139 92.7895 75.2125L92.4455 75.7805ZM97.1506 82.6365C96.4946 82.6365 95.988 82.4525 95.6306 82.0845C95.2786 81.7165 95.1026 81.1912 95.1026 80.5085V75.6445H94.1586C94.068 75.6445 93.9906 75.6179 93.9266 75.5645C93.868 75.5059 93.8386 75.4205 93.8386 75.3085V74.6765L95.1586 74.4925L95.5106 72.0685C95.532 71.9779 95.572 71.9085 95.6306 71.8605C95.6946 71.8072 95.7746 71.7805 95.8706 71.7805H96.6626V74.5085H98.9666V75.6445H96.6626V80.4045C96.6626 80.7245 96.74 80.9645 96.8946 81.1245C97.0546 81.2792 97.2573 81.3565 97.5026 81.3565C97.6466 81.3565 97.7693 81.3379 97.8706 81.3005C97.9773 81.2632 98.068 81.2232 98.1426 81.1805C98.2173 81.1325 98.2813 81.0899 98.3346 81.0525C98.388 81.0152 98.436 80.9965 98.4786 80.9965C98.532 80.9965 98.572 81.0099 98.5986 81.0365C98.6306 81.0579 98.6626 81.0952 98.6946 81.1485L99.1586 81.9005C98.9026 82.1352 98.5986 82.3165 98.2466 82.4445C97.8946 82.5725 97.5293 82.6365 97.1506 82.6365ZM105.196 75.7805C105.153 75.8499 105.108 75.9005 105.06 75.9325C105.012 75.9592 104.95 75.9725 104.876 75.9725C104.79 75.9725 104.694 75.9432 104.588 75.8845C104.486 75.8259 104.361 75.7619 104.212 75.6925C104.068 75.6232 103.897 75.5592 103.7 75.5005C103.502 75.4419 103.268 75.4125 102.996 75.4125C102.772 75.4125 102.566 75.4419 102.38 75.5005C102.198 75.5539 102.044 75.6312 101.916 75.7325C101.788 75.8285 101.689 75.9459 101.62 76.0845C101.55 76.2179 101.516 76.3619 101.516 76.5165C101.516 76.7192 101.574 76.8872 101.692 77.0205C101.814 77.1539 101.972 77.2685 102.164 77.3645C102.361 77.4605 102.582 77.5485 102.828 77.6285C103.078 77.7032 103.332 77.7832 103.588 77.8685C103.849 77.9539 104.102 78.0525 104.348 78.1645C104.598 78.2712 104.82 78.4072 105.012 78.5725C105.209 78.7325 105.366 78.9272 105.484 79.1565C105.606 79.3859 105.668 79.6659 105.668 79.9965C105.668 80.3752 105.598 80.7272 105.46 81.0525C105.326 81.3725 105.126 81.6499 104.86 81.8845C104.598 82.1192 104.273 82.3032 103.884 82.4365C103.494 82.5699 103.049 82.6365 102.548 82.6365C101.988 82.6365 101.47 82.5432 100.996 82.3565C100.521 82.1699 100.124 81.9325 99.8035 81.6445L100.172 81.0445C100.214 80.9699 100.268 80.9139 100.332 80.8765C100.396 80.8339 100.481 80.8125 100.588 80.8125C100.689 80.8125 100.793 80.8499 100.9 80.9245C101.006 80.9992 101.134 81.0819 101.284 81.1725C101.433 81.2579 101.614 81.3379 101.828 81.4125C102.041 81.4819 102.308 81.5165 102.628 81.5165C102.894 81.5165 103.126 81.4845 103.324 81.4205C103.521 81.3512 103.684 81.2605 103.812 81.1485C103.945 81.0312 104.044 80.8979 104.108 80.7485C104.172 80.5992 104.204 80.4419 104.204 80.2765C104.204 80.0632 104.142 79.8872 104.02 79.7485C103.902 79.6045 103.745 79.4819 103.548 79.3805C103.356 79.2792 103.134 79.1912 102.884 79.1165C102.633 79.0419 102.377 78.9619 102.116 78.8765C101.854 78.7912 101.598 78.6925 101.348 78.5805C101.097 78.4685 100.873 78.3272 100.676 78.1565C100.484 77.9859 100.326 77.7779 100.204 77.5325C100.086 77.2872 100.028 76.9885 100.028 76.6365C100.028 76.3219 100.092 76.0205 100.22 75.7325C100.353 75.4445 100.542 75.1912 100.788 74.9725C101.038 74.7539 101.345 74.5805 101.708 74.4525C102.076 74.3192 102.494 74.2525 102.964 74.2525C103.502 74.2525 103.988 74.3379 104.42 74.5085C104.857 74.6792 105.23 74.9139 105.54 75.2125L105.196 75.7805Z" fill="white"/>
<circle cx="76" cy="76" r="73.5" stroke="#4059AD" stroke-width="5"/>
<circle cx="103.5" cy="34.5" r="13.5" fill="#4059AD"/>
<path d="M107.247 38.52C107.418 38.52 107.551 38.5707 107.647 38.672C107.743 38.768 107.791 38.896 107.791 39.056V40H100.079V39.464C100.079 39.3573 100.101 39.2453 100.143 39.128C100.186 39.0053 100.258 38.896 100.359 38.8L103.991 35.16C104.295 34.856 104.57 34.5627 104.815 34.28C105.061 33.9973 105.269 33.7173 105.439 33.44C105.61 33.1573 105.741 32.8693 105.831 32.576C105.927 32.2827 105.975 31.9733 105.975 31.648C105.975 31.328 105.925 31.048 105.823 30.808C105.722 30.5627 105.583 30.36 105.407 30.2C105.231 30.04 105.023 29.92 104.783 29.84C104.543 29.76 104.285 29.72 104.007 29.72C103.73 29.72 103.474 29.76 103.239 29.84C103.01 29.92 102.805 30.032 102.623 30.176C102.442 30.32 102.29 30.4907 102.167 30.688C102.045 30.8853 101.957 31.0987 101.903 31.328C101.829 31.5307 101.733 31.6667 101.615 31.736C101.503 31.8053 101.338 31.8213 101.119 31.784L100.303 31.64C100.378 31.1067 100.525 30.6373 100.743 30.232C100.962 29.8267 101.237 29.488 101.567 29.216C101.898 28.9387 102.277 28.7307 102.703 28.592C103.135 28.4533 103.599 28.384 104.095 28.384C104.597 28.384 105.058 28.4587 105.479 28.608C105.906 28.752 106.274 28.9627 106.583 29.24C106.893 29.5173 107.135 29.856 107.311 30.256C107.487 30.6507 107.575 31.0987 107.575 31.6C107.575 32.0267 107.511 32.424 107.383 32.792C107.261 33.1547 107.09 33.5013 106.871 33.832C106.658 34.1627 106.407 34.4853 106.119 34.8C105.837 35.1093 105.535 35.424 105.215 35.744L102.303 38.72C102.527 38.6613 102.751 38.6133 102.975 38.576C103.205 38.5387 103.421 38.52 103.623 38.52H107.247Z" fill="white"/>
</svg>
