<svg width="42" height="42" viewBox="0 0 42 42" fill="none" xmlns="http://www.w3.org/2000/svg">
<circle cx="21" cy="21" r="20.5" fill="white" stroke="#EFF2F1"/>
<g clip-path="url(#clip0_120_5)">
<path d="M35 13.6712C33.989 14.117 32.9165 14.4096 31.8184 14.5393C32.9622 13.857 33.8405 12.7766 34.254 11.4893C33.1667 12.1315 31.9771 12.5839 30.7365 12.8271C29.726 11.7557 28.2865 11.0862 26.6932 11.0862C23.6339 11.0862 21.1536 13.5545 21.1536 16.5989C21.1536 17.031 21.2027 17.4517 21.2971 17.8553C16.6934 17.6253 12.6117 15.4306 9.87956 12.0953C9.40284 12.9095 9.12968 13.8566 9.12968 14.8668C9.12968 16.7794 10.1077 18.4667 11.594 19.4554C10.7143 19.428 9.85398 19.1915 9.08485 18.7658C9.08454 18.7889 9.08454 18.812 9.08454 18.8352C9.08454 21.5062 10.9939 23.7344 13.5279 24.2408C12.7122 24.4616 11.8566 24.4939 11.0264 24.3353C11.7313 26.5255 13.7771 28.1192 16.2009 28.1638C14.3051 29.6424 11.9166 30.5238 9.32142 30.5238C8.87423 30.5238 8.43337 30.4976 8 30.4467C10.4514 32.0109 13.3631 32.9235 16.4913 32.9235C26.6803 32.9235 32.2519 24.5232 32.2519 17.2382C32.2519 16.9991 32.2466 16.7614 32.2359 16.525C33.3203 15.7448 34.2564 14.7784 35 13.6712Z" fill="#55ACEE"/>
</g>
<defs>
<clipPath id="clip0_120_5">
<rect width="27" height="21.9375" fill="white" transform="translate(8 11)"/>
</clipPath>
</defs>
</svg>
