<svg width="27" height="22" viewBox="0 0 27 22" fill="none" xmlns="http://www.w3.org/2000/svg">
<g clip-path="url(#clip0_38_3966)">
<path d="M27 2.67124C25.989 3.11699 24.9165 3.40959 23.8184 3.53929C24.9622 2.85702 25.8405 1.77663 26.254 0.489349C25.1667 1.1315 23.9771 1.58394 22.7365 1.82712C21.726 0.755748 20.2865 0.0861816 18.6932 0.0861816C15.6339 0.0861816 13.1536 2.55452 13.1536 5.5989C13.1536 6.03103 13.2027 6.45173 13.2971 6.85532C8.69337 6.62534 4.61173 4.43065 1.87956 1.09531C1.40284 1.90951 1.12968 2.8566 1.12968 3.86678C1.12968 5.77944 2.10769 7.46673 3.59395 8.45539C2.71429 8.42797 1.85398 8.19152 1.08485 7.76578C1.08454 7.78887 1.08454 7.81196 1.08454 7.83516C1.08454 10.5062 2.99394 12.7344 5.52793 13.2408C4.71222 13.4616 3.8566 13.4939 3.02643 13.3353C3.73127 15.5255 5.77705 17.1192 8.20093 17.1638C6.30513 18.6424 3.91658 19.5238 1.32142 19.5238C0.874231 19.5238 0.433371 19.4976 0 19.4467C2.45141 21.0109 5.36309 21.9235 8.49129 21.9235C18.6803 21.9235 24.2519 13.5232 24.2519 6.23823C24.2519 5.99912 24.2466 5.76138 24.2359 5.525C25.3203 4.74479 26.2564 3.77841 27 2.67124Z" fill="#55ACEE"/>
</g>
<defs>
<clipPath id="clip0_38_3966">
<rect width="27" height="21.9375" fill="white"/>
</clipPath>
</defs>
</svg>
