<svg width="101" height="111" viewBox="0 0 101 111" fill="none" xmlns="http://www.w3.org/2000/svg">
<path d="M3.74034 109.999C3.94305 110.186 4.25939 110.174 4.44691 109.971L7.50265 106.668C7.69016 106.465 7.67784 106.149 7.47513 105.961C7.27241 105.774 6.95607 105.786 6.76856 105.989L4.05235 108.925L1.11599 106.209C0.913273 106.022 0.596931 106.034 0.409415 106.237C0.2219 106.439 0.234221 106.756 0.436934 106.943L3.74034 109.999ZM59.2568 25.2773L59.5728 25.6648L59.2568 25.2773ZM89.4745 4.38929L89.7583 4.80095L89.7583 4.80095L89.4745 4.38929ZM99.5518 1.49964C99.8278 1.48889 100.043 1.25649 100.032 0.98056C100.021 0.704627 99.7889 0.48965 99.5129 0.500397L99.5518 1.49964ZM4.54407 106.739C4.548 106.463 4.32734 106.236 4.05123 106.232C3.77512 106.228 3.5481 106.449 3.54417 106.725L4.54407 106.739ZM3.933 100.889C3.90045 101.164 4.09635 101.412 4.37057 101.445C4.64479 101.477 4.89347 101.282 4.92603 101.007L3.933 100.889ZM5.88641 95.3416C5.94573 95.0719 5.77519 94.8052 5.50549 94.7459C5.2358 94.6866 4.96908 94.8571 4.90975 95.1268L5.88641 95.3416ZM6.42553 89.4859C6.34205 89.7491 6.48776 90.0302 6.75098 90.1136C7.0142 90.1971 7.29526 90.0514 7.37874 89.7882L6.42553 89.4859ZM9.34566 84.3792C9.45037 84.1236 9.32812 83.8316 9.0726 83.7269C8.81708 83.6222 8.52505 83.7445 8.42034 84L9.34566 84.3792ZM10.8316 78.6875C10.7086 78.9348 10.8092 79.2349 11.0565 79.3579C11.3037 79.481 11.6038 79.3803 11.7269 79.1331L10.8316 78.6875ZM14.4646 74.0575C14.6033 73.8187 14.5221 73.5127 14.2833 73.374C14.0445 73.2353 13.7385 73.3164 13.5998 73.5552L14.4646 74.0575ZM16.6704 68.6035C16.5184 68.8341 16.5822 69.1442 16.8127 69.2961C17.0433 69.4481 17.3534 69.3844 17.5054 69.1538L16.6704 68.6035ZM20.803 64.4169C20.9662 64.1942 20.918 63.8813 20.6953 63.7181C20.4725 63.5548 20.1597 63.6031 19.9964 63.8258L20.803 64.4169ZM23.5407 59.2092C23.3679 59.4246 23.4025 59.7393 23.6178 59.9121C23.8332 60.0849 24.1479 60.0504 24.3207 59.835L23.5407 59.2092ZM28.0258 55.398C28.2068 55.1894 28.1844 54.8736 27.9758 54.6926C27.7672 54.5117 27.4514 54.5341 27.2704 54.7427L28.0258 55.398ZM31.1564 50.4162C30.9685 50.6186 30.9802 50.935 31.1825 51.1229C31.3849 51.3108 31.7013 51.299 31.8892 51.0967L31.1564 50.4162ZM35.8886 46.9188C36.0824 46.7221 36.0801 46.4056 35.8835 46.2117C35.6868 46.0179 35.3702 46.0202 35.1764 46.2168L35.8886 46.9188ZM39.3116 42.1323C39.1126 42.3238 39.1066 42.6404 39.2981 42.8393C39.4897 43.0383 39.8062 43.0443 40.0051 42.8528L39.3116 42.1323ZM44.2211 38.8889C44.4244 38.702 44.4377 38.3857 44.2509 38.1824C44.064 37.9791 43.7477 37.9657 43.5444 38.1526L44.2211 38.8889ZM47.8624 34.2651C47.6553 34.4479 47.6356 34.7638 47.8184 34.9709C48.0011 35.1779 48.3171 35.1976 48.5241 35.0149L47.8624 34.2651ZM52.8999 31.2221C53.1101 31.043 53.1353 30.7274 52.9562 30.5172C52.7772 30.307 52.4616 30.2818 52.2514 30.4609L52.8999 31.2221ZM56.6988 26.7305C56.4859 26.9064 56.456 27.2216 56.6319 27.4344C56.8078 27.6473 57.123 27.6772 57.3359 27.5013L56.6988 26.7305ZM61.9634 23.7762C62.1824 23.6081 62.2237 23.2942 62.0556 23.0751C61.8875 22.8561 61.5736 22.8148 61.3545 22.9829L61.9634 23.7762ZM66.3046 19.3453C66.0792 19.505 66.026 19.817 66.1857 20.0424C66.3453 20.2677 66.6574 20.3209 66.8827 20.1612L66.3046 19.3453ZM71.9132 16.6858C72.142 16.531 72.2019 16.2202 72.0472 15.9915C71.8925 15.7628 71.5816 15.7028 71.3529 15.8575L71.9132 16.6858ZM76.4519 12.4535C76.2215 12.6058 76.1582 12.916 76.3105 13.1464C76.4627 13.3767 76.7729 13.4401 77.0033 13.2878L76.4519 12.4535ZM82.1176 9.91834C82.3482 9.7664 82.412 9.4563 82.26 9.22572C82.1081 8.99514 81.798 8.93139 81.5674 9.08334L82.1176 9.91834ZM86.6645 5.69683C86.4354 5.85103 86.3747 6.16174 86.5289 6.39082C86.6831 6.6199 86.9938 6.68061 87.2229 6.52641L86.6645 5.69683ZM92.0552 3.68056C92.3107 3.57592 92.4331 3.28393 92.3284 3.02838C92.2238 2.77283 91.9318 2.6505 91.6762 2.75515L92.0552 3.68056ZM96.7869 1.02077C96.5203 1.09263 96.3624 1.36704 96.4343 1.63366C96.5061 1.90029 96.7805 2.05817 97.0472 1.98631L96.7869 1.02077ZM4.57948 109.612C4.54204 108.651 4.53051 107.693 4.54407 106.739L3.54417 106.725C3.53036 107.697 3.54211 108.672 3.58024 109.651L4.57948 109.612ZM4.92603 101.007C5.15202 99.1036 5.47437 97.2149 5.88641 95.3416L4.90975 95.1268C4.49092 97.031 4.163 98.952 3.933 100.889L4.92603 101.007ZM7.37874 89.7882C7.95553 87.9695 8.6133 86.1663 9.34566 84.3792L8.42034 84C7.67816 85.8111 7.01096 87.6399 6.42553 89.4859L7.37874 89.7882ZM11.7269 79.1331C12.5768 77.4252 13.4914 75.7332 14.4646 74.0575L13.5998 73.5552C12.6165 75.2485 11.6917 76.9594 10.8316 78.6875L11.7269 79.1331ZM17.5054 69.1538C18.5567 67.5587 19.6578 65.9796 20.803 64.4169L19.9964 63.8258C18.842 65.401 17.7314 66.9937 16.6704 68.6035L17.5054 69.1538ZM24.3207 59.835C25.5205 58.3395 26.7573 56.8604 28.0258 55.398L27.2704 54.7427C25.994 56.2142 24.749 57.7032 23.5407 59.2092L24.3207 59.835ZM31.8892 51.0967C33.198 49.6871 34.5328 48.2943 35.8886 46.9188L35.1764 46.2168C33.814 47.599 32.4724 48.999 31.1564 50.4162L31.8892 51.0967ZM40.0051 42.8528C41.3961 41.5137 42.8031 40.1922 44.2211 38.8889L43.5444 38.1526C42.1211 39.4608 40.7085 40.7876 39.3116 42.1323L40.0051 42.8528ZM48.5241 35.0149C49.9783 33.7314 51.4386 32.467 52.8999 31.2221L52.2514 30.4609C50.786 31.7093 49.3213 32.9775 47.8624 34.2651L48.5241 35.0149ZM57.3359 27.5013C58.0829 26.8839 58.8287 26.2717 59.5728 25.6648L58.9408 24.8899C58.1951 25.498 57.4475 26.1116 56.6988 26.7305L57.3359 27.5013ZM59.5728 25.6648C60.3364 25.042 61.1352 24.4119 61.9634 23.7762L61.3545 22.9829C60.5196 23.6238 59.713 24.26 58.9408 24.8899L59.5728 25.6648ZM66.8827 20.1612C68.5131 19.006 70.2008 17.8443 71.9132 16.6858L71.3529 15.8575C69.6362 17.0189 67.9423 18.1848 66.3046 19.3453L66.8827 20.1612ZM77.0033 13.2878C78.7274 12.1482 80.4419 11.0226 82.1176 9.91834L81.5674 9.08334C79.8938 10.1862 78.1765 11.3136 76.4519 12.4535L77.0033 13.2878ZM87.2229 6.52641C88.0932 5.94058 88.9403 5.36485 89.7583 4.80095L89.1907 3.97763C88.3764 4.53899 87.5325 5.1126 86.6645 5.69683L87.2229 6.52641ZM89.7583 4.80095C90.1799 4.51031 91.0059 4.11024 92.0552 3.68056L91.6762 2.75515C90.6244 3.18588 89.7093 3.62015 89.1907 3.97763L89.7583 4.80095ZM97.0472 1.98631C98.112 1.6993 99.0031 1.52101 99.5518 1.49964L99.5129 0.500397C98.8434 0.526471 97.8592 0.731741 96.7869 1.02077L97.0472 1.98631Z" fill="#97D8C4"/>
</svg>
