<svg width="138" height="140" viewBox="0 0 138 140" fill="none" xmlns="http://www.w3.org/2000/svg">
<ellipse cx="68.905" cy="69.601" rx="68.905" ry="69.601" fill="#97D8C4"/>
<path fill-rule="evenodd" clip-rule="evenodd" d="M68.3941 41.3436C74.8912 38.305 82.1105 36.4424 89.2066 37.5135C97.8032 38.811 107.539 40.9544 112.581 48.013C117.617 55.0642 115.264 64.7876 114.86 73.4327C114.472 81.7388 115.675 91.1879 110.269 97.5225C104.875 103.843 95.1734 103.522 87.1848 105.862C80.9384 107.692 74.6529 111.576 68.3941 109.789C62.2537 108.036 60.1461 100.341 54.9383 96.6552C50.3977 93.442 44.8064 92.6315 40.0558 89.7352C31.8422 84.7276 19.0938 82.7627 16.8482 73.4327C14.807 64.9518 23.1881 55.9262 30.9472 51.8902C38.6208 47.8986 48.1264 55.176 56.4563 52.83C61.8718 51.3048 63.2997 43.7261 68.3941 41.3436Z" stroke="#F4B942"/>
<path fill-rule="evenodd" clip-rule="evenodd" d="M66.7327 33.8554C74.4029 30.2436 82.9257 28.0295 91.3031 29.3027C101.452 30.845 112.946 33.3929 118.897 41.7832C124.843 50.1649 122.065 61.7229 121.588 71.9991C121.13 81.8724 122.55 93.1044 116.168 100.634C109.8 108.147 98.3473 107.766 88.9162 110.548C81.542 112.723 74.1216 117.339 66.7327 115.215C59.4837 113.131 56.9955 103.984 50.8475 99.6033C45.487 95.7838 38.8861 94.8204 33.2778 91.3776C23.5813 85.4252 8.53098 83.0895 5.87997 71.9991C3.47021 61.918 13.3645 51.1895 22.5246 46.392C31.5838 41.6473 42.8056 50.2978 52.6396 47.5091C59.0328 45.6961 60.7186 36.6875 66.7327 33.8554Z" stroke="#4059AD"/>
<ellipse cx="68.905" cy="69.5941" rx="68.905" ry="69.5941" fill="black" fill-opacity="0.4"/>
<path d="M48.9959 72.6001L47.2919 68.1441C47.1693 67.8401 47.0466 67.4561 46.9239 66.9921C46.8653 67.2215 46.8039 67.4348 46.7399 67.6321C46.6813 67.8295 46.6226 68.0055 46.5639 68.1601L44.8679 72.6001H48.9959ZM52.3639 76.8801H51.0519C50.9026 76.8801 50.7799 76.8428 50.6839 76.7681C50.5879 76.6935 50.5186 76.5975 50.4759 76.4801L49.4599 73.8161H44.3959L43.3799 76.4801C43.3426 76.5815 43.2733 76.6748 43.1719 76.7601C43.0706 76.8401 42.9479 76.8801 42.8039 76.8801H41.4919L46.0679 65.3921H47.7879L52.3639 76.8801ZM58.5463 70.7201C58.2903 70.3841 58.013 70.1495 57.7143 70.0161C57.421 69.8828 57.0903 69.8161 56.7223 69.8161C56.0077 69.8161 55.453 70.0748 55.0583 70.5921C54.669 71.1041 54.4743 71.8535 54.4743 72.8401C54.4743 73.3575 54.517 73.8001 54.6023 74.1681C54.693 74.5308 54.821 74.8295 54.9863 75.0641C55.157 75.2935 55.365 75.4641 55.6103 75.5761C55.8557 75.6828 56.133 75.7361 56.4423 75.7361C56.8957 75.7361 57.2877 75.6348 57.6183 75.4321C57.949 75.2295 58.2583 74.9441 58.5463 74.5761V70.7201ZM60.1143 65.0721V76.8801H59.1703C58.9517 76.8801 58.8157 76.7761 58.7623 76.5681L58.6263 75.6321C58.2797 76.0428 57.885 76.3735 57.4423 76.6241C57.005 76.8695 56.4983 76.9921 55.9223 76.9921C55.4583 76.9921 55.037 76.9015 54.6583 76.7201C54.285 76.5388 53.965 76.2748 53.6983 75.9281C53.4317 75.5761 53.2263 75.1415 53.0823 74.6241C52.9383 74.1068 52.8663 73.5121 52.8663 72.8401C52.8663 72.2375 52.9463 71.6775 53.1063 71.1601C53.2663 70.6428 53.4983 70.1948 53.8023 69.8161C54.1063 69.4375 54.4743 69.1415 54.9063 68.9281C55.3383 68.7095 55.8263 68.6001 56.3703 68.6001C56.861 68.6001 57.277 68.6801 57.6183 68.8401C57.965 69.0001 58.2743 69.2268 58.5463 69.5201V65.0721H60.1143ZM69.3467 68.7521L66.0507 76.8801H64.6427L61.3467 68.7521H62.6347C62.7574 68.7521 62.8587 68.7815 62.9387 68.8401C63.0187 68.8988 63.072 68.9735 63.0987 69.0641L65.0427 74.0561C65.112 74.2641 65.1707 74.4721 65.2187 74.6801C65.272 74.8828 65.32 75.0855 65.3627 75.2881C65.4054 75.0855 65.4534 74.8828 65.5067 74.6801C65.56 74.4775 65.624 74.2695 65.6987 74.0561L67.6667 69.0641C67.6987 68.9735 67.7547 68.8988 67.8347 68.8401C67.9147 68.7815 68.0107 68.7521 68.1227 68.7521H69.3467ZM75.7372 71.9121C75.7372 71.6028 75.6919 71.3175 75.6012 71.0561C75.5159 70.7948 75.3879 70.5681 75.2172 70.3761C75.0465 70.1841 74.8385 70.0348 74.5932 69.9281C74.3479 69.8215 74.0652 69.7681 73.7452 69.7681C73.0892 69.7681 72.5719 69.9575 72.1932 70.3361C71.8199 70.7148 71.5825 71.2401 71.4812 71.9121H75.7372ZM77.0252 75.7201C76.8332 75.9441 76.6119 76.1388 76.3612 76.3041C76.1105 76.4641 75.8439 76.5948 75.5612 76.6961C75.2785 76.7975 74.9852 76.8721 74.6812 76.9201C74.3825 76.9681 74.0865 76.9921 73.7932 76.9921C73.2332 76.9921 72.7132 76.8988 72.2332 76.7121C71.7585 76.5201 71.3452 76.2428 70.9932 75.8801C70.6465 75.5121 70.3745 75.0588 70.1772 74.5201C69.9852 73.9761 69.8892 73.3521 69.8892 72.6481C69.8892 72.0828 69.9772 71.5575 70.1532 71.0721C70.3292 70.5815 70.5799 70.1548 70.9052 69.7921C71.2359 69.4295 71.6385 69.1441 72.1132 68.9361C72.5879 68.7281 73.1212 68.6241 73.7132 68.6241C74.2092 68.6241 74.6652 68.7068 75.0812 68.8721C75.5025 69.0321 75.8652 69.2668 76.1692 69.5761C76.4732 69.8855 76.7105 70.2668 76.8812 70.7201C77.0572 71.1735 77.1452 71.6908 77.1452 72.2721C77.1452 72.5121 77.1185 72.6748 77.0652 72.7601C77.0119 72.8401 76.9132 72.8801 76.7692 72.8801H71.4412C71.4572 73.3655 71.5265 73.7895 71.6492 74.1521C71.7719 74.5095 71.9399 74.8081 72.1532 75.0481C72.3719 75.2881 72.6305 75.4668 72.9292 75.5841C73.2279 75.7015 73.5612 75.7601 73.9292 75.7601C74.2759 75.7601 74.5745 75.7201 74.8252 75.6401C75.0812 75.5601 75.2999 75.4748 75.4812 75.3841C75.6679 75.2881 75.8225 75.2001 75.9452 75.1201C76.0732 75.0401 76.1852 75.0001 76.2812 75.0001C76.4092 75.0001 76.5079 75.0481 76.5772 75.1441L77.0252 75.7201ZM80.2939 70.3121C80.5553 69.7788 80.8699 69.3601 81.2379 69.0561C81.6059 68.7521 82.0486 68.6001 82.5659 68.6001C82.7419 68.6001 82.9073 68.6215 83.0619 68.6641C83.2219 68.7015 83.3606 68.7601 83.4779 68.8401L83.3739 70.0161C83.3366 70.1601 83.2486 70.2321 83.1099 70.2321C83.0353 70.2321 82.9233 70.2188 82.7739 70.1921C82.6246 70.1601 82.4646 70.1441 82.2939 70.1441C82.0433 70.1441 81.8219 70.1815 81.6299 70.2561C81.4379 70.3255 81.2646 70.4321 81.1099 70.5761C80.9606 70.7148 80.8273 70.8881 80.7099 71.0961C80.5926 71.2988 80.4833 71.5308 80.3819 71.7921V76.8801H78.8219V68.7521H79.7179C79.8886 68.7521 80.0033 68.7841 80.0619 68.8481C80.1259 68.9068 80.1713 69.0135 80.1979 69.1681L80.2939 70.3121ZM87.2253 77.0081C86.5693 77.0081 86.0627 76.8241 85.7053 76.4561C85.3533 76.0881 85.1773 75.5628 85.1773 74.8801V70.0161H84.2333C84.1427 70.0161 84.0653 69.9895 84.0013 69.9361C83.9427 69.8775 83.9133 69.7921 83.9133 69.6801V69.0481L85.2333 68.8641L85.5853 66.4401C85.6067 66.3495 85.6467 66.2801 85.7053 66.2321C85.7693 66.1788 85.8493 66.1521 85.9453 66.1521H86.7373V68.8801H89.0413V70.0161H86.7373V74.7761C86.7373 75.0961 86.8147 75.3361 86.9693 75.4961C87.1293 75.6508 87.332 75.7281 87.5773 75.7281C87.7213 75.7281 87.844 75.7095 87.9453 75.6721C88.052 75.6348 88.1427 75.5948 88.2173 75.5521C88.292 75.5041 88.356 75.4615 88.4093 75.4241C88.4627 75.3868 88.5107 75.3681 88.5533 75.3681C88.6067 75.3681 88.6467 75.3815 88.6733 75.4081C88.7053 75.4295 88.7373 75.4668 88.7693 75.5201L89.2333 76.2721C88.9773 76.5068 88.6733 76.6881 88.3213 76.8161C87.9693 76.9441 87.604 77.0081 87.2253 77.0081ZM95.2702 70.1521C95.2275 70.2215 95.1822 70.2721 95.1342 70.3041C95.0862 70.3308 95.0249 70.3441 94.9502 70.3441C94.8649 70.3441 94.7689 70.3148 94.6622 70.2561C94.5609 70.1975 94.4355 70.1335 94.2862 70.0641C94.1422 69.9948 93.9715 69.9308 93.7742 69.8721C93.5769 69.8135 93.3422 69.7841 93.0702 69.7841C92.8462 69.7841 92.6409 69.8135 92.4542 69.8721C92.2729 69.9255 92.1182 70.0028 91.9902 70.1041C91.8622 70.2001 91.7635 70.3175 91.6942 70.4561C91.6249 70.5895 91.5902 70.7335 91.5902 70.8881C91.5902 71.0908 91.6489 71.2588 91.7662 71.3921C91.8889 71.5255 92.0462 71.6401 92.2382 71.7361C92.4355 71.8321 92.6569 71.9201 92.9022 72.0001C93.1529 72.0748 93.4062 72.1548 93.6622 72.2401C93.9235 72.3255 94.1769 72.4241 94.4222 72.5361C94.6729 72.6428 94.8942 72.7788 95.0862 72.9441C95.2835 73.1041 95.4409 73.2988 95.5582 73.5281C95.6809 73.7575 95.7422 74.0375 95.7422 74.3681C95.7422 74.7468 95.6729 75.0988 95.5342 75.4241C95.4009 75.7441 95.2009 76.0215 94.9342 76.2561C94.6729 76.4908 94.3475 76.6748 93.9582 76.8081C93.5689 76.9415 93.1235 77.0081 92.6222 77.0081C92.0622 77.0081 91.5449 76.9148 91.0702 76.7281C90.5955 76.5415 90.1982 76.3041 89.8782 76.0161L90.2462 75.4161C90.2889 75.3415 90.3422 75.2855 90.4062 75.2481C90.4702 75.2055 90.5555 75.1841 90.6622 75.1841C90.7635 75.1841 90.8675 75.2215 90.9742 75.2961C91.0809 75.3708 91.2089 75.4535 91.3582 75.5441C91.5075 75.6295 91.6889 75.7095 91.9022 75.7841C92.1155 75.8535 92.3822 75.8881 92.7022 75.8881C92.9689 75.8881 93.2009 75.8561 93.3982 75.7921C93.5955 75.7228 93.7582 75.6321 93.8862 75.5201C94.0195 75.4028 94.1182 75.2695 94.1822 75.1201C94.2462 74.9708 94.2782 74.8135 94.2782 74.6481C94.2782 74.4348 94.2169 74.2588 94.0942 74.1201C93.9769 73.9761 93.8195 73.8535 93.6222 73.7521C93.4302 73.6508 93.2089 73.5628 92.9582 73.4881C92.7075 73.4135 92.4515 73.3335 92.1902 73.2481C91.9289 73.1628 91.6729 73.0641 91.4222 72.9521C91.1715 72.8401 90.9475 72.6988 90.7502 72.5281C90.5582 72.3575 90.4009 72.1495 90.2782 71.9041C90.1609 71.6588 90.1022 71.3601 90.1022 71.0081C90.1022 70.6935 90.1662 70.3921 90.2942 70.1041C90.4275 69.8161 90.6169 69.5628 90.8622 69.3441C91.1129 69.1255 91.4195 68.9521 91.7822 68.8241C92.1502 68.6908 92.5689 68.6241 93.0382 68.6241C93.5769 68.6241 94.0622 68.7095 94.4942 68.8801C94.9315 69.0508 95.3049 69.2855 95.6142 69.5841L95.2702 70.1521Z" fill="white"/>
</svg>
