<svg width="145" height="142" viewBox="0 0 145 142" fill="none" xmlns="http://www.w3.org/2000/svg">
<path d="M87.035 16.8282C117.518 24.8152 135.622 55.5475 127.493 85.4581C119.364 115.369 88.0724 133.159 57.5892 125.172C27.106 117.185 9.00232 86.4525 17.1315 56.5419C25.2606 26.6314 56.5518 8.8412 87.035 16.8282Z" fill="#F4B942" stroke="black"/>
<g opacity="0.1">
<path d="M18.78 51.4925C21.3338 44.7443 25.188 38.5401 30.1336 33.22C35.1906 27.78 41.2899 23.3708 48.0835 20.2446C54.8771 17.1183 62.2318 15.3364 69.7276 15.0008C77.0677 14.6722 84.4019 15.7368 91.3287 18.1347C91.2783 18.3083 91.2129 18.5304 91.1323 18.797C90.9154 19.5144 90.5887 20.5539 90.1508 21.8389C89.2747 24.4093 87.954 27.9591 86.1766 31.8751C82.6148 39.7219 77.2463 48.9763 69.9924 54.7974C66.4382 57.6496 61.4655 58.8985 55.9353 59.1297C50.4129 59.3605 44.3961 58.5738 38.8151 57.415C33.2373 56.257 28.1137 54.7312 24.3833 53.4943C22.5186 52.876 21.0034 52.3304 19.9551 51.9396C19.4509 51.7516 19.0549 51.5996 18.78 51.4925Z" fill="white" stroke="black"/>
</g>
<path d="M112.48 84.3311C109.564 92.2318 104.327 99.1075 97.4304 104.088C90.5334 109.069 82.286 111.93 73.7309 112.309C65.1758 112.689 56.6985 110.569 49.3712 106.218C42.044 101.867 36.1965 95.4818 32.567 87.8703C28.9376 80.2589 27.6886 71.7625 28.9771 63.4554C30.2657 55.1483 34.0341 47.4019 39.8072 41.196C45.5804 34.9899 53.0992 30.6029 61.4138 28.5911C69.7284 26.5793 78.4642 27.0333 86.5163 29.896C91.8636 31.7971 96.7767 34.7136 100.975 38.4788C105.173 42.2439 108.575 46.7837 110.985 51.8385C113.395 56.8934 114.768 62.3645 115.024 67.9394C115.28 73.5143 114.416 79.0842 112.48 84.3311Z" fill="#F4B942" stroke="black"/>
<g opacity="0.2">
<path d="M112.48 84.3311C109.564 92.2318 104.327 99.1075 97.4304 104.088C90.5334 109.069 82.286 111.93 73.7309 112.309C65.1758 112.689 56.6985 110.569 49.3712 106.218C42.044 101.867 36.1965 95.4818 32.567 87.8703C28.9376 80.2589 27.6886 71.7625 28.9771 63.4554C30.2657 55.1483 34.0341 47.4019 39.8072 41.196C45.5804 34.9899 53.0992 30.6029 61.4138 28.5911C69.7284 26.5793 78.4642 27.0333 86.5163 29.896C91.8636 31.7971 96.7767 34.7136 100.975 38.4788C105.173 42.2439 108.575 46.7837 110.985 51.8385C113.395 56.8934 114.768 62.3645 115.024 67.9394C115.28 73.5143 114.416 79.0842 112.48 84.3311Z" fill="black" stroke="black"/>
</g>
<path d="M113.024 86.4307C110.147 94.2253 104.979 101.008 98.1736 105.921C91.368 110.833 83.2302 113.655 74.7895 114.027C66.3487 114.398 57.9854 112.304 50.7578 108.009C43.5302 103.714 37.7636 97.4117 34.1861 89.9005C30.6086 82.3894 29.3805 74.0062 30.6562 65.8109C31.932 57.6157 35.6544 49.975 41.354 43.8556C47.0537 37.736 54.4748 33.4125 62.6796 31.4332C70.8843 29.4538 79.503 29.908 87.4451 32.7384C98.0912 36.5325 106.764 44.3216 111.56 54.3901C116.355 64.4582 116.881 75.9828 113.024 86.4307Z" fill="#F4B942" stroke="black"/>
<g opacity="0.2">
<path d="M113.024 86.4307C110.147 94.2253 104.979 101.008 98.1736 105.921C91.368 110.833 83.2302 113.655 74.7895 114.027C66.3487 114.398 57.9854 112.304 50.7578 108.009C43.5302 103.714 37.7636 97.4117 34.1861 89.9005C30.6086 82.3894 29.3805 74.0062 30.6562 65.8109C31.932 57.6157 35.6544 49.975 41.354 43.8556C47.0537 37.736 54.4748 33.4125 62.6796 31.4332C70.8843 29.4538 79.503 29.908 87.4451 32.7384C98.0912 36.5325 106.764 44.3216 111.56 54.3901C116.355 64.4582 116.881 75.9828 113.024 86.4307Z" fill="white" stroke="black"/>
</g>
<g opacity="0.3">
<path d="M75.3167 69.1256L75.1788 69.4994L75.512 69.7163C78.1136 71.4091 80.7291 73.2054 82.3829 75.4227C84.0069 77.6001 84.7031 80.1815 83.454 83.5282L83.4533 83.5301C82.5479 85.9858 80.7917 87.9364 78.2609 89.0347C75.7237 90.1358 72.3685 90.3963 68.2552 89.3861L67.8204 89.2793L67.6651 89.6999L65.7461 94.8962L62.1431 93.6126L61.6641 92.9211L62.2594 93.1196L62.7198 93.2732L62.8883 92.8171L64.4537 88.5786L64.6184 88.1326L64.1816 87.9469C59.4725 85.9443 55.4031 82.8011 53.5414 79.7991L57.0476 76.2289C59.2513 79.3468 62.271 81.8271 65.7919 83.4055L66.2813 83.6249L66.4671 83.1207L70.1935 73.0072L70.331 72.6341L69.9988 72.4172C67.3879 70.7123 64.7979 68.9064 63.1672 66.6862C61.5652 64.5053 60.8872 61.9236 62.1167 58.5841C63.023 56.1257 64.7728 54.1562 67.2875 53.0442C69.8074 51.93 73.1366 51.6595 77.2166 52.686L77.6535 52.7959L77.8095 52.3726L79.741 47.1305L81.675 47.8263L82.1437 47.995L82.3154 47.5264L82.4773 47.0846L83.0699 48.04L81.0516 53.4382L80.8873 53.8775L81.3149 54.0683C83.81 55.1815 86.0493 56.7788 87.8981 58.7635L88.0608 58.9382L88.2994 58.9208L88.9867 58.8707L89.8629 60.801L89.4041 61.3036L86.6709 64.1889C86.1546 63.4595 85.5865 62.7667 84.9708 62.1155L84.9561 62.1L84.9402 62.0858C83.4011 60.7151 81.6822 59.5532 79.8294 58.6309L79.7459 58.5893L79.6528 58.5807L79.6036 58.5761L79.2201 58.5407L79.0867 58.9024L75.3167 69.1256ZM71.5992 67.1153L72.1321 67.4994L72.3615 66.8823L75.7081 57.8804L75.9137 57.3275L75.335 57.2168C73.3435 56.8355 71.7149 56.96 70.4548 57.5166C69.1835 58.0782 68.3341 59.0595 67.8817 60.2886C67.352 61.6766 67.6157 62.9243 68.3555 64.051C69.0771 65.15 70.2589 66.1491 71.5992 67.1153ZM69.7354 84.1726L69.5298 84.7229L70.1055 84.8364C72.1404 85.2374 73.7931 85.1593 75.0716 84.6512C76.3669 84.1363 77.2341 83.1965 77.7053 81.9785L77.7054 81.9786L77.709 81.9687C78.2221 80.5555 77.9464 79.2806 77.1858 78.1278C76.4426 77.0012 75.2301 75.9771 73.8346 74.9919L73.3042 74.6175L73.0766 75.2271L69.7354 84.1726Z" fill="black" stroke="black"/>
</g>
<path d="M67.0581 87.3644L66.623 87.2571L66.4676 87.678L64.5486 92.8744L61.2691 91.706L63.1635 86.5725L63.3286 86.1251L62.8899 85.9402C58.1746 83.9537 54.1134 80.7896 52.2443 77.7839L55.7505 74.2137C57.9585 77.3309 60.9803 79.8111 64.5023 81.3914L64.9919 81.6111L65.1778 81.1066L68.9041 70.9932L69.0417 70.6199L68.7091 70.403C66.0942 68.6977 63.5024 66.8917 61.8718 64.6707C60.2701 62.489 59.594 59.9056 60.828 56.5621L60.828 56.562C61.7341 54.1043 63.4824 52.1448 65.9956 51.0385C68.5143 49.9297 71.8422 49.661 75.9207 50.6717L76.3555 50.7794L76.5115 50.3589L78.4601 45.1074L81.7404 46.2761L79.845 51.4178L79.6778 51.8715L80.1252 52.0526C83.5407 53.4349 86.5626 55.6059 88.9361 58.3776L85.6179 61.9955C83.6254 59.7552 81.2036 57.9196 78.4888 56.5944L77.9909 56.3514L77.7988 56.8722L74.0288 67.0955L73.8911 67.4689L74.2238 67.6858C76.8408 69.3924 79.4645 71.1957 81.1266 73.4155C82.7592 75.5957 83.4629 78.1744 82.2304 81.5139L82.2296 81.5159C81.3368 83.9678 79.5871 85.9183 77.0596 87.0168C74.5258 88.1179 71.1709 88.3785 67.0581 87.3644ZM70.4007 65.11L70.9333 65.4929L71.1624 64.8766L74.509 55.8747L74.7142 55.3229L74.1369 55.2112C72.1413 54.8253 70.5102 54.9496 69.2495 55.5075C67.9782 56.0701 67.1308 57.0535 66.6826 58.2828C66.149 59.6664 66.411 60.9141 67.1504 62.0415C67.872 63.1417 69.0558 64.1431 70.4007 65.11ZM72.5529 72.9783L72.0205 72.6034L71.7947 73.2157L68.4945 82.165L68.292 82.714L68.8655 82.8269C70.9048 83.2284 72.5605 83.1464 73.8354 82.6353C75.1274 82.1173 75.9858 81.1747 76.435 79.9589C76.9581 78.5449 76.6816 77.2684 75.9175 76.1149C75.171 74.9881 73.9521 73.9636 72.5529 72.9783Z" fill="#F4B942" stroke="black"/>
<path d="M116.405 73.055C116.405 73.0587 116.405 73.0625 116.405 73.0662C116.405 73.0625 116.405 73.0587 116.405 73.055C116.397 72.2395 116.393 71.4293 116.389 70.6289C116.388 70.4087 116.387 70.1892 116.386 69.9706C116.416 70.615 116.411 71.261 116.406 71.9036C116.403 72.2891 116.4 72.6732 116.405 73.055ZM115.906 71.8767C115.903 72.2625 115.9 72.6527 115.905 73.0524C115.905 73.0559 115.905 73.0595 115.904 73.063C115.897 72.2456 115.893 71.4332 115.889 70.6321C115.888 70.4154 115.887 70.1996 115.886 69.9847C115.916 70.6183 115.911 71.2415 115.906 71.8767ZM89.5674 111.065L89.5674 111.065L89.5674 111.065Z" fill="#263238" stroke="black"/>
<mask id="path-10-inside-1_32_3840" fill="white">
<path d="M16.9787 79.5622C16.9344 79.396 16.9008 79.2273 16.8781 79.0569C16.8307 78.6866 16.7582 78.2327 16.6766 77.6152C16.5949 76.9978 16.4884 76.2074 16.4419 75.3086C16.3955 74.4098 16.2867 73.3833 16.3135 72.2392C16.3101 71.6696 16.3089 71.0759 16.3019 70.4572C16.2949 69.8386 16.3656 69.1864 16.3961 68.5225C16.4414 67.1849 16.6601 65.7658 16.8036 64.2665C17.2633 61.0281 17.9904 57.8318 18.9777 54.7091C20.0121 51.6125 21.2947 48.6013 22.8133 45.7036C23.552 44.3894 24.2361 43.127 24.9891 42.0093C25.3582 41.4416 25.6847 40.8863 26.0484 40.375C26.412 39.8638 26.7726 39.3848 27.107 38.9196C27.7602 37.9797 28.448 37.1975 28.9959 36.4918C29.4796 35.8825 29.9944 35.2976 30.5385 34.7395L31.5593 33.6791C31.6718 33.5488 31.797 33.4297 31.933 33.3232C31.8471 33.4725 31.742 33.6104 31.6204 33.7335L30.6852 34.8506C30.259 35.3236 29.7547 35.9195 29.2052 36.6412C28.6557 37.363 27.9836 38.1548 27.3551 39.097C27.0206 39.5622 26.6839 40.0515 26.3292 40.5555C25.9745 41.0594 25.6473 41.6228 25.2864 42.1913C24.5498 43.3105 23.8904 44.5751 23.1688 45.8827C21.6744 48.7782 20.4093 51.7824 19.3848 54.8687C18.4113 57.9653 17.6765 61.1295 17.1864 64.3344C17.0436 65.8256 16.81 67.227 16.7812 68.5661C16.7179 69.2271 16.6569 69.8639 16.6639 70.4825C16.6709 71.1012 16.6556 71.6934 16.6426 72.2614C16.601 73.3879 16.6851 74.4121 16.7152 75.3094C16.7452 76.2067 16.8032 76.9845 16.8751 77.6173C16.947 78.2501 16.9628 78.6907 17.0012 79.0683C17.0113 79.2333 17.0038 79.3988 16.9787 79.5622Z"/>
</mask>
<path d="M16.9787 79.5622C16.9344 79.396 16.9008 79.2273 16.8781 79.0569C16.8307 78.6866 16.7582 78.2327 16.6766 77.6152C16.5949 76.9978 16.4884 76.2074 16.4419 75.3086C16.3955 74.4098 16.2867 73.3833 16.3135 72.2392C16.3101 71.6696 16.3089 71.0759 16.3019 70.4572C16.2949 69.8386 16.3656 69.1864 16.3961 68.5225C16.4414 67.1849 16.6601 65.7658 16.8036 64.2665C17.2633 61.0281 17.9904 57.8318 18.9777 54.7091C20.0121 51.6125 21.2947 48.6013 22.8133 45.7036C23.552 44.3894 24.2361 43.127 24.9891 42.0093C25.3582 41.4416 25.6847 40.8863 26.0484 40.375C26.412 39.8638 26.7726 39.3848 27.107 38.9196C27.7602 37.9797 28.448 37.1975 28.9959 36.4918C29.4796 35.8825 29.9944 35.2976 30.5385 34.7395L31.5593 33.6791C31.6718 33.5488 31.797 33.4297 31.933 33.3232C31.8471 33.4725 31.742 33.6104 31.6204 33.7335L30.6852 34.8506C30.259 35.3236 29.7547 35.9195 29.2052 36.6412C28.6557 37.363 27.9836 38.1548 27.3551 39.097C27.0206 39.5622 26.6839 40.0515 26.3292 40.5555C25.9745 41.0594 25.6473 41.6228 25.2864 42.1913C24.5498 43.3105 23.8904 44.5751 23.1688 45.8827C21.6744 48.7782 20.4093 51.7824 19.3848 54.8687C18.4113 57.9653 17.6765 61.1295 17.1864 64.3344C17.0436 65.8256 16.81 67.227 16.7812 68.5661C16.7179 69.2271 16.6569 69.8639 16.6639 70.4825C16.6709 71.1012 16.6556 71.6934 16.6426 72.2614C16.601 73.3879 16.6851 74.4121 16.7152 75.3094C16.7452 76.2067 16.8032 76.9845 16.8751 77.6173C16.947 78.2501 16.9628 78.6907 17.0012 79.0683C17.0113 79.2333 17.0038 79.3988 16.9787 79.5622Z" fill="white"/>
<path d="M16.8781 79.0569L15.8858 79.1869L15.8865 79.1922L16.8781 79.0569ZM16.3135 72.2392L17.3135 72.2592L17.3139 72.2445L17.3138 72.2298L16.3135 72.2392ZM16.3961 68.5225L17.3954 68.5649L17.3958 68.5529L16.3961 68.5225ZM16.8036 64.2665L15.8133 64.1293L15.8101 64.1519L15.8079 64.1746L16.8036 64.2665ZM18.9777 54.7091L18.029 54.3954L18.0264 54.4031L18.024 54.4108L18.9777 54.7091ZM22.8133 45.7036L21.9416 45.2162L21.9344 45.229L21.9275 45.2421L22.8133 45.7036ZM24.9891 42.0093L25.8183 42.5657L25.8229 42.5589L25.8274 42.552L24.9891 42.0093ZM27.107 38.9196L27.9187 39.5011L27.9234 39.4946L27.928 39.488L27.107 38.9196ZM28.9959 36.4918L28.213 35.8721L28.2064 35.8806L28.9959 36.4918ZM30.5385 34.7395L31.2539 35.4359L31.2583 35.4313L30.5385 34.7395ZM31.5593 33.6791L32.2791 34.3709L32.2979 34.3513L32.3156 34.3308L31.5593 33.6791ZM31.933 33.3232L32.7997 33.8195L31.3179 32.5369L31.933 33.3232ZM31.6204 33.7335L30.9098 33.0323L30.8806 33.0618L30.854 33.0936L31.6204 33.7335ZM30.6852 34.8506L31.4275 35.5183L31.4398 35.5047L31.4516 35.4906L30.6852 34.8506ZM27.3551 39.097L28.1668 39.6785L28.177 39.6642L28.1868 39.6496L27.3551 39.097ZM25.2864 42.1913L26.1216 42.7386L26.1261 42.7317L26.1306 42.7248L25.2864 42.1913ZM23.1688 45.8827L22.2933 45.4023L22.2865 45.4145L22.2802 45.4268L23.1688 45.8827ZM19.3848 54.8687L18.4355 54.5568L18.433 54.5643L18.4306 54.572L19.3848 54.8687ZM17.1864 64.3344L16.1976 64.1866L16.1933 64.2144L16.1906 64.2424L17.1864 64.3344ZM16.7812 68.5661L17.7769 68.658L17.7805 68.6212L17.7813 68.5843L16.7812 68.5661ZM16.6426 72.2614L17.6424 72.295L17.6427 72.2809L16.6426 72.2614ZM17.0012 79.0683L17.9996 79.0038L17.9984 78.9838L17.9964 78.964L17.0012 79.0683ZM17.9454 79.3017C17.912 79.1766 17.8867 79.0497 17.8696 78.9216L15.8865 79.1922C15.9149 79.4049 15.9568 79.6155 16.0121 79.8228L17.9454 79.3017ZM17.8703 78.9269C17.8283 78.5981 17.7395 78.0195 17.6683 77.481L15.6849 77.7495C15.777 78.4459 15.8331 78.7751 15.8858 79.1869L17.8703 78.9269ZM17.6683 77.481C17.5862 76.8605 17.485 76.1073 17.4409 75.2537L15.4429 75.3635C15.4917 76.3074 15.6036 77.1351 15.6849 77.7495L17.6683 77.481ZM17.4409 75.2537C17.391 74.2878 17.2879 73.354 17.3135 72.2592L15.3134 72.2192C15.2855 73.4125 15.4 74.5318 15.4429 75.3635L17.4409 75.2537ZM17.3138 72.2298C17.3104 71.6657 17.3092 71.0646 17.3022 70.4426L15.3017 70.4719C15.3086 71.0872 15.3097 71.6735 15.3132 72.2485L17.3138 72.2298ZM17.3022 70.4426C17.2955 69.8546 17.3606 69.3218 17.3954 68.5649L15.3968 68.48C15.3706 69.0511 15.2943 69.8226 15.3017 70.4719L17.3022 70.4426ZM17.3958 68.5529C17.4399 67.2519 17.6478 65.9414 17.7994 64.3584L15.8079 64.1746C15.6723 65.5901 15.4429 67.1179 15.3963 68.492L17.3958 68.5529ZM17.794 64.4037C18.246 61.2199 18.9608 58.0775 19.9315 55.0074L18.024 54.4108C17.0201 57.5861 16.2807 60.8363 15.8133 64.1293L17.794 64.4037ZM19.9265 55.0228C20.9438 51.9772 22.2053 49.0153 23.6991 46.165L21.9275 45.2421C20.384 48.1872 19.0804 51.2479 18.029 54.3954L19.9265 55.0228ZM23.6851 46.1909C24.4366 44.854 25.0943 43.6403 25.8183 42.5657L24.1599 41.4529C23.3778 42.6138 22.6675 43.9247 21.9416 45.2162L23.6851 46.1909ZM25.8274 42.552C26.2322 41.9293 26.5128 41.4448 26.863 40.9524L25.2337 39.7976C24.8566 40.3278 24.4842 40.9539 24.1508 41.4666L25.8274 42.552ZM26.863 40.9524C27.2392 40.4236 27.5527 40.0103 27.9187 39.5011L26.2953 38.3381C25.9925 38.7593 25.5849 39.304 25.2337 39.7976L26.863 40.9524ZM27.928 39.488C28.5647 38.5717 29.1852 37.8761 29.7854 37.103L28.2064 35.8806C27.7108 36.5189 26.9557 37.3876 26.286 38.3512L27.928 39.488ZM29.7788 37.1115C30.2412 36.5289 30.7335 35.9696 31.2539 35.4359L29.8231 34.0432C29.2553 34.6256 28.7179 35.2361 28.213 35.8722L29.7788 37.1115ZM31.2583 35.4313L32.2791 34.3709L30.8396 32.9872L29.8187 34.0477L31.2583 35.4313ZM32.3156 34.3308C32.3854 34.2501 32.4632 34.176 32.548 34.1096L31.3179 32.5369C31.1308 32.6833 30.9583 32.8476 30.8031 33.0273L32.3156 34.3308ZM31.0663 32.827C31.0235 32.9013 30.971 32.9703 30.9098 33.0323L32.331 34.4347C32.513 34.2505 32.6706 34.0438 32.7997 33.8195L31.0663 32.827ZM30.854 33.0936L29.9189 34.2107L31.4516 35.4906L32.3867 34.3734L30.854 33.0936ZM29.9429 34.183C29.4995 34.675 28.9773 35.2922 28.4098 36.0377L30.0006 37.2448C30.532 36.5468 31.0184 35.9722 31.4275 35.5183L29.9429 34.183ZM28.4098 36.0377C27.9026 36.704 27.1739 37.5691 26.5233 38.5444L28.1868 39.6496C28.7933 38.7405 29.4089 38.0221 30.0006 37.2448L28.4098 36.0377ZM26.5433 38.5155C26.2056 38.9852 25.8574 39.4909 25.5117 39.9822L27.1468 41.1288C27.5104 40.6121 27.8356 40.1391 28.1668 39.6785L26.5433 38.5155ZM25.5117 39.9822C25.1398 40.5106 24.7728 41.1371 24.4423 41.6577L26.1306 42.7248C26.5218 42.1085 26.8093 41.6083 27.1468 41.1288L25.5117 39.9822ZM24.4512 41.6439C23.6863 42.8061 22.9977 44.1256 22.2933 45.4023L24.0444 46.3632C24.7831 45.0246 25.4133 43.8149 26.1216 42.7386L24.4512 41.6439ZM22.2802 45.4268C20.7618 48.3686 19.4764 51.4209 18.4355 54.5568L20.3342 55.1806C21.3422 52.1439 22.587 49.1878 24.0575 46.3387L22.2802 45.4268ZM18.4306 54.572C17.4418 57.7173 16.6954 60.9312 16.1976 64.1866L18.1752 64.4821C18.6576 61.3277 19.3809 58.2134 20.3391 55.1654L18.4306 54.572ZM16.1906 64.2424C16.0575 65.6328 15.8109 67.1651 15.7811 68.548L17.7813 68.5843C17.8092 67.289 18.0297 66.0183 18.1822 64.4263L16.1906 64.2424ZM15.7854 68.4742C15.7231 69.1244 15.6559 69.8156 15.6637 70.4972L17.6642 70.4679C17.6579 69.9121 17.7126 69.3297 17.7769 68.658L15.7854 68.4742ZM15.6637 70.4972C15.6704 71.0953 15.6557 71.6688 15.6426 72.2419L17.6427 72.2809C17.6556 71.718 17.6714 71.1071 17.6642 70.4679L15.6637 70.4972ZM15.643 72.2279C15.5997 73.4007 15.6874 74.5095 15.7154 75.3462L17.7149 75.2726C17.6829 74.3147 17.6024 73.375 17.6423 72.2949L15.643 72.2279ZM15.7154 75.3462C15.7462 76.2661 15.8059 77.0707 15.8812 77.7334L17.8691 77.5012C17.8005 76.8983 17.7442 76.1472 17.7149 75.2726L15.7154 75.3462ZM15.8812 77.7334C15.9151 78.0317 15.9359 78.2858 15.9532 78.5165C15.97 78.7398 15.985 78.9664 16.006 79.1726L17.9964 78.964C17.979 78.7925 17.967 78.6101 17.9483 78.3605C17.9301 78.1184 17.9071 77.8358 17.8691 77.5012L15.8812 77.7334ZM16.0028 79.1328C16.0085 79.2268 16.0042 79.3211 15.99 79.4141L17.9675 79.7104C18.0034 79.4765 18.0141 79.2397 17.9996 79.0038L16.0028 79.1328Z" fill="black" mask="url(#path-10-inside-1_32_3840)"/>
<mask id="path-12-inside-2_32_3840" fill="white">
<path d="M90.7902 29.7146C90.3416 29.5709 89.9044 29.3947 89.4825 29.1872C89.0695 29.0027 88.5685 28.7857 87.9682 28.5677C87.368 28.3496 86.6926 28.0515 85.9289 27.8102C85.1652 27.5689 84.3241 27.2717 83.4111 27.0329C82.4981 26.7941 81.512 26.5404 80.4751 26.2983C75.945 25.3428 71.2928 25.0723 66.6796 25.4964C65.6244 25.6186 64.6133 25.7122 63.6773 25.8861C62.7414 26.0599 61.875 26.1994 61.0883 26.3708C60.3017 26.5421 59.5972 26.721 58.9778 26.8753C58.3585 27.0295 57.8212 27.1913 57.3945 27.3227C56.9503 27.4769 56.4957 27.6007 56.034 27.6931C56.4507 27.4811 56.8859 27.3063 57.3346 27.1708C57.7643 27.0072 58.2867 26.8277 58.9084 26.6493C59.53 26.4709 60.2228 26.2421 61.0169 26.0796C61.8109 25.917 62.7104 25.6911 63.6225 25.5069C64.5346 25.3228 65.5809 25.208 66.6451 25.0785C68.9702 24.8528 71.3092 24.7969 73.6428 24.9114C75.9718 25.06 78.286 25.3824 80.5652 25.8757C81.6096 26.1266 82.607 26.3488 83.5146 26.644C84.4221 26.9392 85.2746 27.2049 86.0344 27.4865C86.7942 27.7681 87.4712 28.0501 88.0602 28.2997C88.6491 28.5492 89.1568 28.7831 89.5593 28.991C89.9902 29.1966 90.4021 29.4387 90.7902 29.7146Z"/>
</mask>
<path d="M90.7902 29.7146C90.3416 29.5709 89.9044 29.3947 89.4825 29.1872C89.0695 29.0027 88.5685 28.7857 87.9682 28.5677C87.368 28.3496 86.6926 28.0515 85.9289 27.8102C85.1652 27.5689 84.3241 27.2717 83.4111 27.0329C82.4981 26.7941 81.512 26.5404 80.4751 26.2983C75.945 25.3428 71.2928 25.0723 66.6796 25.4964C65.6244 25.6186 64.6133 25.7122 63.6773 25.8861C62.7414 26.0599 61.875 26.1994 61.0883 26.3708C60.3017 26.5421 59.5972 26.721 58.9778 26.8753C58.3585 27.0295 57.8212 27.1913 57.3945 27.3227C56.9503 27.4769 56.4957 27.6007 56.034 27.6931C56.4507 27.4811 56.8859 27.3063 57.3346 27.1708C57.7643 27.0072 58.2867 26.8277 58.9084 26.6493C59.53 26.4709 60.2228 26.2421 61.0169 26.0796C61.8109 25.917 62.7104 25.6911 63.6225 25.5069C64.5346 25.3228 65.5809 25.208 66.6451 25.0785C68.9702 24.8528 71.3092 24.7969 73.6428 24.9114C75.9718 25.06 78.286 25.3824 80.5652 25.8757C81.6096 26.1266 82.607 26.3488 83.5146 26.644C84.4221 26.9392 85.2746 27.2049 86.0344 27.4865C86.7942 27.7681 87.4712 28.0501 88.0602 28.2997C88.6491 28.5492 89.1568 28.7831 89.5593 28.991C89.9902 29.1966 90.4021 29.4387 90.7902 29.7146Z" fill="white"/>
<path d="M89.4825 29.1872L89.9265 28.2899L89.91 28.2818L89.8933 28.2744L89.4825 29.1872ZM80.4751 26.2983L80.7057 25.3248L80.6953 25.3224L80.6848 25.3202L80.4751 26.2983ZM66.6796 25.4964L66.5913 24.5009L66.5795 24.502L66.5678 24.5034L66.6796 25.4964ZM57.3945 27.3227L57.1029 26.3674L57.086 26.3727L57.0692 26.3785L57.3945 27.3227ZM56.034 27.6931L55.5824 26.8026L56.2273 28.6733L56.034 27.6931ZM57.3346 27.1708L57.6209 28.1277L57.6548 28.1174L57.6879 28.1048L57.3346 27.1708ZM66.6451 25.0785L66.5517 24.0835L66.5396 24.0847L66.5275 24.0862L66.6451 25.0785ZM73.6428 24.9114L73.7099 23.9137L73.7025 23.9132L73.6951 23.9129L73.6428 24.9114ZM80.5652 25.8757L80.8021 24.9037L80.7911 24.901L80.7801 24.8986L80.5652 25.8757ZM89.5593 28.991L89.0975 29.8794L89.1116 29.8866L89.1258 29.8935L89.5593 28.991ZM91.0982 28.7624C90.6961 28.6337 90.3044 28.4758 89.9265 28.2899L89.0385 30.0845C89.5044 30.3136 89.987 30.5082 90.4822 30.6667L91.0982 28.7624ZM89.8933 28.2744C89.4711 28.0858 88.9455 27.8578 88.3128 27.628L87.6237 29.5073C88.1916 29.7136 88.6679 29.9197 89.0717 30.1001L89.8933 28.2744ZM88.3128 27.628C87.8099 27.4453 87.0089 27.1019 86.2333 26.8569L85.6245 28.7635C86.3763 29.001 86.9261 29.2539 87.6237 29.5073L88.3128 27.628ZM86.2333 26.8569C85.5109 26.6287 84.6124 26.3129 83.6674 26.0657L83.1548 28.0001C84.0358 28.2305 84.8195 28.5091 85.6245 28.7635L86.2333 26.8569ZM83.6674 26.0657C82.7522 25.8264 81.7558 25.57 80.7057 25.3248L80.2444 27.2719C81.2681 27.5109 82.244 27.7619 83.1548 28.0001L83.6674 26.0657ZM80.6848 25.3202C76.0569 24.344 71.3043 24.0677 66.5913 24.5009L66.7679 26.4919C71.2814 26.077 75.8331 26.3416 80.2653 27.2765L80.6848 25.3202ZM66.5678 24.5034C65.5461 24.6216 64.4782 24.7211 63.4978 24.9032L63.8569 26.8689C64.7483 26.7034 65.7026 26.6155 66.7914 26.4895L66.5678 24.5034ZM63.4978 24.9032C62.5959 25.0707 61.6842 25.2186 60.8785 25.3941L61.2982 27.3475C62.0657 27.1803 62.8869 27.049 63.8569 26.8689L63.4978 24.9032ZM60.8785 25.3941C60.074 25.5693 59.353 25.7524 58.739 25.9053L59.2167 27.8452C59.8414 27.6896 60.5294 27.5149 61.2982 27.3475L60.8785 25.3941ZM58.739 25.9053C58.0927 26.0663 57.5347 26.2345 57.1029 26.3674L57.6862 28.278C58.1078 28.1482 58.6243 27.9928 59.2167 27.8452L58.739 25.9053ZM57.0692 26.3785C56.6681 26.5177 56.2576 26.6295 55.8406 26.713L56.2273 28.6733C56.7337 28.5719 57.2324 28.4361 57.7199 28.2669L57.0692 26.3785ZM56.4855 28.5837C56.8491 28.3986 57.2291 28.246 57.6209 28.1277L57.0482 26.2139C56.5428 26.3665 56.0522 26.5635 55.5824 26.8026L56.4855 28.5837ZM57.6879 28.1048C58.0927 27.9507 58.5883 27.7803 59.1815 27.6101L58.6352 25.6885C57.9851 25.8751 57.436 26.0636 56.9812 26.2368L57.6879 28.1048ZM59.1815 27.6101C59.8485 27.4186 60.4712 27.211 61.2144 27.0589L60.8193 25.1002C59.9744 25.2731 59.2115 25.5231 58.6352 25.6885L59.1815 27.6101ZM61.2144 27.0589C61.6247 26.9749 62.0605 26.8749 62.4947 26.776C62.9334 26.676 63.3751 26.5761 63.8175 26.4868L63.4276 24.5271C62.9579 24.6219 62.4938 24.727 62.0562 24.8267C61.6141 24.9274 61.203 25.0217 60.8193 25.1002L61.2144 27.0589ZM63.8175 26.4868C64.6806 26.3125 65.6753 26.2031 66.7626 26.0709L66.5275 24.0862C65.4865 24.2128 64.3886 24.333 63.4276 24.5271L63.8175 26.4868ZM66.7385 26.0735C69.0151 25.8525 71.3054 25.7978 73.5904 25.9098L73.6951 23.9129C71.313 23.7961 68.9253 23.8531 66.5517 24.0835L66.7385 26.0735ZM73.5757 25.909C75.855 26.0545 78.1198 26.37 80.3504 26.8528L80.7801 24.8986C78.4521 24.3948 76.0886 24.0656 73.7099 23.9137L73.5757 25.909ZM80.3283 26.8477C81.3991 27.105 82.3427 27.3152 83.2021 27.5947L83.827 25.6933C82.8713 25.3824 81.82 25.1482 80.8021 24.9037L80.3283 26.8477ZM83.2021 27.5947C84.1278 27.8958 84.949 28.1516 85.6839 28.424L86.385 26.5491C85.6002 26.2583 84.7164 25.9826 83.827 25.6933L83.2021 27.5947ZM85.6839 28.424C86.4218 28.6974 87.082 28.9724 87.6671 29.2203L88.4532 27.3791C87.8604 27.1279 87.1667 26.8387 86.385 26.5491L85.6839 28.424ZM87.6671 29.2203C88.2418 29.4638 88.7248 29.6869 89.0975 29.8794L90.021 28.1027C89.5887 27.8794 89.0564 27.6347 88.4532 27.3791L87.6671 29.2203ZM89.1258 29.8935C89.5051 30.0744 89.8675 30.2874 90.2087 30.5299L91.3718 28.8992C90.9367 28.5901 90.4753 28.3189 89.9927 28.0886L89.1258 29.8935Z" fill="black" mask="url(#path-12-inside-2_32_3840)"/>
<mask id="path-14-inside-3_32_3840" fill="white">
<path d="M60.315 123.791C59.9594 123.797 59.6043 123.764 59.256 123.693C58.5746 123.63 57.6226 123.453 56.3969 123.193C53.2778 122.503 50.2485 121.468 47.3669 120.107C44.4882 118.74 41.7792 117.052 39.2934 115.077C38.3477 114.314 37.6062 113.669 37.1217 113.193C36.8428 112.964 36.5898 112.706 36.3672 112.424C36.6697 112.607 36.9517 112.821 37.2087 113.063C37.7217 113.5 38.4909 114.116 39.4569 114.84C44.4996 118.642 50.2824 121.39 56.4485 122.914C57.6212 123.209 58.5865 123.42 59.2535 123.547C59.6149 123.592 59.9705 123.674 60.315 123.791Z"/>
</mask>
<path d="M60.315 123.791C59.9594 123.797 59.6043 123.764 59.256 123.693C58.5746 123.63 57.6226 123.453 56.3969 123.193C53.2778 122.503 50.2485 121.468 47.3669 120.107C44.4882 118.74 41.7792 117.052 39.2934 115.077C38.3477 114.314 37.6062 113.669 37.1217 113.193C36.8428 112.964 36.5898 112.706 36.3672 112.424C36.6697 112.607 36.9517 112.821 37.2087 113.063C37.7217 113.5 38.4909 114.116 39.4569 114.84C44.4996 118.642 50.2824 121.39 56.4485 122.914C57.6212 123.209 58.5865 123.42 59.2535 123.547C59.6149 123.592 59.9705 123.674 60.315 123.791Z" fill="white"/>
<path d="M59.256 123.693L59.4583 122.714L59.4052 122.703L59.3513 122.698L59.256 123.693ZM56.3969 123.193L56.1774 124.17L56.1864 124.171L56.3969 123.193ZM47.3669 120.107L46.9351 121.01L46.9372 121.011L47.3669 120.107ZM39.2934 115.077L38.6638 115.856L38.6692 115.86L39.2934 115.077ZM37.1217 113.193L37.824 112.479L37.7924 112.448L37.7581 112.419L37.1217 113.193ZM36.3672 112.424L36.8883 111.569L35.5808 113.044L36.3672 112.424ZM37.2087 113.063L36.5227 113.792L36.5398 113.809L36.5578 113.824L37.2087 113.063ZM39.4569 114.84L40.0612 114.041L40.0585 114.039L39.4569 114.84ZM56.4485 122.914L56.696 121.944L56.6917 121.943L56.4485 122.914ZM59.2535 123.547L59.0636 124.529L59.0938 124.535L59.1243 124.538L59.2535 123.547ZM60.3023 122.791C60.0189 122.796 59.7358 122.77 59.4583 122.714L59.0538 124.673C59.4727 124.758 59.9 124.797 60.3277 124.791L60.3023 122.791ZM59.3513 122.698C58.7351 122.641 57.8356 122.476 56.6074 122.215L56.1864 124.171C57.4096 124.43 58.4141 124.62 59.1607 124.689L59.3513 122.698ZM56.6164 122.217C53.5697 121.543 50.611 120.532 47.7967 119.203L46.9372 121.011C49.8861 122.404 52.9859 123.463 56.1775 124.17L56.6164 122.217ZM47.7988 119.204C44.9883 117.869 42.3439 116.221 39.9176 114.293L38.6692 115.86C41.2145 117.883 43.988 119.611 46.9351 121.01L47.7988 119.204ZM39.923 114.298C38.9883 113.544 38.2752 112.922 37.824 112.479L36.4195 113.907C36.9373 114.416 37.7072 115.084 38.6639 115.856L39.923 114.298ZM37.7581 112.419C37.5343 112.236 37.3317 112.029 37.1536 111.803L35.5808 113.044C35.848 113.383 36.1513 113.692 36.4854 113.966L37.7581 112.419ZM35.8461 113.279C36.0896 113.427 36.3163 113.599 36.5227 113.792L37.8948 112.333C37.5872 112.044 37.2498 111.788 36.8883 111.569L35.8461 113.279ZM36.5578 113.824C37.0907 114.279 37.8771 114.908 38.8553 115.64L40.0585 114.039C39.1048 113.325 38.3528 112.722 37.8597 112.301L36.5578 113.824ZM38.8527 115.638C44.0033 119.523 49.9091 122.329 56.2054 123.884L56.6917 121.943C50.6557 120.452 44.9958 117.762 40.0612 114.041L38.8527 115.638ZM56.2011 123.883C57.3885 124.182 58.3734 124.398 59.0636 124.529L59.4433 122.564C58.7995 122.442 57.8538 122.236 56.696 121.944L56.2011 123.883ZM59.1243 124.538C59.4195 124.576 59.7099 124.643 59.9911 124.738L60.639 122.844C60.2312 122.706 59.8102 122.609 59.3826 122.555L59.1243 124.538Z" fill="black" mask="url(#path-14-inside-3_32_3840)"/>
<path d="M120.01 102.613C121.979 99.7546 123.682 96.728 125.099 93.5699L115.306 108.489C115.308 108.487 115.311 108.484 115.313 108.482C115.313 108.481 115.314 108.481 115.314 108.481C117.01 106.629 118.578 104.669 120.01 102.613Z" fill="#263238" stroke="black"/>
<path d="M24.4816 78.0902L25.8351 81.1695L25.8938 81.3031L26.0153 81.3838L28.8227 83.2491L25.7117 84.5613L25.5763 84.6184L25.493 84.7395L23.5783 87.5231L22.2256 84.4378L22.1668 84.3036L22.0446 84.2227L19.2373 82.3642L22.3496 81.0454L22.4842 80.9883L22.5672 80.8679L24.4816 78.0902Z" fill="white" stroke="black"/>
<path d="M33.8768 41.5688L34.3867 42.731L34.4457 42.8653L34.568 42.9462L35.6198 43.6414L34.4545 44.1319L34.3189 44.189L34.2355 44.3102L33.5138 45.3587L33.0039 44.1965L32.9451 44.0626L32.8233 43.9818L31.7755 43.2865L32.937 42.7952L33.072 42.7381L33.1551 42.6173L33.8768 41.5688Z" fill="#F5F5F5" stroke="black"/>
<path d="M106.119 42.532L107.444 45.5555L107.503 45.6897L107.625 45.7707L110.383 47.5986L107.328 48.8831L107.192 48.9402L107.108 49.0617L105.233 51.7897L103.915 48.7676L103.856 48.6325L103.733 48.5513L100.975 46.7301L104.032 45.439L104.168 45.3816L104.251 45.26L106.119 42.532Z" fill="white" stroke="black"/>
<path d="M97.5924 116.603L98.4559 118.571L98.5146 118.705L98.6364 118.786L100.424 119.972L98.4425 120.811L98.3075 120.868L98.2244 120.988L97.0025 122.763L96.1389 120.796L96.0802 120.662L95.9584 120.581L94.1707 119.395L96.1523 118.556L96.2873 118.499L96.3704 118.378L97.5924 116.603Z" fill="#F5F5F5" stroke="black"/>
</svg>
