<svg width="139" height="139" viewBox="0 0 139 139" fill="none" xmlns="http://www.w3.org/2000/svg">
<ellipse cx="69.8049" cy="69.4929" rx="68.8049" ry="69.4929" fill="#EFF2F1"/>
<path fill-rule="evenodd" clip-rule="evenodd" d="M88.7942 50.963C81.6967 51.6945 73.0275 46.4483 68.2161 51.7012C63.4009 56.9584 70.1689 65.1462 69.3281 72.2158C68.2287 81.4599 58.2385 90.0608 62.6801 98.2493C67.2823 106.734 79.3568 110.231 88.7942 108.104C97.4283 106.157 99.3373 95.1908 105.276 88.6462C110.628 82.7468 119.706 79.9984 121.357 72.2158C123.246 63.3142 121.753 51.9543 114.118 46.9706C106.685 42.1195 97.6313 50.0522 88.7942 50.963Z" stroke="#4059AD"/>
<path fill-rule="evenodd" clip-rule="evenodd" d="M88.1063 45.4102C79.3957 46.3166 68.7562 39.8159 62.8514 46.325C56.9418 52.8394 65.248 62.985 64.2161 71.7452C62.8668 83.1999 50.6062 93.8575 56.0571 104.004C61.7054 114.518 76.524 118.851 88.1063 116.215C98.7027 113.803 101.046 100.214 108.333 92.1047C114.903 84.7946 126.044 81.3889 128.07 71.7452C130.388 60.715 128.556 46.6386 119.185 40.4632C110.063 34.4519 98.9518 44.2817 88.1063 45.4102Z" stroke="#97D8C4"/>
<circle cx="68.8049" cy="69.8049" r="68.8049" fill="black" fill-opacity="0.4"/>
<path d="M46.9786 73.4603C47.0746 73.4603 47.1573 73.4976 47.2266 73.5723L47.8986 74.3083C47.4293 74.863 46.8559 75.2923 46.1786 75.5963C45.5066 75.9003 44.6959 76.0523 43.7466 76.0523C42.9146 76.0523 42.1599 75.9083 41.4826 75.6203C40.8106 75.3323 40.2346 74.9296 39.7546 74.4123C39.2799 73.895 38.9119 73.2763 38.6506 72.5563C38.3893 71.8363 38.2586 71.0443 38.2586 70.1803C38.2586 69.3163 38.3946 68.5243 38.6666 67.8043C38.9439 67.0843 39.3306 66.4656 39.8266 65.9483C40.3226 65.431 40.9146 65.0283 41.6026 64.7403C42.2959 64.4523 43.0613 64.3083 43.8986 64.3083C44.7146 64.3083 45.4399 64.4416 46.0746 64.7083C46.7093 64.975 47.2613 65.3296 47.7306 65.7723L47.1706 66.5643C47.1333 66.623 47.0853 66.671 47.0266 66.7083C46.9733 66.7456 46.9013 66.7643 46.8106 66.7643C46.7093 66.7643 46.5893 66.7136 46.4506 66.6123C46.3173 66.511 46.1386 66.399 45.9146 66.2763C45.6959 66.1483 45.4239 66.0336 45.0986 65.9323C44.7733 65.831 44.3679 65.7803 43.8826 65.7803C43.3119 65.7803 42.7893 65.8816 42.3146 66.0843C41.8399 66.2816 41.4293 66.5696 41.0826 66.9483C40.7413 67.3216 40.4746 67.783 40.2826 68.3323C40.0959 68.8763 40.0026 69.4923 40.0026 70.1803C40.0026 70.879 40.1013 71.5003 40.2986 72.0443C40.4959 72.5883 40.7679 73.0496 41.1146 73.4283C41.4613 73.807 41.8693 74.095 42.3386 74.2923C42.8079 74.4896 43.3146 74.5883 43.8586 74.5883C44.1893 74.5883 44.4853 74.5696 44.7466 74.5323C45.0133 74.4896 45.2559 74.4283 45.4746 74.3483C45.6986 74.2683 45.9093 74.167 46.1066 74.0443C46.3039 73.9163 46.4986 73.7643 46.6906 73.5883C46.7333 73.551 46.7786 73.5216 46.8266 73.5003C46.8746 73.4736 46.9253 73.4603 46.9786 73.4603ZM52.5986 67.6683C53.1959 67.6683 53.7346 67.767 54.2146 67.9643C54.6999 68.1563 55.1106 68.4363 55.4466 68.8043C55.7879 69.167 56.0493 69.607 56.2306 70.1243C56.4119 70.6363 56.5026 71.2123 56.5026 71.8523C56.5026 72.4923 56.4119 73.071 56.2306 73.5883C56.0493 74.1056 55.7879 74.5456 55.4466 74.9083C55.1106 75.271 54.6999 75.551 54.2146 75.7483C53.7346 75.9403 53.1959 76.0363 52.5986 76.0363C51.9959 76.0363 51.4519 75.9403 50.9666 75.7483C50.4866 75.551 50.0759 75.271 49.7346 74.9083C49.3933 74.5456 49.1293 74.1056 48.9426 73.5883C48.7613 73.071 48.6706 72.4923 48.6706 71.8523C48.6706 71.2123 48.7613 70.6363 48.9426 70.1243C49.1293 69.607 49.3933 69.167 49.7346 68.8043C50.0759 68.4363 50.4866 68.1563 50.9666 67.9643C51.4519 67.767 51.9959 67.6683 52.5986 67.6683ZM52.5986 74.8203C53.3666 74.8203 53.9399 74.5616 54.3186 74.0443C54.6973 73.527 54.8866 72.799 54.8866 71.8603C54.8866 70.9216 54.6973 70.1936 54.3186 69.6763C53.9399 69.1536 53.3666 68.8923 52.5986 68.8923C51.8199 68.8923 51.2386 69.1536 50.8546 69.6763C50.4759 70.1936 50.2866 70.9216 50.2866 71.8603C50.2866 72.799 50.4759 73.527 50.8546 74.0443C51.2386 74.5616 51.8199 74.8203 52.5986 74.8203ZM59.708 68.9243C59.884 68.7376 60.068 68.567 60.26 68.4123C60.452 68.2576 60.6546 68.127 60.868 68.0203C61.0866 67.9083 61.3186 67.823 61.564 67.7643C61.8146 67.7003 62.0813 67.6683 62.364 67.6683C62.812 67.6683 63.204 67.743 63.54 67.8923C63.8813 68.0416 64.1666 68.2523 64.396 68.5243C64.6253 68.791 64.7986 69.1136 64.916 69.4923C65.0333 69.871 65.092 70.2896 65.092 70.7483V75.9243H63.524V70.7483C63.524 70.167 63.3906 69.7163 63.124 69.3963C62.8573 69.071 62.4493 68.9083 61.9 68.9083C61.5 68.9083 61.124 69.0043 60.772 69.1963C60.4253 69.383 60.1026 69.639 59.804 69.9643V75.9243H58.244V67.7963H59.18C59.3986 67.7963 59.5346 67.9003 59.588 68.1083L59.708 68.9243ZM72.8931 69.3163C72.8451 69.375 72.7971 69.423 72.7491 69.4603C72.7064 69.4923 72.6424 69.5083 72.5571 69.5083C72.4718 69.5083 72.3811 69.4763 72.2851 69.4123C72.1944 69.343 72.0771 69.271 71.9331 69.1963C71.7944 69.1163 71.6238 69.0443 71.4211 68.9803C71.2238 68.911 70.9784 68.8763 70.6851 68.8763C70.3011 68.8763 69.9624 68.9456 69.6691 69.0843C69.3758 69.223 69.1304 69.4203 68.9331 69.6763C68.7411 69.9323 68.5944 70.2443 68.4931 70.6123C68.3918 70.9803 68.3411 71.3936 68.3411 71.8523C68.3411 72.327 68.3944 72.751 68.5011 73.1243C68.6078 73.4923 68.7598 73.8043 68.9571 74.0603C69.1544 74.311 69.3944 74.503 69.6771 74.6363C69.9598 74.7643 70.2744 74.8283 70.6211 74.8283C70.9571 74.8283 71.2344 74.7883 71.4531 74.7083C71.6718 74.623 71.8531 74.5323 71.9971 74.4363C72.1411 74.3403 72.2611 74.2523 72.3571 74.1723C72.4531 74.087 72.5518 74.0443 72.6531 74.0443C72.7811 74.0443 72.8798 74.0923 72.9491 74.1883L73.3971 74.7643C73.2104 74.9936 72.9998 75.1883 72.7651 75.3483C72.5358 75.5083 72.2904 75.639 72.0291 75.7403C71.7678 75.8416 71.4931 75.9163 71.2051 75.9643C70.9224 76.0123 70.6344 76.0363 70.3411 76.0363C69.8344 76.0363 69.3598 75.943 68.9171 75.7563C68.4798 75.5696 68.0984 75.2976 67.7731 74.9403C67.4531 74.583 67.1998 74.1456 67.0131 73.6283C66.8264 73.1056 66.7331 72.5136 66.7331 71.8523C66.7331 71.2496 66.8158 70.6923 66.9811 70.1803C67.1518 69.6683 67.3998 69.2283 67.7251 68.8603C68.0558 68.487 68.4611 68.1963 68.9411 67.9883C69.4211 67.775 69.9704 67.6683 70.5891 67.6683C71.1704 67.6683 71.6824 67.7616 72.1251 67.9483C72.5678 68.135 72.9624 68.399 73.3091 68.7403L72.8931 69.3163ZM80.0967 70.9563C80.0967 70.647 80.0514 70.3616 79.9607 70.1003C79.8754 69.839 79.7474 69.6123 79.5767 69.4203C79.4061 69.2283 79.1981 69.079 78.9527 68.9723C78.7074 68.8656 78.4247 68.8123 78.1047 68.8123C77.4487 68.8123 76.9314 69.0016 76.5527 69.3803C76.1794 69.759 75.9421 70.2843 75.8407 70.9563H80.0967ZM81.3847 74.7643C81.1927 74.9883 80.9714 75.183 80.7207 75.3483C80.4701 75.5083 80.2034 75.639 79.9207 75.7403C79.6381 75.8416 79.3447 75.9163 79.0407 75.9643C78.7421 76.0123 78.4461 76.0363 78.1527 76.0363C77.5927 76.0363 77.0727 75.943 76.5927 75.7563C76.1181 75.5643 75.7047 75.287 75.3527 74.9243C75.0061 74.5563 74.7341 74.103 74.5367 73.5643C74.3447 73.0203 74.2487 72.3963 74.2487 71.6923C74.2487 71.127 74.3367 70.6016 74.5127 70.1163C74.6887 69.6256 74.9394 69.199 75.2647 68.8363C75.5954 68.4736 75.9981 68.1883 76.4727 67.9803C76.9474 67.7723 77.4807 67.6683 78.0727 67.6683C78.5687 67.6683 79.0247 67.751 79.4407 67.9163C79.8621 68.0763 80.2247 68.311 80.5287 68.6203C80.8327 68.9296 81.0701 69.311 81.2407 69.7643C81.4167 70.2176 81.5047 70.735 81.5047 71.3163C81.5047 71.5563 81.4781 71.719 81.4247 71.8043C81.3714 71.8843 81.2727 71.9243 81.1287 71.9243H75.8007C75.8167 72.4096 75.8861 72.8336 76.0087 73.1963C76.1314 73.5536 76.2994 73.8523 76.5127 74.0923C76.7314 74.3323 76.9901 74.511 77.2887 74.6283C77.5874 74.7456 77.9207 74.8043 78.2887 74.8043C78.6354 74.8043 78.9341 74.7643 79.1847 74.6843C79.4407 74.6043 79.6594 74.519 79.8407 74.4283C80.0274 74.3323 80.1821 74.2443 80.3047 74.1643C80.4327 74.0843 80.5447 74.0443 80.6407 74.0443C80.7687 74.0443 80.8674 74.0923 80.9367 74.1883L81.3847 74.7643ZM84.6535 69.3563C84.9148 68.823 85.2295 68.4043 85.5975 68.1003C85.9655 67.7963 86.4081 67.6443 86.9255 67.6443C87.1015 67.6443 87.2668 67.6656 87.4215 67.7083C87.5815 67.7456 87.7201 67.8043 87.8375 67.8843L87.7335 69.0603C87.6961 69.2043 87.6081 69.2763 87.4695 69.2763C87.3948 69.2763 87.2828 69.263 87.1335 69.2363C86.9841 69.2043 86.8241 69.1883 86.6535 69.1883C86.4028 69.1883 86.1815 69.2256 85.9895 69.3003C85.7975 69.3696 85.6241 69.4763 85.4695 69.6203C85.3201 69.759 85.1868 69.9323 85.0695 70.1403C84.9521 70.343 84.8428 70.575 84.7415 70.8363V75.9243H83.1815V67.7963H84.0775C84.2481 67.7963 84.3628 67.8283 84.4215 67.8923C84.4855 67.951 84.5308 68.0576 84.5575 68.2123L84.6535 69.3563ZM91.5849 76.0523C90.9289 76.0523 90.4222 75.8683 90.0649 75.5003C89.7129 75.1323 89.5369 74.607 89.5369 73.9243V69.0603H88.5929C88.5022 69.0603 88.4249 69.0336 88.3609 68.9803C88.3022 68.9216 88.2729 68.8363 88.2729 68.7243V68.0923L89.5929 67.9083L89.9449 65.4843C89.9662 65.3936 90.0062 65.3243 90.0649 65.2763C90.1289 65.223 90.2089 65.1963 90.3049 65.1963H91.0969V67.9243H93.4009V69.0603H91.0969V73.8203C91.0969 74.1403 91.1742 74.3803 91.3289 74.5403C91.4889 74.695 91.6915 74.7723 91.9369 74.7723C92.0809 74.7723 92.2035 74.7536 92.3049 74.7163C92.4115 74.679 92.5022 74.639 92.5769 74.5963C92.6515 74.5483 92.7155 74.5056 92.7689 74.4683C92.8222 74.431 92.8702 74.4123 92.9129 74.4123C92.9662 74.4123 93.0062 74.4256 93.0329 74.4523C93.0649 74.4736 93.0969 74.511 93.1289 74.5643L93.5929 75.3163C93.3369 75.551 93.0329 75.7323 92.6809 75.8603C92.3289 75.9883 91.9635 76.0523 91.5849 76.0523ZM99.6297 69.1963C99.5871 69.2656 99.5417 69.3163 99.4937 69.3483C99.4457 69.375 99.3844 69.3883 99.3097 69.3883C99.2244 69.3883 99.1284 69.359 99.0217 69.3003C98.9204 69.2416 98.7951 69.1776 98.6457 69.1083C98.5017 69.039 98.3311 68.975 98.1337 68.9163C97.9364 68.8576 97.7017 68.8283 97.4297 68.8283C97.2057 68.8283 97.0004 68.8576 96.8137 68.9163C96.6324 68.9696 96.4777 69.047 96.3497 69.1483C96.2217 69.2443 96.1231 69.3616 96.0537 69.5003C95.9844 69.6336 95.9497 69.7776 95.9497 69.9323C95.9497 70.135 96.0084 70.303 96.1257 70.4363C96.2484 70.5696 96.4057 70.6843 96.5977 70.7803C96.7951 70.8763 97.0164 70.9643 97.2617 71.0443C97.5124 71.119 97.7657 71.199 98.0217 71.2843C98.2831 71.3696 98.5364 71.4683 98.7817 71.5803C99.0324 71.687 99.2537 71.823 99.4457 71.9883C99.6431 72.1483 99.8004 72.343 99.9177 72.5723C100.04 72.8016 100.102 73.0816 100.102 73.4123C100.102 73.791 100.032 74.143 99.8937 74.4683C99.7604 74.7883 99.5604 75.0656 99.2937 75.3003C99.0324 75.535 98.7071 75.719 98.3177 75.8523C97.9284 75.9856 97.4831 76.0523 96.9817 76.0523C96.4217 76.0523 95.9044 75.959 95.4297 75.7723C94.9551 75.5856 94.5577 75.3483 94.2377 75.0603L94.6057 74.4603C94.6484 74.3856 94.7017 74.3296 94.7657 74.2923C94.8297 74.2496 94.9151 74.2283 95.0217 74.2283C95.1231 74.2283 95.2271 74.2656 95.3337 74.3403C95.4404 74.415 95.5684 74.4976 95.7177 74.5883C95.8671 74.6736 96.0484 74.7536 96.2617 74.8283C96.4751 74.8976 96.7417 74.9323 97.0617 74.9323C97.3284 74.9323 97.5604 74.9003 97.7577 74.8363C97.9551 74.767 98.1177 74.6763 98.2457 74.5643C98.3791 74.447 98.4777 74.3136 98.5417 74.1643C98.6057 74.015 98.6377 73.8576 98.6377 73.6923C98.6377 73.479 98.5764 73.303 98.4537 73.1643C98.3364 73.0203 98.1791 72.8976 97.9817 72.7963C97.7897 72.695 97.5684 72.607 97.3177 72.5323C97.0671 72.4576 96.8111 72.3776 96.5497 72.2923C96.2884 72.207 96.0324 72.1083 95.7817 71.9963C95.5311 71.8843 95.3071 71.743 95.1097 71.5723C94.9177 71.4016 94.7604 71.1936 94.6377 70.9483C94.5204 70.703 94.4617 70.4043 94.4617 70.0523C94.4617 69.7376 94.5257 69.4363 94.6537 69.1483C94.7871 68.8603 94.9764 68.607 95.2217 68.3883C95.4724 68.1696 95.7791 67.9963 96.1417 67.8683C96.5097 67.735 96.9284 67.6683 97.3977 67.6683C97.9364 67.6683 98.4217 67.7536 98.8537 67.9243C99.2911 68.095 99.6644 68.3296 99.9737 68.6283L99.6297 69.1963Z" fill="white"/>
</svg>
