<svg width="17" height="25" viewBox="0 0 17 25" fill="none" xmlns="http://www.w3.org/2000/svg">
<path d="M14.896 5.072C14.768 5.296 14.6293 5.46133 14.48 5.568C14.3413 5.664 14.1653 5.712 13.952 5.712C13.728 5.712 13.4827 5.632 13.216 5.472C12.96 5.30133 12.6507 5.11467 12.288 4.912C11.9253 4.70933 11.4987 4.528 11.008 4.368C10.528 4.19733 9.95733 4.112 9.296 4.112C8.69867 4.112 8.176 4.18667 7.728 4.336C7.28 4.47467 6.90133 4.672 6.592 4.928C6.29333 5.184 6.06933 5.49333 5.92 5.856C5.77067 6.208 5.696 6.59733 5.696 7.024C5.696 7.568 5.84533 8.02133 6.144 8.384C6.45333 8.74667 6.85867 9.056 7.36 9.312C7.86133 9.568 8.432 9.79733 9.072 10C9.712 10.2027 10.368 10.4213 11.04 10.656C11.712 10.88 12.368 11.1467 13.008 11.456C13.648 11.7547 14.2187 12.1387 14.72 12.608C15.2213 13.0667 15.6213 13.632 15.92 14.304C16.2293 14.976 16.384 15.792 16.384 16.752C16.384 17.7973 16.2027 18.7787 15.84 19.696C15.488 20.6027 14.9653 21.3973 14.272 22.08C13.5893 22.752 12.752 23.2853 11.76 23.68C10.768 24.064 9.632 24.256 8.352 24.256C7.616 24.256 6.89067 24.1813 6.176 24.032C5.46133 23.8933 4.77333 23.6907 4.112 23.424C3.46133 23.1573 2.848 22.8373 2.272 22.464C1.696 22.0907 1.184 21.6747 0.736 21.216L2 19.152C2.10667 19.0027 2.24533 18.88 2.416 18.784C2.58667 18.6773 2.768 18.624 2.96 18.624C3.22667 18.624 3.51467 18.736 3.824 18.96C4.13333 19.1733 4.50133 19.4133 4.928 19.68C5.35467 19.9467 5.85067 20.192 6.416 20.416C6.992 20.6293 7.68 20.736 8.48 20.736C9.70667 20.736 10.656 20.448 11.328 19.872C12 19.2853 12.336 18.448 12.336 17.36C12.336 16.752 12.1813 16.256 11.872 15.872C11.5733 15.488 11.1733 15.168 10.672 14.912C10.1707 14.6453 9.6 14.4213 8.96 14.24C8.32 14.0587 7.66933 13.8613 7.008 13.648C6.34667 13.4347 5.696 13.1787 5.056 12.88C4.416 12.5813 3.84533 12.192 3.344 11.712C2.84267 11.232 2.43733 10.6347 2.128 9.92C1.82933 9.19467 1.68 8.304 1.68 7.248C1.68 6.40533 1.84533 5.584 2.176 4.784C2.51733 3.984 3.008 3.27467 3.648 2.656C4.288 2.03733 5.07733 1.54133 6.016 1.168C6.95467 0.794666 8.032 0.608 9.248 0.608C10.6133 0.608 11.872 0.821333 13.024 1.248C14.176 1.67467 15.1573 2.272 15.968 3.04L14.896 5.072Z" fill="url(#paint0_linear_36_3943)"/>
<defs>
<linearGradient id="paint0_linear_36_3943" x1="9" y1="-7" x2="9" y2="31" gradientUnits="userSpaceOnUse">
<stop stop-color="#F4B942"/>
<stop offset="0.479166" stop-color="#97D8C4"/>
<stop offset="1" stop-color="#4059AD"/>
</linearGradient>
</defs>
</svg>
