<svg width="110" height="117" viewBox="0 0 110 117" fill="none" xmlns="http://www.w3.org/2000/svg">
<path d="M18.557 107.876L18.3201 107.436L18.557 107.876ZM51.5208 86.7177L51.8333 87.1081L51.5208 86.7177ZM89.9205 37.6961L90.3566 37.9409L89.9205 37.6961ZM103.168 11.2517L102.699 11.0793L103.168 11.2517ZM105.948 0.641418C105.75 0.449091 105.433 0.453814 105.241 0.651968L102.107 3.88107C101.915 4.07922 101.919 4.39577 102.117 4.5881C102.316 4.78042 102.632 4.7757 102.825 4.57755L105.61 1.70724L108.481 4.49315C108.679 4.68548 108.995 4.68075 109.188 4.4826C109.38 4.28444 109.375 3.9679 109.177 3.77557L105.948 0.641418ZM3.19958 115.604C3.46376 115.524 3.61276 115.244 3.53238 114.98C3.452 114.716 3.17267 114.567 2.90848 114.647L3.19958 115.604ZM7.45204 112.973C7.19813 113.082 7.0803 113.376 7.18885 113.63C7.29741 113.884 7.59125 114.001 7.84516 113.893L7.45204 112.973ZM12.3042 111.786C12.5502 111.66 12.6478 111.359 12.5223 111.113C12.3967 110.867 12.0956 110.77 11.8496 110.895L12.3042 111.786ZM16.1647 108.603C15.922 108.735 15.8321 109.039 15.9638 109.281C16.0956 109.524 16.3991 109.614 16.6418 109.482L16.1647 108.603ZM21.6692 106.753C21.9112 106.619 21.9994 106.315 21.8662 106.073C21.7331 105.832 21.4291 105.743 21.1871 105.876L21.6692 106.753ZM26.8718 102.67C26.6328 102.809 26.5512 103.115 26.6895 103.354C26.8278 103.593 27.1337 103.674 27.3727 103.536L26.8718 102.67ZM33.001 100.186C33.2364 100.042 33.3103 99.7339 33.166 99.4985C33.0217 99.263 32.7139 99.1891 32.4784 99.3334L33.001 100.186ZM37.9903 95.8461C37.7592 95.9972 37.6944 96.3071 37.8455 96.5382C37.9966 96.7693 38.3065 96.8341 38.5376 96.683L37.9903 95.8461ZM43.9623 93.0052C44.1881 92.8462 44.2423 92.5343 44.0834 92.3085C43.9245 92.0827 43.6126 92.0285 43.3867 92.1874L43.9623 93.0052ZM48.6429 88.3343C48.4235 88.502 48.3817 88.8158 48.5494 89.0352C48.7172 89.2545 49.031 89.2964 49.2503 89.1286L48.6429 88.3343ZM54.2611 85.103C54.4713 84.924 54.4967 84.6084 54.3176 84.3982C54.1386 84.1879 53.823 84.1626 53.6128 84.3417L54.2611 85.103ZM58.2418 80.162C58.0422 80.3528 58.035 80.6693 58.2258 80.869C58.4165 81.0686 58.733 81.0758 58.9327 80.885L58.2418 80.162ZM63.3638 76.4181C63.5531 76.2171 63.5437 75.9007 63.3426 75.7113C63.1416 75.522 62.8252 75.5315 62.6359 75.7325L63.3638 76.4181ZM66.8036 71.0861C66.6241 71.2959 66.6487 71.6115 66.8586 71.791C67.0684 71.9705 67.384 71.946 67.5635 71.7361L66.8036 71.0861ZM71.5452 66.8699C71.7155 66.6526 71.6774 66.3383 71.4601 66.168C71.2427 65.9976 70.9284 66.0358 70.7581 66.2531L71.5452 66.8699ZM74.5148 61.2617C74.3529 61.4854 74.403 61.798 74.6267 61.9599C74.8504 62.1218 75.163 62.0717 75.3249 61.848L74.5148 61.2617ZM78.9208 56.6957C79.0751 56.4667 79.0145 56.1559 78.7855 56.0016C78.5565 55.8473 78.2458 55.9079 78.0915 56.1369L78.9208 56.6957ZM81.5075 50.9011C81.3599 51.1344 81.4294 51.4433 81.6628 51.5909C81.8962 51.7385 82.205 51.669 82.3527 51.4356L81.5075 50.9011ZM85.6415 46.088C85.7834 45.8511 85.7063 45.5441 85.4694 45.4022C85.2325 45.2603 84.9254 45.3374 84.7836 45.5743L85.6415 46.088ZM87.9426 40.1729C87.8055 40.4126 87.8886 40.7181 88.1283 40.8552C88.368 40.9924 88.6735 40.9092 88.8106 40.6695L87.9426 40.1729ZM92.1707 34.715C92.306 34.4743 92.2205 34.1694 91.9798 34.0341C91.7391 33.8988 91.4343 33.9842 91.299 34.225L92.1707 34.715ZM94.8846 27.7577C94.753 28.0004 94.8432 28.3039 95.086 28.4355C95.3287 28.5671 95.6322 28.4769 95.7638 28.2341L94.8846 27.7577ZM99.1869 21.6494C99.3091 21.4017 99.2074 21.1019 98.9597 20.9798C98.7121 20.8576 98.4123 20.9593 98.2901 21.207L99.1869 21.6494ZM101.354 14.5045C101.248 14.7594 101.368 15.0521 101.623 15.1583C101.878 15.2645 102.171 15.1439 102.277 14.889L101.354 14.5045ZM104.54 8.9225C104.631 8.66153 104.492 8.37679 104.231 8.28652C103.97 8.19625 103.686 8.33462 103.595 8.59559L104.54 8.9225ZM104.921 3.56724C104.88 3.84036 105.069 4.0948 105.342 4.13554C105.615 4.17628 105.869 3.9879 105.91 3.71478L104.921 3.56724ZM0.801347 116.247C1.61316 116.059 2.41216 115.844 3.19958 115.604L2.90848 114.647C2.14132 114.881 1.36425 115.091 0.575928 115.273L0.801347 116.247ZM7.84516 113.893C9.36486 113.243 10.848 112.529 12.3042 111.786L11.8496 110.895C10.4068 111.632 8.94495 112.335 7.45204 112.973L7.84516 113.893ZM16.6418 109.482C17.3629 109.091 18.0792 108.701 18.7939 108.317L18.3201 107.436C17.6033 107.822 16.8847 108.213 16.1647 108.603L16.6418 109.482ZM18.7939 108.317C19.7533 107.801 20.712 107.279 21.6692 106.753L21.1871 105.876C20.2328 106.402 19.2769 106.921 18.3201 107.436L18.7939 108.317ZM27.3727 103.536C29.2633 102.442 31.1415 101.326 33.001 100.186L32.4784 99.3334C30.6267 100.468 28.7557 101.58 26.8718 102.67L27.3727 103.536ZM38.5376 96.683C40.3738 95.4822 42.1842 94.2565 43.9623 93.0052L43.3867 92.1874C41.6186 93.4318 39.8176 94.651 37.9903 95.8461L38.5376 96.683ZM49.2503 89.1286C50.1218 88.4621 50.9831 87.7887 51.8333 87.1081L51.2083 86.3274C50.3641 87.0032 49.5086 87.6721 48.6429 88.3343L49.2503 89.1286ZM51.8333 87.1081C52.6541 86.4509 53.4633 85.7824 54.2611 85.103L53.6128 84.3417C52.8225 85.0146 52.0211 85.6767 51.2083 86.3274L51.8333 87.1081ZM58.9327 80.885C60.4526 79.4326 61.9288 77.9418 63.3638 76.4181L62.6359 75.7325C61.2123 77.244 59.7485 78.7223 58.2418 80.162L58.9327 80.885ZM67.5635 71.7361C68.9289 70.14 70.2553 68.516 71.5452 66.8699L70.7581 66.2531C69.4765 67.8886 68.1592 69.5014 66.8036 71.0861L67.5635 71.7361ZM75.3249 61.848C76.557 60.1456 77.7547 58.4262 78.9208 56.6957L78.0915 56.1369C76.9312 57.8588 75.7399 59.569 74.5148 61.2617L75.3249 61.848ZM82.3527 51.4356C83.4779 49.6567 84.5732 47.8721 85.6415 46.088L84.7836 45.5743C83.719 47.3521 82.628 49.1296 81.5075 50.9011L82.3527 51.4356ZM88.8106 40.6695C89.3321 39.758 89.8473 38.8481 90.3566 37.9409L89.4845 37.4514C88.9765 38.3565 88.4627 39.2639 87.9426 40.1729L88.8106 40.6695ZM90.3566 37.9409C90.9581 36.8691 91.5637 35.7947 92.1707 34.715L91.299 34.225C90.6928 35.3031 90.0862 36.3795 89.4845 37.4514L90.3566 37.9409ZM95.7638 28.2341C96.9442 26.0558 98.096 23.8608 99.1869 21.6494L98.2901 21.207C97.2064 23.4037 96.0609 25.5869 94.8846 27.7577L95.7638 28.2341ZM102.277 14.889C102.756 13.7388 103.211 12.5838 103.637 11.4242L102.699 11.0793C102.278 12.2245 101.828 13.3662 101.354 14.5045L102.277 14.889ZM103.637 11.4242C103.944 10.5906 104.252 9.75646 104.54 8.9225L103.595 8.59559C103.311 9.41849 103.006 10.2425 102.699 11.0793L103.637 11.4242ZM105.91 3.71478C106.043 2.82395 106.114 1.91828 106.1 0.992747L105.1 1.00767C105.113 1.87234 105.047 2.72334 104.921 3.56724L105.91 3.71478Z" fill="#97D8C4"/>
</svg>